NewtSerif-Italic.ufo
<glyph name="exclam" format="1">
  <advance width="262"/>
  <unicode hex="0021"/>
  <outline>
    <contour>
      <point x="174" y="559" type="curve" smooth="yes"/>
      <point x="180" y="582"/>
      <point x="189" y="588"/>
      <point x="205" y="593" type="curve" smooth="yes"/>
      <point x="236" y="601"/>
      <point x="247" y="603"/>
      <point x="267" y="603" type="curve" smooth="yes"/>
      <point x="284" y="603"/>
      <point x="292" y="605"/>
      <point x="286" y="583" type="curve" smooth="yes"/>
      <point x="279" y="559"/>
      <point x="226" y="444"/>
      <point x="220" y="427" type="curve" smooth="yes"/>
      <point x="189" y="350"/>
      <point x="163" y="271"/>
      <point x="144" y="202" type="curve" smooth="yes"/>
      <point x="138" y="183"/>
      <point x="136" y="176"/>
      <point x="121" y="173" type="curve" smooth="yes"/>
      <point x="109" y="170"/>
      <point x="112" y="181"/>
      <point x="116" y="203" type="curve" smooth="yes"/>
      <point x="128" y="264"/>
      <point x="150" y="358"/>
      <point x="157" y="419" type="curve" smooth="yes"/>
      <point x="160" y="439"/>
      <point x="170" y="544"/>
    </contour>
    <contour>
      <point x="98" y="79" type="curve" smooth="yes"/>
      <point x="120" y="81"/>
      <point x="146" y="70"/>
      <point x="146" y="46" type="curve" smooth="yes"/>
      <point x="146" y="9"/>
      <point x="116" y="-3"/>
      <point x="96" y="-5" type="curve" smooth="yes"/>
      <point x="60" y="-9"/>
      <point x="45" y="12"/>
      <point x="45" y="32" type="curve" smooth="yes"/>
      <point x="45" y="61"/>
      <point x="74" y="77"/>
    </contour>
  </outline>
</glyph>
<glyph name="quotedbl" format="1">
  <advance width="314"/>
  <unicode hex="0022"/>
  <outline>
    <contour>
      <point x="348" y="607" type="curve" smooth="yes"/>
      <point x="368" y="607"/>
      <point x="371" y="593"/>
      <point x="360" y="573" type="curve"/>
      <point x="338" y="524"/>
      <point x="311" y="464"/>
      <point x="294" y="409" type="curve" smooth="yes"/>
      <point x="289" y="390"/>
      <point x="282" y="380"/>
      <point x="272" y="380" type="curve" smooth="yes"/>
      <point x="263" y="380"/>
      <point x="263" y="387"/>
      <point x="266" y="409" type="curve" smooth="yes"/>
      <point x="273" y="453"/>
      <point x="273" y="522"/>
      <point x="273" y="567" type="curve" smooth="yes"/>
      <point x="273" y="597"/>
      <point x="285" y="598"/>
      <point x="302" y="602" type="curve" smooth="yes"/>
      <point x="316" y="605"/>
      <point x="337" y="607"/>
    </contour>
    <contour>
      <point x="193" y="607" type="curve" smooth="yes"/>
      <point x="213" y="607"/>
      <point x="215" y="593"/>
      <point x="205" y="573" type="curve"/>
      <point x="184" y="524"/>
      <point x="156" y="464"/>
      <point x="139" y="409" type="curve" smooth="yes"/>
      <point x="134" y="390"/>
      <point x="127" y="380"/>
      <point x="117" y="380" type="curve" smooth="yes"/>
      <point x="107" y="380"/>
      <point x="109" y="387"/>
      <point x="111" y="409" type="curve"/>
      <point x="118" y="453"/>
      <point x="118" y="522"/>
      <point x="118" y="567" type="curve" smooth="yes"/>
      <point x="118" y="597"/>
      <point x="130" y="598"/>
      <point x="147" y="602" type="curve" smooth="yes"/>
      <point x="162" y="605"/>
      <point x="181" y="607"/>
    </contour>
  </outline>
</glyph>
<glyph name="numbersign" format="1">
  <advance width="472"/>
  <unicode hex="0023"/>
  <outline>
    <contour>
      <point x="77" y="417" type="curve" smooth="yes"/>
      <point x="88" y="431"/>
      <point x="100" y="434"/>
      <point x="121" y="434" type="curve" smooth="yes"/>
      <point x="159" y="434" type="line" smooth="yes"/>
      <point x="173" y="434"/>
      <point x="173" y="442"/>
      <point x="176" y="454" type="curve" smooth="yes"/>
      <point x="205" y="569" type="line" smooth="yes"/>
      <point x="209" y="587"/>
      <point x="213" y="593"/>
      <point x="227" y="595" type="curve" smooth="yes"/>
      <point x="236" y="597"/>
      <point x="243" y="595"/>
      <point x="238" y="571" type="curve" smooth="yes"/>
      <point x="237" y="567"/>
      <point x="226" y="523"/>
      <point x="212" y="460" type="curve" smooth="yes"/>
      <point x="208" y="440"/>
      <point x="204" y="436"/>
      <point x="225" y="436" type="curve" smooth="yes"/>
      <point x="260" y="437"/>
      <point x="301" y="439"/>
      <point x="331" y="441" type="curve" smooth="yes"/>
      <point x="344" y="442"/>
      <point x="346" y="445"/>
      <point x="351" y="463" type="curve" smooth="yes"/>
      <point x="376" y="569" type="line" smooth="yes"/>
      <point x="380" y="587"/>
      <point x="386" y="593"/>
      <point x="400" y="595" type="curve" smooth="yes"/>
      <point x="407" y="597"/>
      <point x="415" y="595"/>
      <point x="410" y="571" type="curve" smooth="yes"/>
      <point x="386" y="464" type="line"/>
      <point x="381" y="447"/>
      <point x="378" y="446"/>
      <point x="396" y="446" type="curve"/>
      <point x="404" y="447"/>
      <point x="413" y="447"/>
      <point x="422" y="449" type="curve" smooth="yes"/>
      <point x="449" y="453"/>
      <point x="470" y="458"/>
      <point x="466" y="439" type="curve" smooth="yes"/>
      <point x="465" y="431"/>
      <point x="449" y="417"/>
      <point x="431" y="408" type="curve" smooth="yes"/>
      <point x="418" y="402"/>
      <point x="404" y="402"/>
      <point x="391" y="402" type="curve" smooth="yes"/>
      <point x="372" y="402"/>
      <point x="371" y="401"/>
      <point x="366" y="380" type="curve" smooth="yes"/>
      <point x="354" y="325"/>
      <point x="340" y="267"/>
      <point x="327" y="213" type="curve" smooth="yes"/>
      <point x="324" y="198"/>
      <point x="322" y="196"/>
      <point x="338" y="196" type="curve" smooth="yes"/>
      <point x="347" y="196"/>
      <point x="357" y="197"/>
      <point x="367" y="199" type="curve" smooth="yes"/>
      <point x="394" y="203"/>
      <point x="414" y="209"/>
      <point x="410" y="189" type="curve" smooth="yes"/>
      <point x="408" y="182"/>
      <point x="393" y="167"/>
      <point x="375" y="158" type="curve" smooth="yes"/>
      <point x="362" y="152"/>
      <point x="348" y="152"/>
      <point x="335" y="152" type="curve" smooth="yes"/>
      <point x="317" y="152"/>
      <point x="312" y="147"/>
      <point x="307" y="125" type="curve"/>
      <point x="301" y="89"/>
      <point x="297" y="72"/>
      <point x="292" y="54" type="curve" smooth="yes"/>
      <point x="285" y="28"/>
      <point x="283" y="15"/>
      <point x="272" y="7" type="curve" smooth="yes"/>
      <point x="258" y="-4"/>
      <point x="247" y="-8"/>
      <point x="234" y="-10" type="curve" smooth="yes"/>
      <point x="217" y="-13"/>
      <point x="228" y="9"/>
      <point x="230" y="14" type="curve" smooth="yes"/>
      <point x="241" y="36"/>
      <point x="250" y="70"/>
      <point x="257" y="93" type="curve"/>
      <point x="267" y="136" type="line" smooth="yes"/>
      <point x="269" y="147"/>
      <point x="270" y="151"/>
      <point x="253" y="151" type="curve" smooth="yes"/>
      <point x="159" y="149" type="line" smooth="yes"/>
      <point x="144" y="148"/>
      <point x="140" y="147"/>
      <point x="137" y="129" type="curve" smooth="yes"/>
      <point x="130" y="96"/>
      <point x="121" y="63"/>
      <point x="120" y="54" type="curve"/>
      <point x="114" y="30"/>
      <point x="110" y="15"/>
      <point x="100" y="7" type="curve" smooth="yes"/>
      <point x="86" y="-4"/>
      <point x="74" y="-8"/>
      <point x="62" y="-10" type="curve" smooth="yes"/>
      <point x="45" y="-13"/>
      <point x="56" y="9"/>
      <point x="58" y="14" type="curve" smooth="yes"/>
      <point x="68" y="36"/>
      <point x="77" y="70"/>
      <point x="84" y="93" type="curve" smooth="yes"/>
      <point x="88" y="104"/>
      <point x="91" y="112"/>
      <point x="94" y="130" type="curve" smooth="yes"/>
      <point x="95" y="136"/>
      <point x="98" y="148"/>
      <point x="88" y="149" type="curve" smooth="yes"/>
      <point x="75" y="150"/>
      <point x="63" y="150"/>
      <point x="41" y="149" type="curve" smooth="yes"/>
      <point x="20" y="148"/>
      <point x="13" y="154"/>
      <point x="21" y="167" type="curve" smooth="yes"/>
      <point x="31" y="182"/>
      <point x="45" y="184"/>
      <point x="66" y="184" type="curve" smooth="yes"/>
      <point x="91" y="184" type="line" smooth="yes"/>
      <point x="109" y="184"/>
      <point x="110" y="194"/>
      <point x="113" y="201" type="curve" smooth="yes"/>
      <point x="129" y="255"/>
      <point x="141" y="318"/>
      <point x="157" y="382" type="curve" smooth="yes"/>
      <point x="158" y="386"/>
      <point x="158" y="398"/>
      <point x="148" y="399" type="curve" smooth="yes"/>
      <point x="133" y="400"/>
      <point x="116" y="400"/>
      <point x="96" y="399" type="curve" smooth="yes"/>
      <point x="76" y="398"/>
      <point x="65" y="400"/>
    </contour>
    <contour>
      <point x="194" y="382" type="curve" smooth="yes"/>
      <point x="180" y="322"/>
      <point x="166" y="257"/>
      <point x="152" y="199" type="curve" smooth="yes"/>
      <point x="149" y="184"/>
      <point x="150" y="186"/>
      <point x="165" y="186" type="curve" smooth="yes"/>
      <point x="199" y="187"/>
      <point x="237" y="188"/>
      <point x="266" y="190" type="curve" smooth="yes"/>
      <point x="284" y="192"/>
      <point x="284" y="193"/>
      <point x="287" y="210" type="curve"/>
      <point x="301" y="261"/>
      <point x="315" y="321"/>
      <point x="329" y="380" type="curve" smooth="yes"/>
      <point x="333" y="398"/>
      <point x="333" y="401"/>
      <point x="320" y="401" type="curve" smooth="yes"/>
      <point x="290" y="401"/>
      <point x="247" y="400"/>
      <point x="215" y="399" type="curve" smooth="yes"/>
      <point x="201" y="399"/>
      <point x="198" y="395"/>
    </contour>
  </outline>
</glyph>
<glyph name="dollar" format="1">
  <advance width="373"/>
  <unicode hex="0024"/>
  <outline>
    <contour>
      <point x="183" y="57" type="curve"/>
      <point x="178" y="41"/>
      <point x="176" y="25"/>
      <point x="173" y="14" type="curve" smooth="yes"/>
      <point x="171" y="7"/>
      <point x="168" y="5"/>
      <point x="158" y="1" type="curve" smooth="yes"/>
      <point x="146" y="-4"/>
      <point x="131" y="-8"/>
      <point x="136" y="10" type="curve"/>
      <point x="137" y="24"/>
      <point x="141" y="44"/>
      <point x="144" y="58" type="curve" smooth="yes"/>
      <point x="146" y="70"/>
      <point x="134" y="72"/>
      <point x="125" y="73" type="curve" smooth="yes"/>
      <point x="82" y="78"/>
      <point x="37" y="98"/>
      <point x="38" y="147" type="curve"/>
      <point x="40" y="184"/>
      <point x="77" y="219"/>
      <point x="109" y="231" type="curve" smooth="yes"/>
      <point x="117" y="234"/>
      <point x="128" y="237"/>
      <point x="130" y="232" type="curve"/>
      <point x="135" y="231"/>
      <point x="135" y="226"/>
      <point x="127" y="220" type="curve"/>
      <point x="117" y="209"/>
      <point x="97" y="187"/>
      <point x="96" y="162" type="curve" smooth="yes"/>
      <point x="94" y="112"/>
      <point x="130" y="104"/>
      <point x="162" y="104" type="curve" smooth="yes"/>
      <point x="232" y="104"/>
      <point x="269" y="136"/>
      <point x="270" y="181" type="curve" smooth="yes"/>
      <point x="272" y="227"/>
      <point x="225" y="270"/>
      <point x="182" y="308" type="curve" smooth="yes"/>
      <point x="142" y="343"/>
      <point x="109" y="373"/>
      <point x="110" y="421" type="curve"/>
      <point x="112" y="461"/>
      <point x="173" y="514"/>
      <point x="230" y="516" type="curve" smooth="yes"/>
      <point x="237" y="516"/>
      <point x="245" y="525"/>
      <point x="246" y="531" type="curve" smooth="yes"/>
      <point x="259" y="580" type="line" smooth="yes"/>
      <point x="262" y="588"/>
      <point x="263" y="590"/>
      <point x="274" y="594" type="curve" smooth="yes"/>
      <point x="286" y="599"/>
      <point x="301" y="604"/>
      <point x="296" y="585" type="curve" smooth="yes"/>
      <point x="293" y="570"/>
      <point x="289" y="549"/>
      <point x="287" y="535" type="curve" smooth="yes"/>
      <point x="285" y="522"/>
      <point x="295" y="522"/>
      <point x="303" y="522" type="curve" smooth="yes"/>
      <point x="340" y="519"/>
      <point x="357" y="505"/>
      <point x="355" y="469" type="curve"/>
      <point x="355" y="450"/>
      <point x="333" y="423"/>
      <point x="315" y="412" type="curve" smooth="yes"/>
      <point x="302" y="403"/>
      <point x="294" y="400"/>
      <point x="290" y="403" type="curve" smooth="yes"/>
      <point x="285" y="406"/>
      <point x="286" y="410"/>
      <point x="294" y="423" type="curve"/>
      <point x="315" y="471"/>
      <point x="293" y="493"/>
      <point x="251" y="493" type="curve" smooth="yes"/>
      <point x="219" y="493"/>
      <point x="177" y="477"/>
      <point x="177" y="439" type="curve" smooth="yes"/>
      <point x="177" y="406"/>
      <point x="211" y="375"/>
      <point x="253" y="343" type="curve"/>
      <point x="307" y="300"/>
      <point x="335" y="258"/>
      <point x="335" y="208" type="curve" smooth="yes"/>
      <point x="335" y="154"/>
      <point x="281" y="84"/>
      <point x="195" y="75" type="curve" smooth="yes"/>
      <point x="185" y="74"/>
      <point x="184" y="65"/>
    </contour>
  </outline>
</glyph>
<glyph name="ampersand" format="1">
  <advance width="482"/>
  <unicode hex="0026"/>
  <outline>
    <contour>
      <point x="339" y="597" type="curve" smooth="yes"/>
      <point x="398" y="597"/>
      <point x="441" y="576"/>
      <point x="439" y="530" type="curve" smooth="yes"/>
      <point x="439" y="514"/>
      <point x="420" y="489"/>
      <point x="398" y="471" type="curve" smooth="yes"/>
      <point x="382" y="458"/>
      <point x="370" y="452"/>
      <point x="363" y="459" type="curve"/>
      <point x="355" y="465"/>
      <point x="358" y="474"/>
      <point x="363" y="481" type="curve" smooth="yes"/>
      <point x="369" y="491"/>
      <point x="375" y="505"/>
      <point x="375" y="516" type="curve" smooth="yes"/>
      <point x="374" y="535"/>
      <point x="364" y="563"/>
      <point x="310" y="563" type="curve" smooth="yes"/>
      <point x="278" y="563"/>
      <point x="215" y="538"/>
      <point x="214" y="472" type="curve"/>
      <point x="210" y="410"/>
      <point x="259" y="386"/>
      <point x="309" y="386" type="curve" smooth="yes"/>
      <point x="333" y="386"/>
      <point x="345" y="387"/>
      <point x="346" y="376" type="curve" smooth="yes"/>
      <point x="348" y="364"/>
      <point x="341" y="359"/>
      <point x="311" y="354" type="curve"/>
      <point x="210" y="343"/>
      <point x="124" y="272"/>
      <point x="119" y="173" type="curve" smooth="yes"/>
      <point x="115" y="88"/>
      <point x="162" y="30"/>
      <point x="240" y="30" type="curve" smooth="yes"/>
      <point x="311" y="30"/>
      <point x="388" y="89"/>
      <point x="391" y="162" type="curve"/>
      <point x="396" y="215"/>
      <point x="363" y="233"/>
      <point x="332" y="233" type="curve" smooth="yes"/>
      <point x="301" y="233"/>
      <point x="269" y="208"/>
      <point x="266" y="173" type="curve"/>
      <point x="266" y="149"/>
      <point x="270" y="141"/>
      <point x="279" y="129" type="curve"/>
      <point x="285" y="124"/>
      <point x="289" y="114"/>
      <point x="280" y="108" type="curve"/>
      <point x="271" y="100"/>
      <point x="257" y="107"/>
      <point x="245" y="119" type="curve" smooth="yes"/>
      <point x="231" y="134"/>
      <point x="221" y="151"/>
      <point x="223" y="179" type="curve" smooth="yes"/>
      <point x="225" y="234"/>
      <point x="284" y="294"/>
      <point x="367" y="294" type="curve" smooth="yes"/>
      <point x="430" y="294"/>
      <point x="467" y="259"/>
      <point x="464" y="178" type="curve" smooth="yes"/>
      <point x="459" y="70"/>
      <point x="325" y="-6"/>
      <point x="223" y="-6" type="curve" smooth="yes"/>
      <point x="77" y="-6"/>
      <point x="31" y="70"/>
      <point x="35" y="148" type="curve" smooth="yes"/>
      <point x="40" y="278"/>
      <point x="153" y="338"/>
      <point x="199" y="353" type="curve" smooth="yes"/>
      <point x="216" y="359"/>
      <point x="216" y="368"/>
      <point x="201" y="373" type="curve" smooth="yes"/>
      <point x="163" y="386"/>
      <point x="135" y="408"/>
      <point x="136" y="456" type="curve"/>
      <point x="141" y="545"/>
      <point x="244" y="597"/>
    </contour>
  </outline>
</glyph>
<glyph name="quotesingle" format="1">
  <advance width="158"/>
  <unicode hex="0027"/>
  <outline>
    <contour>
      <point x="193" y="605" type="curve" smooth="yes"/>
      <point x="213" y="605"/>
      <point x="215" y="592"/>
      <point x="205" y="572" type="curve"/>
      <point x="184" y="522"/>
      <point x="156" y="462"/>
      <point x="139" y="407" type="curve" smooth="yes"/>
      <point x="134" y="388"/>
      <point x="127" y="378"/>
      <point x="117" y="378" type="curve" smooth="yes"/>
      <point x="107" y="378"/>
      <point x="109" y="386"/>
      <point x="111" y="407" type="curve"/>
      <point x="118" y="451"/>
      <point x="118" y="520"/>
      <point x="118" y="566" type="curve" smooth="yes"/>
      <point x="118" y="595"/>
      <point x="130" y="597"/>
      <point x="147" y="600" type="curve"/>
      <point x="162" y="604"/>
      <point x="181" y="605"/>
    </contour>
  </outline>
</glyph>
<glyph name="parenleft" format="1">
  <advance width="266"/>
  <unicode hex="0028"/>
  <outline>
    <contour>
      <point x="306" y="593" type="curve" smooth="yes"/>
      <point x="311" y="584"/>
      <point x="301" y="574"/>
      <point x="284" y="555" type="curve" smooth="yes"/>
      <point x="230" y="495"/>
      <point x="177" y="407"/>
      <point x="143" y="276" type="curve" smooth="yes"/>
      <point x="130" y="224"/>
      <point x="125" y="172"/>
      <point x="125" y="126" type="curve" smooth="yes"/>
      <point x="126" y="60"/>
      <point x="138" y="6"/>
      <point x="155" y="-29" type="curve" smooth="yes"/>
      <point x="159" y="-38"/>
      <point x="162" y="-53"/>
      <point x="152" y="-61" type="curve" smooth="yes"/>
      <point x="142" y="-68"/>
      <point x="134" y="-57"/>
      <point x="121" y="-43" type="curve"/>
      <point x="91" y="-6"/>
      <point x="57" y="59"/>
      <point x="56" y="148" type="curve" smooth="yes"/>
      <point x="56" y="184"/>
      <point x="61" y="237"/>
      <point x="76" y="285" type="curve"/>
      <point x="120" y="411"/>
      <point x="202" y="526"/>
      <point x="265" y="579" type="curve"/>
      <point x="280" y="593"/>
      <point x="299" y="604"/>
    </contour>
  </outline>
</glyph>
<glyph name="parenright" format="1">
  <advance width="266"/>
  <unicode hex="0029"/>
  <outline>
    <contour>
      <point x="-9" y="-57" type="curve" smooth="yes"/>
      <point x="-14" y="-48"/>
      <point x="-4" y="-39"/>
      <point x="13" y="-19" type="curve" smooth="yes"/>
      <point x="67" y="40"/>
      <point x="120" y="129"/>
      <point x="154" y="259" type="curve" smooth="yes"/>
      <point x="168" y="311"/>
      <point x="172" y="364"/>
      <point x="172" y="409" type="curve" smooth="yes"/>
      <point x="171" y="476"/>
      <point x="159" y="529"/>
      <point x="142" y="565" type="curve" smooth="yes"/>
      <point x="138" y="573"/>
      <point x="135" y="589"/>
      <point x="145" y="597" type="curve" smooth="yes"/>
      <point x="155" y="604"/>
      <point x="163" y="593"/>
      <point x="176" y="578" type="curve" smooth="yes"/>
      <point x="206" y="541"/>
      <point x="240" y="477"/>
      <point x="241" y="387" type="curve" smooth="yes"/>
      <point x="241" y="351"/>
      <point x="237" y="299"/>
      <point x="221" y="252" type="curve" smooth="yes"/>
      <point x="178" y="125"/>
      <point x="95" y="9"/>
      <point x="32" y="-44" type="curve"/>
      <point x="17" y="-58"/>
      <point x="-2" y="-69"/>
    </contour>
  </outline>
</glyph>
<glyph name="asterisk" format="1">
  <advance width="411"/>
  <unicode hex="002A"/>
  <outline>
    <contour>
      <point x="327" y="505" type="curve" smooth="yes"/>
      <point x="321" y="491"/>
      <point x="306" y="461"/>
      <point x="295" y="439" type="curve"/>
      <point x="290" y="426"/>
      <point x="295" y="422"/>
      <point x="307" y="423" type="curve" smooth="yes"/>
      <point x="344" y="425"/>
      <point x="407" y="434"/>
      <point x="436" y="444" type="curve" smooth="yes"/>
      <point x="477" y="458"/>
      <point x="469" y="436"/>
      <point x="458" y="408" type="curve"/>
      <point x="446" y="383"/>
      <point x="426" y="379"/>
      <point x="389" y="380" type="curve"/>
      <point x="373" y="379"/>
      <point x="336" y="383"/>
      <point x="310" y="387" type="curve" smooth="yes"/>
      <point x="301" y="389"/>
      <point x="295" y="382"/>
      <point x="298" y="370" type="curve"/>
      <point x="311" y="335"/>
      <point x="338" y="276"/>
      <point x="354" y="252" type="curve"/>
      <point x="381" y="217"/>
      <point x="354" y="218"/>
      <point x="327" y="221" type="curve"/>
      <point x="301" y="225"/>
      <point x="290" y="245"/>
      <point x="280" y="277" type="curve" smooth="yes"/>
      <point x="275" y="293"/>
      <point x="264" y="335"/>
      <point x="259" y="361" type="curve" smooth="yes"/>
      <point x="257" y="374"/>
      <point x="248" y="372"/>
      <point x="238" y="370" type="curve"/>
      <point x="205" y="354"/>
      <point x="141" y="320"/>
      <point x="114" y="297" type="curve" smooth="yes"/>
      <point x="80" y="269"/>
      <point x="79" y="294"/>
      <point x="82" y="324" type="curve"/>
      <point x="83" y="353"/>
      <point x="104" y="363"/>
      <point x="137" y="374" type="curve" smooth="yes"/>
      <point x="152" y="380"/>
      <point x="189" y="389"/>
      <point x="215" y="396" type="curve"/>
      <point x="229" y="401"/>
      <point x="226" y="412"/>
      <point x="221" y="417" type="curve" smooth="yes"/>
      <point x="192" y="444"/>
      <point x="141" y="481"/>
      <point x="113" y="494" type="curve"/>
      <point x="76" y="513"/>
      <point x="99" y="524"/>
      <point x="123" y="535" type="curve"/>
      <point x="151" y="542"/>
      <point x="167" y="530"/>
      <point x="192" y="505" type="curve" smooth="yes"/>
      <point x="203" y="494"/>
      <point x="225" y="471"/>
      <point x="240" y="448" type="curve"/>
      <point x="247" y="441"/>
      <point x="255" y="441"/>
      <point x="258" y="455" type="curve"/>
      <point x="270" y="490"/>
      <point x="284" y="543"/>
      <point x="285" y="572" type="curve" smooth="yes"/>
      <point x="286" y="614"/>
      <point x="304" y="600"/>
      <point x="325" y="578" type="curve" smooth="yes"/>
      <point x="343" y="558"/>
      <point x="340" y="538"/>
    </contour>
  </outline>
</glyph>
<glyph name="plus" format="1">
  <advance width="455"/>
  <unicode hex="002B"/>
  <outline>
    <contour>
      <point x="66" y="269" type="curve" smooth="yes"/>
      <point x="45" y="269"/>
      <point x="37" y="274"/>
      <point x="46" y="288" type="curve" smooth="yes"/>
      <point x="56" y="302"/>
      <point x="69" y="305"/>
      <point x="91" y="305" type="curve" smooth="yes"/>
      <point x="206" y="307" type="line" smooth="yes"/>
      <point x="222" y="308"/>
      <point x="224" y="311"/>
      <point x="228" y="327" type="curve" smooth="yes"/>
      <point x="236" y="358"/>
      <point x="244" y="391"/>
      <point x="253" y="431" type="curve" smooth="yes"/>
      <point x="258" y="453"/>
      <point x="263" y="465"/>
      <point x="279" y="473" type="curve" smooth="yes"/>
      <point x="293" y="479"/>
      <point x="296" y="471"/>
      <point x="292" y="449" type="curve" smooth="yes"/>
      <point x="288" y="428"/>
      <point x="277" y="382"/>
      <point x="266" y="332" type="curve"/>
      <point x="263" y="313"/>
      <point x="264" y="310"/>
      <point x="279" y="311" type="curve" smooth="yes"/>
      <point x="312" y="313"/>
      <point x="343" y="316"/>
      <point x="382" y="320" type="curve" smooth="yes"/>
      <point x="408" y="322"/>
      <point x="430" y="329"/>
      <point x="426" y="310" type="curve" smooth="yes"/>
      <point x="424" y="302"/>
      <point x="410" y="288"/>
      <point x="391" y="279" type="curve" smooth="yes"/>
      <point x="378" y="272"/>
      <point x="364" y="272"/>
      <point x="352" y="272" type="curve" smooth="yes"/>
      <point x="336" y="271"/>
      <point x="306" y="271"/>
      <point x="272" y="270" type="curve" smooth="yes"/>
      <point x="255" y="269"/>
      <point x="253" y="267"/>
      <point x="249" y="250" type="curve" smooth="yes"/>
      <point x="242" y="213"/>
      <point x="233" y="180"/>
      <point x="231" y="163" type="curve"/>
      <point x="227" y="151"/>
      <point x="224" y="137"/>
      <point x="215" y="125" type="curve" smooth="yes"/>
      <point x="204" y="109"/>
      <point x="186" y="98"/>
      <point x="178" y="98" type="curve" smooth="yes"/>
      <point x="159" y="98"/>
      <point x="171" y="117"/>
      <point x="179" y="143" type="curve" smooth="yes"/>
      <point x="210" y="253" type="line" smooth="yes"/>
      <point x="215" y="269"/>
      <point x="211" y="270"/>
      <point x="195" y="270" type="curve" smooth="yes"/>
      <point x="141" y="269"/>
      <point x="88" y="269"/>
    </contour>
  </outline>
</glyph>
<glyph name="comma" format="1">
  <advance width="239"/>
  <unicode hex="002C"/>
  <outline>
    <contour>
      <point x="32" y="-1" type="curve" smooth="yes"/>
      <point x="27" y="1"/>
      <point x="24" y="8"/>
      <point x="29" y="17" type="curve"/>
      <point x="47" y="40"/>
      <point x="91" y="93"/>
      <point x="126" y="93" type="curve" smooth="yes"/>
      <point x="160" y="93"/>
      <point x="173" y="71"/>
      <point x="173" y="40" type="curve" smooth="yes"/>
      <point x="173" y="-31"/>
      <point x="97" y="-125"/>
      <point x="51" y="-173" type="curve" smooth="yes"/>
      <point x="45" y="-178"/>
      <point x="33" y="-189"/>
      <point x="24" y="-183" type="curve"/>
      <point x="20" y="-179"/>
      <point x="20" y="-170"/>
      <point x="27" y="-161" type="curve" smooth="yes"/>
      <point x="58" y="-125"/>
      <point x="79" y="-99"/>
      <point x="92" y="-73" type="curve" smooth="yes"/>
      <point x="106" y="-46"/>
      <point x="109" y="-24"/>
      <point x="109" y="-4" type="curve"/>
      <point x="107" y="13"/>
      <point x="93" y="20"/>
      <point x="87" y="20" type="curve" smooth="yes"/>
      <point x="73" y="20"/>
      <point x="63" y="13"/>
      <point x="53" y="8" type="curve"/>
      <point x="46" y="3"/>
      <point x="38" y="-3"/>
    </contour>
  </outline>
</glyph>
<glyph name="hyphen" format="1">
  <advance width="304"/>
  <unicode hex="002D"/>
  <outline>
    <contour>
      <point x="78" y="298" type="curve" smooth="yes"/>
      <point x="101" y="303"/>
      <point x="194" y="303"/>
      <point x="237" y="320" type="curve"/>
      <point x="282" y="336"/>
      <point x="272" y="311"/>
      <point x="257" y="284" type="curve" smooth="yes"/>
      <point x="242" y="256"/>
      <point x="221" y="256"/>
      <point x="183" y="255" type="curve" smooth="yes"/>
      <point x="153" y="254"/>
      <point x="91" y="253"/>
      <point x="65" y="253" type="curve" smooth="yes"/>
      <point x="40" y="253"/>
      <point x="33" y="252"/>
      <point x="42" y="272" type="curve" smooth="yes"/>
      <point x="49" y="289"/>
      <point x="62" y="294"/>
    </contour>
  </outline>
</glyph>
<glyph name="period" format="1">
  <advance width="217"/>
  <unicode hex="002E"/>
  <outline>
    <contour>
      <point x="104" y="79" type="curve" smooth="yes"/>
      <point x="126" y="81"/>
      <point x="152" y="70"/>
      <point x="152" y="46" type="curve" smooth="yes"/>
      <point x="152" y="9"/>
      <point x="122" y="-3"/>
      <point x="102" y="-5" type="curve" smooth="yes"/>
      <point x="66" y="-9"/>
      <point x="51" y="12"/>
      <point x="51" y="32" type="curve" smooth="yes"/>
      <point x="51" y="61"/>
      <point x="80" y="77"/>
    </contour>
  </outline>
</glyph>
<glyph name="slash" format="1">
  <advance width="365"/>
  <unicode hex="002F"/>
  <outline>
    <contour>
      <point x="-3" y="-33" type="curve" smooth="yes"/>
      <point x="-23" y="-29"/>
      <point x="-8" y="-13"/>
      <point x="26" y="31" type="curve"/>
      <point x="82" y="108"/>
      <point x="313" y="437"/>
      <point x="364" y="513" type="curve" smooth="yes"/>
      <point x="376" y="532"/>
      <point x="391" y="563"/>
      <point x="400" y="585" type="curve"/>
      <point x="407" y="598"/>
      <point x="421" y="597"/>
      <point x="426" y="588" type="curve"/>
      <point x="434" y="578"/>
      <point x="423" y="544"/>
      <point x="417" y="524" type="curve" smooth="yes"/>
      <point x="408" y="496"/>
      <point x="404" y="485"/>
      <point x="386" y="461" type="curve" smooth="yes"/>
      <point x="346" y="410"/>
      <point x="117" y="104"/>
      <point x="47" y="8" type="curve" smooth="yes"/>
      <point x="20" y="-29"/>
      <point x="8" y="-35"/>
    </contour>
  </outline>
</glyph>
<glyph name="zero" format="1">
  <advance width="533"/>
  <unicode hex="0030"/>
  <outline>
    <contour>
      <point x="348" y="606" type="curve" smooth="yes"/>
      <point x="460" y="606"/>
      <point x="517" y="524"/>
      <point x="517" y="412" type="curve" smooth="yes"/>
      <point x="517" y="168"/>
      <point x="376" y="-14"/>
      <point x="231" y="-14" type="curve" smooth="yes"/>
      <point x="76" y="-14"/>
      <point x="50" y="105"/>
      <point x="50" y="182" type="curve" smooth="yes"/>
      <point x="50" y="406"/>
      <point x="194" y="606"/>
    </contour>
    <contour>
      <point x="314" y="559" type="curve" smooth="yes"/>
      <point x="186" y="559"/>
      <point x="136" y="316"/>
      <point x="136" y="224" type="curve" smooth="yes"/>
      <point x="136" y="72"/>
      <point x="198" y="27"/>
      <point x="253" y="27" type="curve" smooth="yes"/>
      <point x="338" y="27"/>
      <point x="434" y="162"/>
      <point x="434" y="400" type="curve" smooth="yes"/>
      <point x="434" y="506"/>
      <point x="380" y="559"/>
    </contour>
  </outline>
</glyph>
<glyph name="one" format="1">
  <advance width="359"/>
  <unicode hex="0031"/>
  <outline>
    <contour>
      <point x="97" y="-8" type="curve" smooth="yes"/>
      <point x="77" y="-12"/>
      <point x="65" y="3"/>
      <point x="74" y="29" type="curve"/>
      <point x="105" y="100"/>
      <point x="220" y="402"/>
      <point x="237" y="458" type="curve" smooth="yes"/>
      <point x="243" y="476"/>
      <point x="232" y="479"/>
      <point x="219" y="468" type="curve"/>
      <point x="189" y="446"/>
      <point x="134" y="395"/>
      <point x="113" y="375" type="curve"/>
      <point x="100" y="364"/>
      <point x="87" y="364"/>
      <point x="82" y="371" type="curve" smooth="yes"/>
      <point x="77" y="377"/>
      <point x="80" y="386"/>
      <point x="93" y="398" type="curve" smooth="yes"/>
      <point x="129" y="434"/>
      <point x="205" y="492"/>
      <point x="243" y="537" type="curve" smooth="yes"/>
      <point x="252" y="548"/>
      <point x="273" y="575"/>
      <point x="281" y="582" type="curve" smooth="yes"/>
      <point x="293" y="594"/>
      <point x="316" y="598"/>
      <point x="333" y="598" type="curve" smooth="yes"/>
      <point x="359" y="598"/>
      <point x="350" y="587"/>
      <point x="336" y="550" type="curve" smooth="yes"/>
      <point x="267" y="376"/>
      <point x="225" y="261"/>
      <point x="188" y="66" type="curve"/>
      <point x="184" y="39"/>
      <point x="184" y="29"/>
      <point x="152" y="12" type="curve" smooth="yes"/>
      <point x="129" y="0"/>
      <point x="116" y="-5"/>
    </contour>
  </outline>
</glyph>
<glyph name="two" format="1">
  <advance width="549"/>
  <unicode hex="0032"/>
  <outline>
    <contour>
      <point x="262" y="649" type="curve"/>
      <point x="269" y="649"/>
      <point x="265" y="637"/>
      <point x="259" y="627" type="curve" smooth="yes"/>
      <point x="255" y="619"/>
      <point x="240" y="569"/>
      <point x="277" y="569" type="curve" smooth="yes"/>
      <point x="306" y="569"/>
      <point x="346" y="574"/>
      <point x="378" y="583" type="curve"/>
      <point x="391" y="588"/>
      <point x="426" y="593"/>
      <point x="442" y="593" type="curve" smooth="yes"/>
      <point x="494" y="593"/>
      <point x="525" y="566"/>
      <point x="525" y="516" type="curve"/>
      <point x="510" y="420"/>
      <point x="444" y="358"/>
      <point x="374" y="286" type="curve"/>
      <point x="312" y="225"/>
      <point x="270" y="184"/>
      <point x="211" y="138" type="curve" smooth="yes"/>
      <point x="183" y="116"/>
      <point x="194" y="110"/>
      <point x="215" y="120" type="curve"/>
      <point x="228" y="125"/>
      <point x="256" y="132"/>
      <point x="282" y="132" type="curve" smooth="yes"/>
      <point x="305" y="132"/>
      <point x="330" y="120"/>
      <point x="344" y="109" type="curve"/>
      <point x="361" y="98"/>
      <point x="374" y="93"/>
      <point x="403" y="93" type="curve" smooth="yes"/>
      <point x="440" y="93"/>
      <point x="474" y="119"/>
      <point x="475" y="143" type="curve" smooth="yes"/>
      <point x="475" y="150"/>
      <point x="477" y="167"/>
      <point x="486" y="173" type="curve" smooth="yes"/>
      <point x="503" y="186"/>
      <point x="507" y="156"/>
      <point x="507" y="141" type="curve" smooth="yes"/>
      <point x="507" y="95"/>
      <point x="452" y="-8"/>
      <point x="359" y="-8" type="curve" smooth="yes"/>
      <point x="338" y="-8"/>
      <point x="331" y="-3"/>
      <point x="318" y="8" type="curve" smooth="yes"/>
      <point x="283" y="41"/>
      <point x="253" y="50"/>
      <point x="219" y="50" type="curve" smooth="yes"/>
      <point x="163" y="50"/>
      <point x="97" y="29"/>
      <point x="74" y="10" type="curve" smooth="yes"/>
      <point x="61" y="0"/>
      <point x="33" y="-13"/>
      <point x="19" y="1" type="curve" smooth="yes"/>
      <point x="8" y="11"/>
      <point x="14" y="26"/>
      <point x="24" y="46" type="curve"/>
      <point x="33" y="70"/>
      <point x="56" y="89"/>
      <point x="69" y="96" type="curve"/>
      <point x="75" y="98"/>
      <point x="88" y="104"/>
      <point x="104" y="109" type="curve" smooth="yes"/>
      <point x="141" y="119"/>
      <point x="153" y="125"/>
      <point x="185" y="151" type="curve"/>
      <point x="256" y="205"/>
      <point x="439" y="382"/>
      <point x="439" y="467" type="curve" smooth="yes"/>
      <point x="439" y="492"/>
      <point x="418" y="511"/>
      <point x="395" y="511" type="curve" smooth="yes"/>
      <point x="375" y="511"/>
      <point x="347" y="504"/>
      <point x="316" y="495" type="curve" smooth="yes"/>
      <point x="297" y="489"/>
      <point x="269" y="484"/>
      <point x="239" y="484" type="curve" smooth="yes"/>
      <point x="202" y="484"/>
      <point x="189" y="515"/>
      <point x="189" y="542" type="curve" smooth="yes"/>
      <point x="189" y="576"/>
      <point x="219" y="614"/>
      <point x="230" y="628" type="curve" smooth="yes"/>
      <point x="241" y="641"/>
      <point x="257" y="654"/>
    </contour>
  </outline>
</glyph>
<glyph name="three" format="1">
  <advance width="487"/>
  <unicode hex="0033"/>
  <outline>
    <contour>
      <point x="129" y="-8" type="curve" smooth="yes"/>
      <point x="57" y="-8"/>
      <point x="14" y="16"/>
      <point x="14" y="61" type="curve" smooth="yes"/>
      <point x="14" y="106"/>
      <point x="58" y="144"/>
      <point x="96" y="159" type="curve"/>
      <point x="115" y="168"/>
      <point x="134" y="160"/>
      <point x="116" y="141" type="curve" smooth="yes"/>
      <point x="108" y="133"/>
      <point x="96" y="110"/>
      <point x="96" y="88" type="curve" smooth="yes"/>
      <point x="96" y="51"/>
      <point x="147" y="37"/>
      <point x="187" y="37" type="curve" smooth="yes"/>
      <point x="277" y="37"/>
      <point x="354" y="109"/>
      <point x="354" y="186" type="curve" smooth="yes"/>
      <point x="354" y="249"/>
      <point x="301" y="278"/>
      <point x="248" y="278" type="curve" smooth="yes"/>
      <point x="172" y="278"/>
      <point x="172" y="287"/>
      <point x="188" y="320" type="curve" smooth="yes"/>
      <point x="198" y="339"/>
      <point x="209" y="354"/>
      <point x="233" y="354" type="curve"/>
      <point x="299" y="358"/>
      <point x="396" y="419"/>
      <point x="396" y="468" type="curve" smooth="yes"/>
      <point x="396" y="512"/>
      <point x="351" y="517"/>
      <point x="333" y="517" type="curve" smooth="yes"/>
      <point x="308" y="517"/>
      <point x="292" y="512"/>
      <point x="274" y="503" type="curve"/>
      <point x="255" y="495"/>
      <point x="231" y="487"/>
      <point x="203" y="487" type="curve" smooth="yes"/>
      <point x="164" y="487"/>
      <point x="133" y="505"/>
      <point x="133" y="541" type="curve" smooth="yes"/>
      <point x="133" y="571"/>
      <point x="164" y="615"/>
      <point x="178" y="631" type="curve" smooth="yes"/>
      <point x="188" y="643"/>
      <point x="205" y="655"/>
      <point x="210" y="652" type="curve" smooth="yes"/>
      <point x="222" y="645"/>
      <point x="218" y="628"/>
      <point x="213" y="623" type="curve"/>
      <point x="198" y="593"/>
      <point x="198" y="583"/>
      <point x="209" y="572" type="curve"/>
      <point x="218" y="567"/>
      <point x="248" y="567"/>
      <point x="307" y="588" type="curve"/>
      <point x="327" y="593"/>
      <point x="354" y="598"/>
      <point x="379" y="598" type="curve" smooth="yes"/>
      <point x="452" y="598"/>
      <point x="463" y="542"/>
      <point x="463" y="512" type="curve" smooth="yes"/>
      <point x="463" y="447"/>
      <point x="402" y="396"/>
      <point x="351" y="365" type="curve" smooth="yes"/>
      <point x="309" y="339"/>
      <point x="322" y="336"/>
      <point x="345" y="333" type="curve" smooth="yes"/>
      <point x="410" y="326"/>
      <point x="441" y="278"/>
      <point x="440" y="216" type="curve"/>
      <point x="440" y="129"/>
      <point x="306" y="-8"/>
    </contour>
  </outline>
</glyph>
<glyph name="four" format="1">
  <advance width="549"/>
  <unicode hex="0034"/>
  <outline>
    <contour>
      <point x="313" y="483" type="curve" smooth="yes"/>
      <point x="324" y="493"/>
      <point x="348" y="521"/>
      <point x="359" y="537" type="curve" smooth="yes"/>
      <point x="378" y="567"/>
      <point x="398" y="580"/>
      <point x="407" y="583" type="curve" smooth="yes"/>
      <point x="423" y="588"/>
      <point x="443" y="592"/>
      <point x="448" y="593" type="curve" smooth="yes"/>
      <point x="491" y="599"/>
      <point x="481" y="570"/>
      <point x="458" y="520" type="curve" smooth="yes"/>
      <point x="449" y="502"/>
      <point x="401" y="310"/>
      <point x="391" y="242" type="curve"/>
      <point x="391" y="234"/>
      <point x="401" y="234"/>
      <point x="429" y="234" type="curve" smooth="yes"/>
      <point x="460" y="234"/>
      <point x="481" y="249"/>
      <point x="495" y="269" type="curve" smooth="yes"/>
      <point x="510" y="290"/>
      <point x="526" y="280"/>
      <point x="520" y="263" type="curve" smooth="yes"/>
      <point x="508" y="227"/>
      <point x="492" y="204"/>
      <point x="467" y="179" type="curve" smooth="yes"/>
      <point x="457" y="168"/>
      <point x="447" y="165"/>
      <point x="438" y="165" type="curve" smooth="yes"/>
      <point x="423" y="165"/>
      <point x="413" y="164"/>
      <point x="399" y="164" type="curve" smooth="yes"/>
      <point x="383" y="164"/>
      <point x="375" y="155"/>
      <point x="370" y="127" type="curve"/>
      <point x="364" y="104"/>
      <point x="355" y="61"/>
      <point x="356" y="38" type="curve"/>
      <point x="358" y="20"/>
      <point x="349" y="2"/>
      <point x="335" y="-10" type="curve" smooth="yes"/>
      <point x="311" y="-29"/>
      <point x="277" y="-40"/>
      <point x="260" y="-40" type="curve" smooth="yes"/>
      <point x="246" y="-40"/>
      <point x="238" y="-32"/>
      <point x="238" y="-18" type="curve" smooth="yes"/>
      <point x="238" y="-4"/>
      <point x="254" y="35"/>
      <point x="261" y="51" type="curve" smooth="yes"/>
      <point x="273" y="81"/>
      <point x="279" y="117"/>
      <point x="287" y="155" type="curve"/>
      <point x="290" y="177"/>
      <point x="285" y="174"/>
      <point x="269" y="177" type="curve" smooth="yes"/>
      <point x="259" y="178"/>
      <point x="224" y="179"/>
      <point x="214" y="179" type="curve" smooth="yes"/>
      <point x="158" y="179"/>
      <point x="128" y="162"/>
      <point x="74" y="162" type="curve" smooth="yes"/>
      <point x="40" y="162"/>
      <point x="35" y="167"/>
      <point x="35" y="178" type="curve" smooth="yes"/>
      <point x="35" y="187"/>
      <point x="39" y="209"/>
      <point x="46" y="225" type="curve" smooth="yes"/>
      <point x="56" y="245"/>
      <point x="63" y="253"/>
      <point x="83" y="274" type="curve"/>
      <point x="118" y="306"/>
      <point x="284" y="454"/>
    </contour>
    <contour>
      <point x="370" y="471" type="curve" smooth="yes"/>
      <point x="375" y="492"/>
      <point x="370" y="493"/>
      <point x="350" y="476" type="curve" smooth="yes"/>
      <point x="271" y="407"/>
      <point x="212" y="345"/>
      <point x="124" y="260" type="curve" smooth="yes"/>
      <point x="110" y="247"/>
      <point x="122" y="240"/>
      <point x="136" y="240" type="curve" smooth="yes"/>
      <point x="159" y="240"/>
      <point x="200" y="248"/>
      <point x="219" y="248" type="curve" smooth="yes"/>
      <point x="240" y="248"/>
      <point x="271" y="246"/>
      <point x="287" y="241" type="curve" smooth="yes"/>
      <point x="301" y="237"/>
      <point x="307" y="237"/>
      <point x="314" y="256" type="curve" smooth="yes"/>
      <point x="332" y="303"/>
      <point x="359" y="419"/>
    </contour>
  </outline>
</glyph>
<glyph name="five" format="1">
  <advance width="472"/>
  <unicode hex="0035"/>
  <outline>
    <contour>
      <point x="454" y="637" type="curve"/>
      <point x="462" y="635"/>
      <point x="460" y="617"/>
      <point x="454" y="598" type="curve" smooth="yes"/>
      <point x="451" y="589"/>
      <point x="433" y="536"/>
      <point x="427" y="524" type="curve" smooth="yes"/>
      <point x="412" y="491"/>
      <point x="379" y="487"/>
      <point x="344" y="487" type="curve" smooth="yes"/>
      <point x="311" y="487"/>
      <point x="259" y="505"/>
      <point x="235" y="518" type="curve" smooth="yes"/>
      <point x="215" y="528"/>
      <point x="205" y="526"/>
      <point x="196" y="512" type="curve"/>
      <point x="186" y="493"/>
      <point x="174" y="456"/>
      <point x="168" y="440" type="curve"/>
      <point x="164" y="426"/>
      <point x="168" y="416"/>
      <point x="188" y="412" type="curve" smooth="yes"/>
      <point x="231" y="402"/>
      <point x="292" y="383"/>
      <point x="313" y="376" type="curve" smooth="yes"/>
      <point x="361" y="360"/>
      <point x="440" y="313"/>
      <point x="440" y="229" type="curve" smooth="yes"/>
      <point x="440" y="123"/>
      <point x="310" y="-12"/>
      <point x="149" y="-12" type="curve" smooth="yes"/>
      <point x="63" y="-12"/>
      <point x="28" y="13"/>
      <point x="28" y="61" type="curve" smooth="yes"/>
      <point x="28" y="95"/>
      <point x="52" y="123"/>
      <point x="98" y="151" type="curve" smooth="yes"/>
      <point x="121" y="165"/>
      <point x="127" y="171"/>
      <point x="139" y="159" type="curve" smooth="yes"/>
      <point x="144" y="154"/>
      <point x="139" y="147"/>
      <point x="127" y="127" type="curve"/>
      <point x="113" y="108"/>
      <point x="110" y="97"/>
      <point x="110" y="82" type="curve" smooth="yes"/>
      <point x="110" y="50"/>
      <point x="151" y="40"/>
      <point x="185" y="40" type="curve" smooth="yes"/>
      <point x="262" y="40"/>
      <point x="368" y="91"/>
      <point x="368" y="185" type="curve" smooth="yes"/>
      <point x="368" y="243"/>
      <point x="334" y="273"/>
      <point x="285" y="296" type="curve" smooth="yes"/>
      <point x="232" y="321"/>
      <point x="177" y="331"/>
      <point x="104" y="348" type="curve" smooth="yes"/>
      <point x="88" y="351"/>
      <point x="80" y="359"/>
      <point x="92" y="377" type="curve"/>
      <point x="116" y="417"/>
      <point x="160" y="526"/>
      <point x="184" y="572" type="curve"/>
      <point x="193" y="594"/>
      <point x="194" y="599"/>
      <point x="228" y="599" type="curve" smooth="yes"/>
      <point x="253" y="599"/>
      <point x="272" y="592"/>
      <point x="298" y="585" type="curve" smooth="yes"/>
      <point x="313" y="580"/>
      <point x="333" y="577"/>
      <point x="348" y="577" type="curve" smooth="yes"/>
      <point x="387" y="577"/>
      <point x="418" y="572"/>
      <point x="434" y="625" type="curve" smooth="yes"/>
      <point x="437" y="633"/>
      <point x="444" y="641"/>
    </contour>
  </outline>
</glyph>
<glyph name="six" format="1">
  <advance width="472"/>
  <unicode hex="0036"/>
  <outline>
    <contour>
      <point x="398" y="610" type="curve" smooth="yes"/>
      <point x="408" y="598"/>
      <point x="396" y="588"/>
      <point x="351" y="556" type="curve" smooth="yes"/>
      <point x="247" y="482"/>
      <point x="114" y="370"/>
      <point x="112" y="222" type="curve" smooth="yes"/>
      <point x="110" y="118"/>
      <point x="152" y="43"/>
      <point x="233" y="43" type="curve" smooth="yes"/>
      <point x="306" y="43"/>
      <point x="363" y="136"/>
      <point x="364" y="226" type="curve" smooth="yes"/>
      <point x="364" y="313"/>
      <point x="333" y="336"/>
      <point x="296" y="336" type="curve" smooth="yes"/>
      <point x="263" y="336"/>
      <point x="245" y="329"/>
      <point x="227" y="321" type="curve"/>
      <point x="215" y="313"/>
      <point x="194" y="302"/>
      <point x="189" y="311" type="curve" smooth="yes"/>
      <point x="184" y="322"/>
      <point x="194" y="330"/>
      <point x="213" y="344" type="curve"/>
      <point x="253" y="370"/>
      <point x="297" y="392"/>
      <point x="340" y="392" type="curve" smooth="yes"/>
      <point x="410" y="392"/>
      <point x="444" y="336"/>
      <point x="444" y="269" type="curve"/>
      <point x="441" y="137"/>
      <point x="321" y="-13"/>
      <point x="184" y="-13" type="curve" smooth="yes"/>
      <point x="98" y="-13"/>
      <point x="29" y="62"/>
      <point x="32" y="184" type="curve" smooth="yes"/>
      <point x="35" y="359"/>
      <point x="214" y="510"/>
      <point x="327" y="580" type="curve" smooth="yes"/>
      <point x="346" y="592"/>
      <point x="391" y="618"/>
    </contour>
  </outline>
</glyph>
<glyph name="seven" format="1">
  <advance width="472"/>
  <unicode hex="0037"/>
  <outline>
    <contour>
      <point x="137" y="-30" type="curve"/>
      <point x="117" y="-35"/>
      <point x="109" y="-23"/>
      <point x="109" y="11" type="curve" smooth="yes"/>
      <point x="109" y="110"/>
      <point x="343" y="418"/>
      <point x="396" y="487" type="curve" smooth="yes"/>
      <point x="412" y="508"/>
      <point x="409" y="513"/>
      <point x="375" y="503" type="curve"/>
      <point x="317" y="489"/>
      <point x="249" y="477"/>
      <point x="210" y="477" type="curve" smooth="yes"/>
      <point x="143" y="477"/>
      <point x="121" y="497"/>
      <point x="121" y="545" type="curve" smooth="yes"/>
      <point x="121" y="572"/>
      <point x="145" y="617"/>
      <point x="160" y="641" type="curve" smooth="yes"/>
      <point x="168" y="652"/>
      <point x="178" y="661"/>
      <point x="187" y="658" type="curve"/>
      <point x="199" y="652"/>
      <point x="194" y="641"/>
      <point x="190" y="631" type="curve" smooth="yes"/>
      <point x="186" y="622"/>
      <point x="185" y="614"/>
      <point x="185" y="606" type="curve" smooth="yes"/>
      <point x="185" y="570"/>
      <point x="248" y="567"/>
      <point x="292" y="567" type="curve" smooth="yes"/>
      <point x="361" y="567"/>
      <point x="399" y="576"/>
      <point x="481" y="593" type="curve" smooth="yes"/>
      <point x="517" y="601"/>
      <point x="521" y="582"/>
      <point x="505" y="566" type="curve" smooth="yes"/>
      <point x="385" y="440"/>
      <point x="220" y="198"/>
      <point x="220" y="66" type="curve" smooth="yes"/>
      <point x="220" y="13"/>
      <point x="219" y="14"/>
      <point x="200" y="0" type="curve"/>
      <point x="185" y="-13"/>
      <point x="156" y="-27"/>
    </contour>
  </outline>
</glyph>
<glyph name="eight" format="1">
  <advance width="510"/>
  <unicode hex="0038"/>
  <outline>
    <contour>
      <point x="202" y="-17" type="curve" smooth="yes"/>
      <point x="103" y="-17"/>
      <point x="34" y="31"/>
      <point x="34" y="121" type="curve" smooth="yes"/>
      <point x="34" y="200"/>
      <point x="109" y="273"/>
      <point x="178" y="308" type="curve" smooth="yes"/>
      <point x="194" y="316"/>
      <point x="210" y="326"/>
      <point x="184" y="344" type="curve"/>
      <point x="165" y="354"/>
      <point x="134" y="386"/>
      <point x="134" y="429" type="curve" smooth="yes"/>
      <point x="134" y="545"/>
      <point x="260" y="609"/>
      <point x="359" y="609" type="curve" smooth="yes"/>
      <point x="434" y="609"/>
      <point x="497" y="574"/>
      <point x="497" y="497" type="curve" smooth="yes"/>
      <point x="497" y="427"/>
      <point x="446" y="376"/>
      <point x="396" y="348" type="curve"/>
      <point x="375" y="338"/>
      <point x="375" y="331"/>
      <point x="396" y="317" type="curve" smooth="yes"/>
      <point x="435" y="291"/>
      <point x="473" y="254"/>
      <point x="473" y="193" type="curve" smooth="yes"/>
      <point x="471" y="61"/>
      <point x="325" y="-17"/>
    </contour>
    <contour>
      <point x="260" y="27" type="curve" smooth="yes"/>
      <point x="333" y="27"/>
      <point x="396" y="93"/>
      <point x="396" y="159" type="curve" smooth="yes"/>
      <point x="396" y="232"/>
      <point x="322" y="268"/>
      <point x="256" y="296" type="curve" smooth="yes"/>
      <point x="239" y="304"/>
      <point x="231" y="304"/>
      <point x="215" y="295" type="curve" smooth="yes"/>
      <point x="167" y="269"/>
      <point x="113" y="210"/>
      <point x="113" y="139" type="curve" smooth="yes"/>
      <point x="113" y="85"/>
      <point x="152" y="27"/>
    </contour>
    <contour>
      <point x="371" y="369" type="curve" smooth="yes"/>
      <point x="408" y="399"/>
      <point x="427" y="439"/>
      <point x="427" y="474" type="curve" smooth="yes"/>
      <point x="427" y="535"/>
      <point x="369" y="571"/>
      <point x="326" y="571" type="curve" smooth="yes"/>
      <point x="265" y="571"/>
      <point x="215" y="519"/>
      <point x="215" y="459" type="curve" smooth="yes"/>
      <point x="215" y="408"/>
      <point x="273" y="372"/>
      <point x="318" y="360" type="curve" smooth="yes"/>
      <point x="343" y="353"/>
      <point x="353" y="354"/>
    </contour>
  </outline>
</glyph>
<glyph name="nine" format="1">
  <advance width="480"/>
  <unicode hex="0039"/>
  <outline>
    <contour>
      <point x="92" y="-27" type="curve" smooth="yes"/>
      <point x="85" y="-22"/>
      <point x="85" y="-4"/>
      <point x="105" y="8" type="curve" smooth="yes"/>
      <point x="143" y="33"/>
      <point x="218" y="91"/>
      <point x="258" y="127" type="curve" smooth="yes"/>
      <point x="346" y="209"/>
      <point x="393" y="296"/>
      <point x="396" y="413" type="curve"/>
      <point x="397" y="512"/>
      <point x="361" y="556"/>
      <point x="313" y="556" type="curve" smooth="yes"/>
      <point x="219" y="556"/>
      <point x="140" y="468"/>
      <point x="139" y="359" type="curve" smooth="yes"/>
      <point x="139" y="305"/>
      <point x="183" y="275"/>
      <point x="219" y="275" type="curve" smooth="yes"/>
      <point x="233" y="275"/>
      <point x="250" y="279"/>
      <point x="262" y="285" type="curve" smooth="yes"/>
      <point x="281" y="294"/>
      <point x="285" y="295"/>
      <point x="291" y="288" type="curve" smooth="yes"/>
      <point x="295" y="284"/>
      <point x="285" y="269"/>
      <point x="268" y="258" type="curve" smooth="yes"/>
      <point x="244" y="242"/>
      <point x="213" y="227"/>
      <point x="165" y="227" type="curve" smooth="yes"/>
      <point x="97" y="227"/>
      <point x="61" y="283"/>
      <point x="61" y="343" type="curve" smooth="yes"/>
      <point x="60" y="467"/>
      <point x="200" y="599"/>
      <point x="344" y="599" type="curve" smooth="yes"/>
      <point x="420" y="599"/>
      <point x="481" y="551"/>
      <point x="479" y="457" type="curve" smooth="yes"/>
      <point x="476" y="343"/>
      <point x="453" y="279"/>
      <point x="343" y="157" type="curve"/>
      <point x="284" y="88"/>
      <point x="221" y="46"/>
      <point x="130" y="-13" type="curve"/>
      <point x="114" y="-25"/>
      <point x="101" y="-34"/>
    </contour>
  </outline>
</glyph>
<glyph name="colon" format="1">
  <advance width="238"/>
  <unicode hex="003A"/>
  <outline>
    <contour>
      <point x="97" y="79" type="curve" smooth="yes"/>
      <point x="119" y="81"/>
      <point x="145" y="70"/>
      <point x="145" y="46" type="curve" smooth="yes"/>
      <point x="145" y="9"/>
      <point x="114" y="-3"/>
      <point x="93" y="-5" type="curve" smooth="yes"/>
      <point x="58" y="-9"/>
      <point x="43" y="12"/>
      <point x="43" y="32" type="curve" smooth="yes"/>
      <point x="43" y="61"/>
      <point x="72" y="77"/>
    </contour>
    <contour>
      <point x="152" y="387" type="curve"/>
      <point x="174" y="389"/>
      <point x="199" y="378"/>
      <point x="199" y="354" type="curve" smooth="yes"/>
      <point x="199" y="317"/>
      <point x="170" y="306"/>
      <point x="149" y="303" type="curve" smooth="yes"/>
      <point x="113" y="299"/>
      <point x="98" y="321"/>
      <point x="98" y="340" type="curve" smooth="yes"/>
      <point x="98" y="369"/>
      <point x="127" y="386"/>
    </contour>
  </outline>
</glyph>
<glyph name="less" format="1">
  <advance width="361"/>
  <unicode hex="003C"/>
  <outline>
    <contour>
      <point x="66" y="249" type="curve" smooth="yes"/>
      <point x="119" y="276"/>
      <point x="245" y="338"/>
      <point x="281" y="359" type="curve" smooth="yes"/>
      <point x="290" y="364"/>
      <point x="316" y="384"/>
      <point x="326" y="391" type="curve"/>
      <point x="336" y="401"/>
      <point x="351" y="407"/>
      <point x="351" y="391" type="curve"/>
      <point x="352" y="380"/>
      <point x="340" y="361"/>
      <point x="336" y="354" type="curve"/>
      <point x="328" y="344"/>
      <point x="315" y="333"/>
      <point x="289" y="322" type="curve"/>
      <point x="236" y="297"/>
      <point x="136" y="254"/>
      <point x="92" y="231" type="curve" smooth="yes"/>
      <point x="88" y="228"/>
      <point x="80" y="221"/>
      <point x="87" y="214" type="curve" smooth="yes"/>
      <point x="97" y="203"/>
      <point x="235" y="119"/>
      <point x="260" y="104" type="curve"/>
      <point x="279" y="90"/>
      <point x="277" y="86"/>
      <point x="261" y="77" type="curve"/>
      <point x="247" y="71"/>
      <point x="239" y="76"/>
      <point x="232" y="81" type="curve" smooth="yes"/>
      <point x="215" y="93"/>
      <point x="83" y="173"/>
      <point x="37" y="201" type="curve" smooth="yes"/>
      <point x="29" y="205"/>
      <point x="30" y="210"/>
      <point x="35" y="221" type="curve" smooth="yes"/>
      <point x="43" y="236"/>
      <point x="46" y="238"/>
    </contour>
  </outline>
</glyph>
<glyph name="equal" format="1">
  <advance width="487"/>
  <unicode hex="003D"/>
  <outline>
    <contour>
      <point x="53" y="123" type="curve" smooth="yes"/>
      <point x="31" y="123"/>
      <point x="24" y="128"/>
      <point x="33" y="141" type="curve" smooth="yes"/>
      <point x="44" y="156"/>
      <point x="57" y="158"/>
      <point x="78" y="158" type="curve" smooth="yes"/>
      <point x="210" y="160"/>
      <point x="271" y="164"/>
      <point x="371" y="173" type="curve" smooth="yes"/>
      <point x="398" y="176"/>
      <point x="419" y="183"/>
      <point x="414" y="163" type="curve" smooth="yes"/>
      <point x="412" y="156"/>
      <point x="396" y="141"/>
      <point x="378" y="133" type="curve"/>
      <point x="365" y="125"/>
      <point x="352" y="125"/>
      <point x="338" y="125" type="curve" smooth="yes"/>
      <point x="290" y="125"/>
      <point x="99" y="123"/>
    </contour>
    <contour>
      <point x="98" y="295" type="curve" smooth="yes"/>
      <point x="76" y="295"/>
      <point x="68" y="301"/>
      <point x="77" y="313" type="curve" smooth="yes"/>
      <point x="88" y="328"/>
      <point x="102" y="331"/>
      <point x="124" y="331" type="curve" smooth="yes"/>
      <point x="255" y="332"/>
      <point x="316" y="337"/>
      <point x="416" y="345" type="curve" smooth="yes"/>
      <point x="442" y="348"/>
      <point x="465" y="354"/>
      <point x="459" y="336" type="curve" smooth="yes"/>
      <point x="456" y="328"/>
      <point x="441" y="313"/>
      <point x="422" y="305" type="curve"/>
      <point x="409" y="298"/>
      <point x="396" y="298"/>
      <point x="382" y="298" type="curve" smooth="yes"/>
      <point x="334" y="297"/>
      <point x="144" y="295"/>
    </contour>
  </outline>
</glyph>
<glyph name="greater" format="1">
  <advance width="361"/>
  <unicode hex="003E"/>
  <outline>
    <contour>
      <point x="298" y="220" type="curve" smooth="yes"/>
      <point x="246" y="192"/>
      <point x="122" y="129"/>
      <point x="84" y="108" type="curve" smooth="yes"/>
      <point x="77" y="104"/>
      <point x="48" y="84"/>
      <point x="39" y="77" type="curve" smooth="yes"/>
      <point x="29" y="68"/>
      <point x="13" y="62"/>
      <point x="13" y="77" type="curve"/>
      <point x="12" y="88"/>
      <point x="24" y="108"/>
      <point x="29" y="114" type="curve" smooth="yes"/>
      <point x="36" y="124"/>
      <point x="49" y="136"/>
      <point x="76" y="147" type="curve"/>
      <point x="128" y="172"/>
      <point x="228" y="215"/>
      <point x="272" y="237" type="curve" smooth="yes"/>
      <point x="276" y="240"/>
      <point x="285" y="247"/>
      <point x="277" y="255" type="curve" smooth="yes"/>
      <point x="268" y="265"/>
      <point x="129" y="349"/>
      <point x="104" y="365" type="curve" smooth="yes"/>
      <point x="84" y="378"/>
      <point x="87" y="382"/>
      <point x="104" y="391" type="curve" smooth="yes"/>
      <point x="117" y="398"/>
      <point x="125" y="392"/>
      <point x="132" y="387" type="curve" smooth="yes"/>
      <point x="149" y="375"/>
      <point x="280" y="296"/>
      <point x="327" y="267" type="curve" smooth="yes"/>
      <point x="335" y="263"/>
      <point x="334" y="259"/>
      <point x="329" y="248" type="curve" smooth="yes"/>
      <point x="322" y="232"/>
      <point x="317" y="230"/>
    </contour>
  </outline>
</glyph>
<glyph name="question" format="1">
  <advance width="375"/>
  <unicode hex="003F"/>
  <outline>
    <contour>
      <point x="152" y="167" type="curve" smooth="yes"/>
      <point x="140" y="167"/>
      <point x="141" y="183"/>
      <point x="144" y="191" type="curve"/>
      <point x="152" y="229"/>
      <point x="173" y="274"/>
      <point x="204" y="303" type="curve" smooth="yes"/>
      <point x="229" y="327"/>
      <point x="260" y="347"/>
      <point x="302" y="387" type="curve"/>
      <point x="336" y="421"/>
      <point x="351" y="457"/>
      <point x="351" y="498" type="curve" smooth="yes"/>
      <point x="351" y="526"/>
      <point x="332" y="569"/>
      <point x="263" y="569" type="curve" smooth="yes"/>
      <point x="199" y="569"/>
      <point x="147" y="524"/>
      <point x="147" y="478" type="curve" smooth="yes"/>
      <point x="147" y="436"/>
      <point x="164" y="417"/>
      <point x="205" y="425" type="curve"/>
      <point x="223" y="430"/>
      <point x="228" y="434"/>
      <point x="233" y="424" type="curve" smooth="yes"/>
      <point x="237" y="416"/>
      <point x="231" y="412"/>
      <point x="219" y="403" type="curve" smooth="yes"/>
      <point x="201" y="391"/>
      <point x="175" y="381"/>
      <point x="152" y="381" type="curve" smooth="yes"/>
      <point x="119" y="381"/>
      <point x="77" y="405"/>
      <point x="77" y="461" type="curve" smooth="yes"/>
      <point x="77" y="519"/>
      <point x="155" y="603"/>
      <point x="278" y="603" type="curve" smooth="yes"/>
      <point x="396" y="603"/>
      <point x="426" y="561"/>
      <point x="425" y="513" type="curve"/>
      <point x="426" y="450"/>
      <point x="379" y="393"/>
      <point x="305" y="343" type="curve" smooth="yes"/>
      <point x="285" y="330"/>
      <point x="249" y="301"/>
      <point x="231" y="283" type="curve"/>
      <point x="199" y="248"/>
      <point x="186" y="221"/>
      <point x="178" y="191" type="curve" smooth="yes"/>
      <point x="174" y="178"/>
      <point x="166" y="167"/>
    </contour>
    <contour>
      <point x="140" y="79" type="curve" smooth="yes"/>
      <point x="162" y="81"/>
      <point x="188" y="70"/>
      <point x="188" y="46" type="curve" smooth="yes"/>
      <point x="188" y="9"/>
      <point x="157" y="-3"/>
      <point x="137" y="-5" type="curve" smooth="yes"/>
      <point x="101" y="-9"/>
      <point x="86" y="12"/>
      <point x="86" y="32" type="curve" smooth="yes"/>
      <point x="86" y="61"/>
      <point x="115" y="77"/>
    </contour>
  </outline>
</glyph>
<glyph name="at" format="1">
  <advance width="754"/>
  <unicode hex="0040"/>
  <outline>
    <contour>
      <point x="446" y="-8" type="curve" smooth="yes"/>
      <point x="386" y="-8"/>
      <point x="402" y="98"/>
      <point x="412" y="130" type="curve" smooth="yes"/>
      <point x="416" y="141"/>
      <point x="418" y="146"/>
      <point x="414" y="148" type="curve" smooth="yes"/>
      <point x="411" y="150"/>
      <point x="404" y="146"/>
      <point x="398" y="138" type="curve" smooth="yes"/>
      <point x="380" y="114"/>
      <point x="296" y="26"/>
      <point x="269" y="6" type="curve" smooth="yes"/>
      <point x="256" y="-4"/>
      <point x="243" y="-8"/>
      <point x="232" y="-8" type="curve" smooth="yes"/>
      <point x="214" y="-8"/>
      <point x="199" y="15"/>
      <point x="199" y="71" type="curve" smooth="yes"/>
      <point x="199" y="211"/>
      <point x="316" y="387"/>
      <point x="409" y="428" type="curve"/>
      <point x="420" y="434"/>
      <point x="440" y="434"/>
      <point x="450" y="430" type="curve" smooth="yes"/>
      <point x="465" y="425"/>
      <point x="474" y="422"/>
      <point x="488" y="413" type="curve" smooth="yes"/>
      <point x="499" y="407"/>
      <point x="506" y="408"/>
      <point x="520" y="422" type="curve" smooth="yes"/>
      <point x="536" y="439"/>
      <point x="538" y="443"/>
      <point x="551" y="457" type="curve"/>
      <point x="562" y="474"/>
      <point x="566" y="476"/>
      <point x="573" y="473" type="curve" smooth="yes"/>
      <point x="579" y="471"/>
      <point x="575" y="457"/>
      <point x="571" y="448" type="curve" smooth="yes"/>
      <point x="522" y="336"/>
      <point x="508" y="274"/>
      <point x="479" y="150" type="curve" smooth="yes"/>
      <point x="469" y="109"/>
      <point x="476" y="67"/>
      <point x="496" y="67" type="curve"/>
      <point x="497" y="66"/>
      <point x="504" y="71"/>
      <point x="513" y="78" type="curve" smooth="yes"/>
      <point x="578" y="134"/>
      <point x="674" y="274"/>
      <point x="674" y="405" type="curve" smooth="yes"/>
      <point x="674" y="549"/>
      <point x="594" y="605"/>
      <point x="492" y="605" type="curve" smooth="yes"/>
      <point x="295" y="605"/>
      <point x="112" y="402"/>
      <point x="112" y="161" type="curve" smooth="yes"/>
      <point x="112" y="-84"/>
      <point x="231" y="-173"/>
      <point x="364" y="-173" type="curve" smooth="yes"/>
      <point x="460" y="-173"/>
      <point x="546" y="-118"/>
      <point x="577" y="-83" type="curve"/>
      <point x="593" y="-67"/>
      <point x="604" y="-67"/>
      <point x="609" y="-73" type="curve" smooth="yes"/>
      <point x="616" y="-80"/>
      <point x="613" y="-93"/>
      <point x="604" y="-105" type="curve" smooth="yes"/>
      <point x="557" y="-162"/>
      <point x="439" y="-231"/>
      <point x="332" y="-231" type="curve" smooth="yes"/>
      <point x="176" y="-231"/>
      <point x="43" y="-125"/>
      <point x="43" y="114" type="curve" smooth="yes"/>
      <point x="43" y="370"/>
      <point x="246" y="640"/>
      <point x="502" y="640" type="curve" smooth="yes"/>
      <point x="614" y="640"/>
      <point x="712" y="578"/>
      <point x="712" y="417" type="curve" smooth="yes"/>
      <point x="712" y="275"/>
      <point x="624" y="122"/>
      <point x="511" y="22" type="curve" smooth="yes"/>
      <point x="492" y="5"/>
      <point x="465" y="-8"/>
    </contour>
    <contour>
      <point x="307" y="77" type="curve" smooth="yes"/>
      <point x="348" y="111"/>
      <point x="378" y="148"/>
      <point x="418" y="205" type="curve" smooth="yes"/>
      <point x="442" y="239"/>
      <point x="471" y="301"/>
      <point x="473" y="346" type="curve"/>
      <point x="475" y="361"/>
      <point x="468" y="370"/>
      <point x="458" y="377" type="curve" smooth="yes"/>
      <point x="449" y="384"/>
      <point x="438" y="389"/>
      <point x="423" y="391" type="curve" smooth="yes"/>
      <point x="414" y="393"/>
      <point x="401" y="391"/>
      <point x="396" y="387" type="curve"/>
      <point x="386" y="382"/>
      <point x="375" y="372"/>
      <point x="370" y="366" type="curve" smooth="yes"/>
      <point x="312" y="299"/>
      <point x="269" y="214"/>
      <point x="269" y="114" type="curve" smooth="yes"/>
      <point x="269" y="78"/>
      <point x="275" y="50"/>
    </contour>
  </outline>
</glyph>
<glyph name="B" format="1">
  <advance width="578"/>
  <unicode hex="0042"/>
  <outline>
    <contour>
      <point x="188" y="478" type="curve" smooth="yes"/>
      <point x="194" y="505"/>
      <point x="195" y="530"/>
      <point x="190" y="544" type="curve"/>
      <point x="184" y="556"/>
      <point x="171" y="565"/>
      <point x="146" y="564" type="curve" smooth="yes"/>
      <point x="122" y="563"/>
      <point x="108" y="561"/>
      <point x="108" y="572" type="curve" smooth="yes"/>
      <point x="108" y="583"/>
      <point x="117" y="588"/>
      <point x="140" y="590" type="curve" smooth="yes"/>
      <point x="185" y="595"/>
      <point x="269" y="600"/>
      <point x="303" y="600" type="curve" smooth="yes"/>
      <point x="386" y="600"/>
      <point x="538" y="604"/>
      <point x="538" y="495" type="curve" smooth="yes"/>
      <point x="538" y="446"/>
      <point x="492" y="396"/>
      <point x="442" y="367" type="curve" smooth="yes"/>
      <point x="423" y="356"/>
      <point x="423" y="346"/>
      <point x="447" y="343" type="curve"/>
      <point x="512" y="338"/>
      <point x="545" y="306"/>
      <point x="545" y="250" type="curve" smooth="yes"/>
      <point x="544" y="146"/>
      <point x="432" y="-11"/>
      <point x="263" y="-11" type="curve" smooth="yes"/>
      <point x="212" y="-11"/>
      <point x="147" y="-3"/>
      <point x="104" y="31" type="curve"/>
      <point x="85" y="43"/>
      <point x="87" y="71"/>
      <point x="97" y="108" type="curve"/>
      <point x="125" y="231"/>
      <point x="157" y="349"/>
    </contour>
    <contour>
      <point x="172" y="96" type="curve" smooth="yes"/>
      <point x="166" y="59"/>
      <point x="203" y="19"/>
      <point x="270" y="19" type="curve" smooth="yes"/>
      <point x="380" y="19"/>
      <point x="464" y="133"/>
      <point x="464" y="231" type="curve" smooth="yes"/>
      <point x="464" y="313"/>
      <point x="400" y="331"/>
      <point x="327" y="324" type="curve" smooth="yes"/>
      <point x="291" y="321"/>
      <point x="286" y="327"/>
      <point x="291" y="338" type="curve" smooth="yes"/>
      <point x="298" y="354"/>
      <point x="302" y="358"/>
      <point x="334" y="359" type="curve"/>
      <point x="387" y="363"/>
      <point x="460" y="412"/>
      <point x="460" y="475" type="curve" smooth="yes"/>
      <point x="460" y="559"/>
      <point x="368" y="572"/>
      <point x="315" y="571" type="curve" smooth="yes"/>
      <point x="286" y="570"/>
      <point x="275" y="562"/>
      <point x="269" y="537" type="curve" smooth="yes"/>
      <point x="231" y="390"/>
      <point x="198" y="255"/>
    </contour>
  </outline>
</glyph>
<glyph name="D" format="1">
  <advance width="625"/>
  <unicode hex="0044"/>
  <outline>
    <contour>
      <point x="98" y="572" type="curve" smooth="yes"/>
      <point x="98" y="583"/>
      <point x="108" y="588"/>
      <point x="130" y="590" type="curve" smooth="yes"/>
      <point x="176" y="595"/>
      <point x="285" y="598"/>
      <point x="318" y="598" type="curve" smooth="yes"/>
      <point x="360" y="598"/>
      <point x="401" y="598"/>
      <point x="437" y="593" type="curve" smooth="yes"/>
      <point x="531" y="582"/>
      <point x="609" y="514"/>
      <point x="609" y="395" type="curve" smooth="yes"/>
      <point x="609" y="189"/>
      <point x="438" y="-10"/>
      <point x="256" y="-10" type="curve" smooth="yes"/>
      <point x="210" y="-10"/>
      <point x="144" y="1"/>
      <point x="104" y="33" type="curve"/>
      <point x="84" y="45"/>
      <point x="86" y="72"/>
      <point x="96" y="109" type="curve"/>
      <point x="125" y="233"/>
      <point x="157" y="349"/>
      <point x="188" y="478" type="curve" smooth="yes"/>
      <point x="194" y="505"/>
      <point x="196" y="530"/>
      <point x="190" y="544" type="curve" smooth="yes"/>
      <point x="184" y="558"/>
      <point x="162" y="565"/>
      <point x="137" y="564" type="curve" smooth="yes"/>
      <point x="113" y="563"/>
      <point x="98" y="561"/>
    </contour>
    <contour>
      <point x="272" y="537" type="curve" smooth="yes"/>
      <point x="232" y="390"/>
      <point x="199" y="257"/>
      <point x="176" y="98" type="curve" smooth="yes"/>
      <point x="171" y="61"/>
      <point x="205" y="21"/>
      <point x="273" y="21" type="curve" smooth="yes"/>
      <point x="421" y="21"/>
      <point x="530" y="211"/>
      <point x="530" y="364" type="curve" smooth="yes"/>
      <point x="530" y="484"/>
      <point x="476" y="544"/>
      <point x="389" y="565" type="curve" smooth="yes"/>
      <point x="366" y="570"/>
      <point x="337" y="571"/>
      <point x="312" y="571" type="curve" smooth="yes"/>
      <point x="284" y="571"/>
      <point x="279" y="562"/>
    </contour>
  </outline>
</glyph>
<glyph name="F" format="1">
  <advance width="524"/>
  <unicode hex="0046"/>
  <outline>
    <contour>
      <point x="113" y="588" type="curve" smooth="yes"/>
      <point x="114" y="602"/>
      <point x="149" y="597"/>
      <point x="166" y="594" type="curve" smooth="yes"/>
      <point x="191" y="591"/>
      <point x="220" y="589"/>
      <point x="252" y="589" type="curve" smooth="yes"/>
      <point x="325" y="589"/>
      <point x="498" y="601"/>
      <point x="525" y="601" type="curve" smooth="yes"/>
      <point x="567" y="601"/>
      <point x="579" y="589"/>
      <point x="582" y="556" type="curve"/>
      <point x="586" y="529"/>
      <point x="569" y="475"/>
      <point x="543" y="451" type="curve" smooth="yes"/>
      <point x="534" y="444"/>
      <point x="524" y="440"/>
      <point x="519" y="446" type="curve" smooth="yes"/>
      <point x="516" y="450"/>
      <point x="516" y="452"/>
      <point x="520" y="462" type="curve" smooth="yes"/>
      <point x="545" y="520"/>
      <point x="530" y="561"/>
      <point x="470" y="561" type="curve" smooth="yes"/>
      <point x="414" y="561"/>
      <point x="312" y="559"/>
      <point x="298" y="556" type="curve" smooth="yes"/>
      <point x="279" y="552"/>
      <point x="276" y="547"/>
      <point x="272" y="533" type="curve" smooth="yes"/>
      <point x="259" y="492"/>
      <point x="249" y="439"/>
      <point x="239" y="379" type="curve"/>
      <point x="234" y="359"/>
      <point x="228" y="343"/>
      <point x="274" y="343" type="curve" smooth="yes"/>
      <point x="292" y="343"/>
      <point x="331" y="343"/>
      <point x="344" y="344" type="curve" smooth="yes"/>
      <point x="392" y="348"/>
      <point x="419" y="364"/>
      <point x="438" y="413" type="curve" smooth="yes"/>
      <point x="439" y="418"/>
      <point x="449" y="429"/>
      <point x="458" y="428" type="curve"/>
      <point x="469" y="428"/>
      <point x="465" y="410"/>
      <point x="460" y="397" type="curve" smooth="yes"/>
      <point x="439" y="338"/>
      <point x="429" y="313"/>
      <point x="415" y="256" type="curve" smooth="yes"/>
      <point x="413" y="246"/>
      <point x="407" y="235"/>
      <point x="395" y="234" type="curve" smooth="yes"/>
      <point x="390" y="234"/>
      <point x="384" y="242"/>
      <point x="384" y="255" type="curve"/>
      <point x="388" y="285"/>
      <point x="373" y="303"/>
      <point x="343" y="306" type="curve" smooth="yes"/>
      <point x="308" y="309"/>
      <point x="263" y="310"/>
      <point x="252" y="309" type="curve" smooth="yes"/>
      <point x="225" y="307"/>
      <point x="221" y="303"/>
      <point x="216" y="284" type="curve"/>
      <point x="205" y="231"/>
      <point x="189" y="171"/>
      <point x="182" y="116" type="curve" smooth="yes"/>
      <point x="174" y="57"/>
      <point x="187" y="40"/>
      <point x="243" y="24" type="curve" smooth="yes"/>
      <point x="263" y="18"/>
      <point x="266" y="12"/>
      <point x="265" y="7" type="curve" smooth="yes"/>
      <point x="263" y="-6"/>
      <point x="228" y="-2"/>
      <point x="215" y="0" type="curve" smooth="yes"/>
      <point x="157" y="6"/>
      <point x="77" y="4"/>
      <point x="17" y="-3" type="curve" smooth="yes"/>
      <point x="-3" y="-6"/>
      <point x="-13" y="-7"/>
      <point x="-14" y="1" type="curve" smooth="yes"/>
      <point x="-15" y="13"/>
      <point x="-3" y="17"/>
      <point x="30" y="26" type="curve" smooth="yes"/>
      <point x="61" y="34"/>
      <point x="87" y="56"/>
      <point x="104" y="106" type="curve"/>
      <point x="125" y="179"/>
      <point x="177" y="401"/>
      <point x="191" y="494" type="curve" smooth="yes"/>
      <point x="199" y="551"/>
      <point x="174" y="562"/>
      <point x="148" y="570" type="curve"/>
      <point x="128" y="575"/>
      <point x="112" y="577"/>
    </contour>
  </outline>
</glyph>
<glyph name="I" format="1">
  <advance width="323"/>
  <unicode hex="0049"/>
  <outline>
    <contour>
      <point x="120" y="589" type="curve" smooth="yes"/>
      <point x="121" y="604"/>
      <point x="157" y="598"/>
      <point x="174" y="596" type="curve" smooth="yes"/>
      <point x="218" y="590"/>
      <point x="279" y="592"/>
      <point x="325" y="595" type="curve" smooth="yes"/>
      <point x="367" y="598"/>
      <point x="385" y="600"/>
      <point x="385" y="591" type="curve" smooth="yes"/>
      <point x="385" y="581"/>
      <point x="375" y="577"/>
      <point x="350" y="570" type="curve" smooth="yes"/>
      <point x="306" y="556"/>
      <point x="293" y="540"/>
      <point x="277" y="502" type="curve" smooth="yes"/>
      <point x="255" y="447"/>
      <point x="216" y="284"/>
      <point x="184" y="116" type="curve" smooth="yes"/>
      <point x="173" y="57"/>
      <point x="189" y="40"/>
      <point x="246" y="24" type="curve" smooth="yes"/>
      <point x="264" y="18"/>
      <point x="268" y="12"/>
      <point x="267" y="7" type="curve" smooth="yes"/>
      <point x="265" y="-6"/>
      <point x="231" y="-2"/>
      <point x="218" y="0" type="curve" smooth="yes"/>
      <point x="160" y="6"/>
      <point x="70" y="4"/>
      <point x="9" y="-3" type="curve" smooth="yes"/>
      <point x="-12" y="-6"/>
      <point x="-22" y="-7"/>
      <point x="-24" y="1" type="curve"/>
      <point x="-24" y="13"/>
      <point x="-12" y="18"/>
      <point x="24" y="26" type="curve" smooth="yes"/>
      <point x="66" y="35"/>
      <point x="88" y="56"/>
      <point x="106" y="106" type="curve"/>
      <point x="129" y="179"/>
      <point x="183" y="402"/>
      <point x="198" y="496" type="curve"/>
      <point x="208" y="552"/>
      <point x="181" y="564"/>
      <point x="155" y="572" type="curve" smooth="yes"/>
      <point x="136" y="577"/>
      <point x="120" y="578"/>
    </contour>
  </outline>
</glyph>
<glyph name="J" format="1">
  <advance width="296"/>
  <unicode hex="004A"/>
  <outline>
    <contour>
      <point x="111" y="589" type="curve"/>
      <point x="111" y="604"/>
      <point x="146" y="598"/>
      <point x="163" y="596" type="curve" smooth="yes"/>
      <point x="209" y="590"/>
      <point x="270" y="592"/>
      <point x="316" y="595" type="curve" smooth="yes"/>
      <point x="359" y="598"/>
      <point x="376" y="600"/>
      <point x="376" y="591" type="curve" smooth="yes"/>
      <point x="377" y="581"/>
      <point x="368" y="577"/>
      <point x="343" y="570" type="curve"/>
      <point x="301" y="556"/>
      <point x="288" y="540"/>
      <point x="274" y="502" type="curve"/>
      <point x="226" y="322"/>
      <point x="215" y="236"/>
      <point x="205" y="202" type="curve" smooth="yes"/>
      <point x="192" y="159"/>
      <point x="173" y="93"/>
      <point x="151" y="45" type="curve"/>
      <point x="118" y="-32"/>
      <point x="15" y="-179"/>
      <point x="-93" y="-179" type="curve" smooth="yes"/>
      <point x="-139" y="-179"/>
      <point x="-166" y="-152"/>
      <point x="-166" y="-114" type="curve"/>
      <point x="-167" y="-92"/>
      <point x="-143" y="-63"/>
      <point x="-120" y="-43" type="curve"/>
      <point x="-100" y="-27"/>
      <point x="-92" y="-26"/>
      <point x="-87" y="-30" type="curve" smooth="yes"/>
      <point x="-82" y="-35"/>
      <point x="-82" y="-40"/>
      <point x="-91" y="-53" type="curve" smooth="yes"/>
      <point x="-100" y="-66"/>
      <point x="-103" y="-81"/>
      <point x="-103" y="-90" type="curve" smooth="yes"/>
      <point x="-101" y="-114"/>
      <point x="-81" y="-130"/>
      <point x="-51" y="-130" type="curve" smooth="yes"/>
      <point x="38" y="-130"/>
      <point x="88" y="14"/>
      <point x="107" y="77" type="curve" smooth="yes"/>
      <point x="147" y="214"/>
      <point x="175" y="363"/>
      <point x="194" y="496" type="curve" smooth="yes"/>
      <point x="201" y="552"/>
      <point x="173" y="564"/>
      <point x="146" y="572" type="curve"/>
      <point x="125" y="577"/>
      <point x="110" y="578"/>
    </contour>
  </outline>
</glyph>
<glyph name="K" format="1">
  <advance width="697"/>
  <unicode hex="004B"/>
  <outline>
    <contour>
      <point x="120" y="589" type="curve" smooth="yes"/>
      <point x="121" y="604"/>
      <point x="157" y="598"/>
      <point x="174" y="596" type="curve" smooth="yes"/>
      <point x="218" y="590"/>
      <point x="272" y="592"/>
      <point x="318" y="595" type="curve" smooth="yes"/>
      <point x="360" y="598"/>
      <point x="378" y="600"/>
      <point x="378" y="591" type="curve" smooth="yes"/>
      <point x="378" y="581"/>
      <point x="369" y="577"/>
      <point x="343" y="570" type="curve"/>
      <point x="308" y="558"/>
      <point x="293" y="539"/>
      <point x="278" y="502" type="curve" smooth="yes"/>
      <point x="267" y="476"/>
      <point x="248" y="401"/>
      <point x="232" y="335" type="curve" smooth="yes"/>
      <point x="229" y="322"/>
      <point x="238" y="312"/>
      <point x="251" y="325" type="curve" smooth="yes"/>
      <point x="320" y="391"/>
      <point x="393" y="457"/>
      <point x="455" y="512" type="curve"/>
      <point x="517" y="564"/>
      <point x="570" y="599"/>
      <point x="613" y="599" type="curve" smooth="yes"/>
      <point x="655" y="599"/>
      <point x="678" y="593"/>
      <point x="678" y="550" type="curve" smooth="yes"/>
      <point x="678" y="529"/>
      <point x="660" y="498"/>
      <point x="649" y="483" type="curve" smooth="yes"/>
      <point x="632" y="457"/>
      <point x="621" y="452"/>
      <point x="610" y="457" type="curve" smooth="yes"/>
      <point x="604" y="460"/>
      <point x="605" y="465"/>
      <point x="606" y="482" type="curve" smooth="yes"/>
      <point x="607" y="508"/>
      <point x="593" y="519"/>
      <point x="572" y="519" type="curve" smooth="yes"/>
      <point x="546" y="519"/>
      <point x="523" y="506"/>
      <point x="487" y="483" type="curve"/>
      <point x="441" y="452"/>
      <point x="380" y="398"/>
      <point x="343" y="360" type="curve" smooth="yes"/>
      <point x="338" y="354"/>
      <point x="331" y="343"/>
      <point x="338" y="327" type="curve" smooth="yes"/>
      <point x="369" y="258"/>
      <point x="407" y="192"/>
      <point x="455" y="128" type="curve"/>
      <point x="481" y="95"/>
      <point x="519" y="65"/>
      <point x="556" y="65" type="curve" smooth="yes"/>
      <point x="591" y="65"/>
      <point x="604" y="66"/>
      <point x="632" y="75" type="curve" smooth="yes"/>
      <point x="645" y="79"/>
      <point x="662" y="80"/>
      <point x="663" y="71" type="curve" smooth="yes"/>
      <point x="665" y="61"/>
      <point x="659" y="50"/>
      <point x="645" y="42" type="curve" smooth="yes"/>
      <point x="598" y="18"/>
      <point x="546" y="-9"/>
      <point x="511" y="-9" type="curve" smooth="yes"/>
      <point x="462" y="-9"/>
      <point x="437" y="21"/>
      <point x="418" y="44" type="curve" smooth="yes"/>
      <point x="349" y="133"/>
      <point x="329" y="178"/>
      <point x="280" y="278" type="curve" smooth="yes"/>
      <point x="268" y="302"/>
      <point x="264" y="301"/>
      <point x="238" y="275" type="curve" smooth="yes"/>
      <point x="223" y="261"/>
      <point x="215" y="246"/>
      <point x="210" y="233" type="curve"/>
      <point x="198" y="188"/>
      <point x="194" y="167"/>
      <point x="185" y="116" type="curve"/>
      <point x="173" y="57"/>
      <point x="189" y="40"/>
      <point x="247" y="24" type="curve" smooth="yes"/>
      <point x="265" y="18"/>
      <point x="269" y="12"/>
      <point x="268" y="7" type="curve" smooth="yes"/>
      <point x="266" y="-6"/>
      <point x="231" y="-2"/>
      <point x="219" y="0" type="curve" smooth="yes"/>
      <point x="161" y="6"/>
      <point x="70" y="4"/>
      <point x="9" y="-3" type="curve" smooth="yes"/>
      <point x="-12" y="-6"/>
      <point x="-22" y="-7"/>
      <point x="-24" y="1" type="curve"/>
      <point x="-24" y="13"/>
      <point x="-12" y="18"/>
      <point x="24" y="26" type="curve" smooth="yes"/>
      <point x="66" y="35"/>
      <point x="88" y="56"/>
      <point x="106" y="106" type="curve"/>
      <point x="129" y="179"/>
      <point x="183" y="402"/>
      <point x="198" y="496" type="curve"/>
      <point x="208" y="552"/>
      <point x="181" y="564"/>
      <point x="155" y="572" type="curve" smooth="yes"/>
      <point x="136" y="577"/>
      <point x="120" y="578"/>
    </contour>
  </outline>
</glyph>
<glyph name="L" format="1">
  <advance width="533"/>
  <unicode hex="004C"/>
  <outline>
    <contour>
      <point x="192" y="501" type="curve" smooth="yes"/>
      <point x="203" y="558"/>
      <point x="136" y="568"/>
      <point x="120" y="572" type="curve" smooth="yes"/>
      <point x="108" y="575"/>
      <point x="106" y="581"/>
      <point x="107" y="588" type="curve"/>
      <point x="109" y="594"/>
      <point x="117" y="600"/>
      <point x="148" y="598" type="curve" smooth="yes"/>
      <point x="265" y="594"/>
      <point x="327" y="595"/>
      <point x="363" y="598" type="curve"/>
      <point x="381" y="598"/>
      <point x="392" y="598"/>
      <point x="388" y="584" type="curve" smooth="yes"/>
      <point x="386" y="575"/>
      <point x="375" y="569"/>
      <point x="362" y="569" type="curve"/>
      <point x="295" y="558"/>
      <point x="283" y="540"/>
      <point x="267" y="497" type="curve"/>
      <point x="226" y="348"/>
      <point x="203" y="247"/>
      <point x="173" y="109" type="curve" smooth="yes"/>
      <point x="165" y="73"/>
      <point x="165" y="63"/>
      <point x="193" y="51" type="curve"/>
      <point x="216" y="40"/>
      <point x="248" y="41"/>
      <point x="286" y="41" type="curve" smooth="yes"/>
      <point x="415" y="41"/>
      <point x="453" y="99"/>
      <point x="489" y="165" type="curve"/>
      <point x="497" y="183"/>
      <point x="505" y="186"/>
      <point x="517" y="185" type="curve" smooth="yes"/>
      <point x="526" y="184"/>
      <point x="529" y="171"/>
      <point x="519" y="141" type="curve" smooth="yes"/>
      <point x="509" y="113"/>
      <point x="469" y="32"/>
      <point x="414" y="3" type="curve"/>
      <point x="397" y="-2"/>
      <point x="378" y="-5"/>
      <point x="354" y="-3" type="curve" smooth="yes"/>
      <point x="260" y="3"/>
      <point x="226" y="11"/>
      <point x="123" y="8" type="curve"/>
      <point x="70" y="8"/>
      <point x="8" y="-2"/>
      <point x="-5" y="-3" type="curve" smooth="yes"/>
      <point x="-14" y="-3"/>
      <point x="-24" y="-3"/>
      <point x="-24" y="7" type="curve" smooth="yes"/>
      <point x="-24" y="25"/>
      <point x="6" y="29"/>
      <point x="21" y="33" type="curve" smooth="yes"/>
      <point x="64" y="44"/>
      <point x="77" y="68"/>
      <point x="91" y="101" type="curve"/>
      <point x="111" y="136"/>
      <point x="186" y="471"/>
    </contour>
  </outline>
</glyph>
<glyph name="M" format="1">
  <advance width="892"/>
  <unicode hex="004D"/>
  <outline>
    <contour>
      <point x="170" y="581" type="curve" smooth="yes"/>
      <point x="173" y="593"/>
      <point x="183" y="596"/>
      <point x="195" y="596" type="curve"/>
      <point x="193" y="596"/>
      <point x="281" y="598"/>
      <point x="311" y="592" type="curve" smooth="yes"/>
      <point x="349" y="584"/>
      <point x="366" y="559"/>
      <point x="375" y="524" type="curve"/>
      <point x="375" y="545"/>
      <point x="424" y="165"/>
      <point x="436" y="121" type="curve" smooth="yes"/>
      <point x="438" y="113"/>
      <point x="447" y="107"/>
      <point x="455" y="121" type="curve" smooth="yes"/>
      <point x="522" y="233"/>
      <point x="649" y="465"/>
      <point x="662" y="491" type="curve" smooth="yes"/>
      <point x="696" y="561"/>
      <point x="726" y="592"/>
      <point x="787" y="595" type="curve" smooth="yes"/>
      <point x="815" y="597"/>
      <point x="848" y="597"/>
      <point x="864" y="597" type="curve" smooth="yes"/>
      <point x="878" y="597"/>
      <point x="882" y="593"/>
      <point x="879" y="582" type="curve" smooth="yes"/>
      <point x="876" y="572"/>
      <point x="864" y="570"/>
      <point x="858" y="568" type="curve" smooth="yes"/>
      <point x="790" y="551"/>
      <point x="780" y="528"/>
      <point x="778" y="486" type="curve" smooth="yes"/>
      <point x="769" y="356"/>
      <point x="771" y="219"/>
      <point x="773" y="89" type="curve" smooth="yes"/>
      <point x="773" y="58"/>
      <point x="803" y="33"/>
      <point x="827" y="24" type="curve" smooth="yes"/>
      <point x="839" y="20"/>
      <point x="842" y="17"/>
      <point x="838" y="7" type="curve"/>
      <point x="834" y="0"/>
      <point x="827" y="-3"/>
      <point x="818" y="-2" type="curve" smooth="yes"/>
      <point x="758" y="7"/>
      <point x="685" y="4"/>
      <point x="634" y="0" type="curve" smooth="yes"/>
      <point x="614" y="-2"/>
      <point x="599" y="-5"/>
      <point x="599" y="7" type="curve" smooth="yes"/>
      <point x="599" y="16"/>
      <point x="604" y="21"/>
      <point x="622" y="26" type="curve"/>
      <point x="645" y="34"/>
      <point x="692" y="62"/>
      <point x="696" y="109" type="curve" smooth="yes"/>
      <point x="705" y="231"/>
      <point x="706" y="346"/>
      <point x="705" y="464" type="curve" smooth="yes"/>
      <point x="705" y="485"/>
      <point x="690" y="476"/>
      <point x="684" y="464" type="curve"/>
      <point x="667" y="439"/>
      <point x="512" y="163"/>
      <point x="455" y="45" type="curve"/>
      <point x="455" y="45"/>
      <point x="444" y="30"/>
      <point x="435" y="24" type="curve" smooth="yes"/>
      <point x="418" y="12"/>
      <point x="400" y="-4"/>
      <point x="369" y="-4" type="curve" smooth="yes"/>
      <point x="359" y="-4"/>
      <point x="354" y="-3"/>
      <point x="352" y="13" type="curve" smooth="yes"/>
      <point x="351" y="24"/>
      <point x="351" y="51"/>
      <point x="352" y="61" type="curve" smooth="yes"/>
      <point x="354" y="148"/>
      <point x="331" y="342"/>
      <point x="308" y="455" type="curve" smooth="yes"/>
      <point x="306" y="466"/>
      <point x="302" y="486"/>
      <point x="286" y="455" type="curve" smooth="yes"/>
      <point x="247" y="380"/>
      <point x="189" y="263"/>
      <point x="154" y="176" type="curve" smooth="yes"/>
      <point x="143" y="147"/>
      <point x="130" y="111"/>
      <point x="132" y="82" type="curve"/>
      <point x="135" y="61"/>
      <point x="162" y="33"/>
      <point x="190" y="29" type="curve" smooth="yes"/>
      <point x="202" y="27"/>
      <point x="215" y="19"/>
      <point x="217" y="10" type="curve"/>
      <point x="217" y="-1"/>
      <point x="200" y="-3"/>
      <point x="184" y="-1" type="curve" smooth="yes"/>
      <point x="139" y="3"/>
      <point x="88" y="3"/>
      <point x="50" y="0" type="curve" smooth="yes"/>
      <point x="29" y="-2"/>
      <point x="11" y="-5"/>
      <point x="8" y="4" type="curve" smooth="yes"/>
      <point x="3" y="24"/>
      <point x="39" y="63"/>
      <point x="51" y="84" type="curve" smooth="yes"/>
      <point x="109" y="178"/>
      <point x="222" y="385"/>
      <point x="252" y="465" type="curve"/>
      <point x="269" y="515"/>
      <point x="253" y="558"/>
      <point x="187" y="566" type="curve" smooth="yes"/>
      <point x="173" y="567"/>
      <point x="166" y="568"/>
    </contour>
  </outline>
</glyph>
<glyph name="O" format="1">
  <advance width="652"/>
  <unicode hex="004F"/>
  <outline>
    <contour>
      <point x="398" y="606" type="curve" smooth="yes"/>
      <point x="565" y="606"/>
      <point x="638" y="492"/>
      <point x="638" y="372" type="curve" smooth="yes"/>
      <point x="638" y="186"/>
      <point x="499" y="-17"/>
      <point x="303" y="-17" type="curve" smooth="yes"/>
      <point x="96" y="-17"/>
      <point x="47" y="124"/>
      <point x="47" y="232" type="curve" smooth="yes"/>
      <point x="47" y="415"/>
      <point x="212" y="606"/>
    </contour>
    <contour>
      <point x="130" y="257" type="curve" smooth="yes"/>
      <point x="130" y="75"/>
      <point x="234" y="25"/>
      <point x="316" y="25" type="curve" smooth="yes"/>
      <point x="445" y="25"/>
      <point x="556" y="152"/>
      <point x="556" y="352" type="curve" smooth="yes"/>
      <point x="556" y="460"/>
      <point x="492" y="558"/>
      <point x="380" y="558" type="curve" smooth="yes"/>
      <point x="278" y="558"/>
      <point x="130" y="466"/>
    </contour>
  </outline>
</glyph>
<glyph name="P" format="1">
  <advance width="517"/>
  <unicode hex="0050"/>
  <outline>
    <contour>
      <point x="115" y="588" type="curve" smooth="yes"/>
      <point x="116" y="602"/>
      <point x="152" y="597"/>
      <point x="169" y="594" type="curve" smooth="yes"/>
      <point x="213" y="588"/>
      <point x="276" y="592"/>
      <point x="322" y="594" type="curve" smooth="yes"/>
      <point x="338" y="595"/>
      <point x="375" y="597"/>
      <point x="416" y="596" type="curve" smooth="yes"/>
      <point x="495" y="595"/>
      <point x="561" y="554"/>
      <point x="561" y="467" type="curve" smooth="yes"/>
      <point x="561" y="353"/>
      <point x="427" y="267"/>
      <point x="305" y="267" type="curve" smooth="yes"/>
      <point x="284" y="267"/>
      <point x="269" y="268"/>
      <point x="271" y="280" type="curve" smooth="yes"/>
      <point x="273" y="290"/>
      <point x="279" y="297"/>
      <point x="303" y="297" type="curve" smooth="yes"/>
      <point x="400" y="297"/>
      <point x="487" y="370"/>
      <point x="485" y="456" type="curve" smooth="yes"/>
      <point x="483" y="535"/>
      <point x="409" y="566"/>
      <point x="338" y="562" type="curve"/>
      <point x="301" y="561"/>
      <point x="291" y="551"/>
      <point x="274" y="503" type="curve" smooth="yes"/>
      <point x="255" y="449"/>
      <point x="215" y="284"/>
      <point x="185" y="116" type="curve"/>
      <point x="173" y="57"/>
      <point x="190" y="40"/>
      <point x="247" y="24" type="curve" smooth="yes"/>
      <point x="265" y="18"/>
      <point x="269" y="12"/>
      <point x="269" y="7" type="curve" smooth="yes"/>
      <point x="267" y="-6"/>
      <point x="232" y="-2"/>
      <point x="220" y="0" type="curve" smooth="yes"/>
      <point x="162" y="6"/>
      <point x="72" y="4"/>
      <point x="11" y="-3" type="curve" smooth="yes"/>
      <point x="-10" y="-6"/>
      <point x="-19" y="-7"/>
      <point x="-22" y="1" type="curve"/>
      <point x="-24" y="13"/>
      <point x="-11" y="18"/>
      <point x="24" y="26" type="curve" smooth="yes"/>
      <point x="66" y="35"/>
      <point x="89" y="56"/>
      <point x="107" y="106" type="curve"/>
      <point x="129" y="179"/>
      <point x="180" y="402"/>
      <point x="194" y="496" type="curve" smooth="yes"/>
      <point x="202" y="552"/>
      <point x="177" y="562"/>
      <point x="151" y="570" type="curve"/>
      <point x="131" y="575"/>
      <point x="115" y="577"/>
    </contour>
  </outline>
</glyph>
<glyph name="Q" format="1">
  <advance width="652"/>
  <unicode hex="0051"/>
  <outline>
    <contour>
      <point x="399" y="605" type="curve" smooth="yes"/>
      <point x="566" y="605"/>
      <point x="639" y="492"/>
      <point x="639" y="372" type="curve" smooth="yes"/>
      <point x="639" y="186"/>
      <point x="504" y="-11"/>
      <point x="308" y="-11" type="curve" smooth="yes"/>
      <point x="287" y="-11"/>
      <point x="270" y="-9"/>
      <point x="252" y="-6" type="curve" smooth="yes"/>
      <point x="242" y="-4"/>
      <point x="242" y="-5"/>
      <point x="235" y="-13" type="curve" smooth="yes"/>
      <point x="226" y="-23"/>
      <point x="223" y="-26"/>
      <point x="218" y="-34" type="curve" smooth="yes"/>
      <point x="211" y="-44"/>
      <point x="206" y="-51"/>
      <point x="220" y="-54" type="curve" smooth="yes"/>
      <point x="276" y="-67"/>
      <point x="306" y="-76"/>
      <point x="350" y="-90" type="curve" smooth="yes"/>
      <point x="391" y="-103"/>
      <point x="443" y="-124"/>
      <point x="490" y="-124" type="curve" smooth="yes"/>
      <point x="542" y="-124"/>
      <point x="584" y="-93"/>
      <point x="613" y="-59" type="curve" smooth="yes"/>
      <point x="629" y="-39"/>
      <point x="634" y="-35"/>
      <point x="644" y="-38" type="curve" smooth="yes"/>
      <point x="652" y="-41"/>
      <point x="646" y="-61"/>
      <point x="639" y="-71" type="curve" smooth="yes"/>
      <point x="615" y="-109"/>
      <point x="596" y="-134"/>
      <point x="563" y="-168" type="curve" smooth="yes"/>
      <point x="538" y="-193"/>
      <point x="513" y="-208"/>
      <point x="486" y="-208" type="curve" smooth="yes"/>
      <point x="424" y="-208"/>
      <point x="364" y="-179"/>
      <point x="313" y="-161" type="curve"/>
      <point x="275" y="-146"/>
      <point x="199" y="-127"/>
      <point x="136" y="-127" type="curve"/>
      <point x="102" y="-129"/>
      <point x="72" y="-140"/>
      <point x="29" y="-150" type="curve" smooth="yes"/>
      <point x="-4" y="-157"/>
      <point x="-60" y="-162"/>
      <point x="-60" y="-130" type="curve" smooth="yes"/>
      <point x="-60" y="-115"/>
      <point x="-45" y="-93"/>
      <point x="-34" y="-79" type="curve" smooth="yes"/>
      <point x="-22" y="-65"/>
      <point x="-24" y="-66"/>
      <point x="-2" y="-61" type="curve" smooth="yes"/>
      <point x="24" y="-55"/>
      <point x="75" y="-50"/>
      <point x="97" y="-48" type="curve" smooth="yes"/>
      <point x="127" y="-45"/>
      <point x="158" y="-35"/>
      <point x="165" y="-31" type="curve" smooth="yes"/>
      <point x="182" y="-23"/>
      <point x="193" y="-13"/>
      <point x="197" y="-7" type="curve" smooth="yes"/>
      <point x="202" y="3"/>
      <point x="202" y="5"/>
      <point x="187" y="12" type="curve" smooth="yes"/>
      <point x="89" y="56"/>
      <point x="47" y="135"/>
      <point x="47" y="232" type="curve" smooth="yes"/>
      <point x="47" y="433"/>
      <point x="217" y="605"/>
    </contour>
    <contour>
      <point x="134" y="257" type="curve" smooth="yes"/>
      <point x="134" y="149"/>
      <point x="176" y="90"/>
      <point x="226" y="60" type="curve" smooth="yes"/>
      <point x="234" y="55"/>
      <point x="242" y="54"/>
      <point x="249" y="61" type="curve" smooth="yes"/>
      <point x="279" y="93"/>
      <point x="297" y="111"/>
      <point x="325" y="152" type="curve" smooth="yes"/>
      <point x="333" y="163"/>
      <point x="343" y="168"/>
      <point x="351" y="164" type="curve" smooth="yes"/>
      <point x="359" y="160"/>
      <point x="354" y="146"/>
      <point x="349" y="140" type="curve" smooth="yes"/>
      <point x="329" y="111"/>
      <point x="301" y="78"/>
      <point x="284" y="52" type="curve" smooth="yes"/>
      <point x="279" y="45"/>
      <point x="281" y="39"/>
      <point x="286" y="37" type="curve" smooth="yes"/>
      <point x="297" y="34"/>
      <point x="313" y="30"/>
      <point x="325" y="30" type="curve" smooth="yes"/>
      <point x="455" y="29"/>
      <point x="556" y="152"/>
      <point x="556" y="352" type="curve" smooth="yes"/>
      <point x="556" y="460"/>
      <point x="492" y="559"/>
      <point x="381" y="559" type="curve" smooth="yes"/>
      <point x="280" y="559"/>
      <point x="134" y="480"/>
    </contour>
  </outline>
</glyph>
<glyph name="S" format="1">
  <advance width="445"/>
  <unicode hex="0053"/>
  <outline>
    <contour>
      <point x="168" y="-8" type="curve" smooth="yes"/>
      <point x="103" y="-8"/>
      <point x="22" y="19"/>
      <point x="23" y="94" type="curve"/>
      <point x="25" y="142"/>
      <point x="73" y="189"/>
      <point x="114" y="205" type="curve" smooth="yes"/>
      <point x="125" y="210"/>
      <point x="140" y="212"/>
      <point x="144" y="208" type="curve" smooth="yes"/>
      <point x="147" y="205"/>
      <point x="147" y="195"/>
      <point x="139" y="187" type="curve" smooth="yes"/>
      <point x="124" y="173"/>
      <point x="98" y="146"/>
      <point x="97" y="113" type="curve" smooth="yes"/>
      <point x="96" y="46"/>
      <point x="145" y="30"/>
      <point x="187" y="30" type="curve" smooth="yes"/>
      <point x="280" y="30"/>
      <point x="327" y="80"/>
      <point x="329" y="140" type="curve" smooth="yes"/>
      <point x="331" y="202"/>
      <point x="272" y="267"/>
      <point x="215" y="317" type="curve"/>
      <point x="161" y="363"/>
      <point x="113" y="404"/>
      <point x="114" y="467" type="curve" smooth="yes"/>
      <point x="115" y="534"/>
      <point x="210" y="602"/>
      <point x="301" y="602" type="curve" smooth="yes"/>
      <point x="402" y="603"/>
      <point x="429" y="567"/>
      <point x="428" y="528" type="curve" smooth="yes"/>
      <point x="428" y="503"/>
      <point x="410" y="474"/>
      <point x="383" y="451" type="curve" smooth="yes"/>
      <point x="368" y="438"/>
      <point x="356" y="436"/>
      <point x="350" y="440" type="curve" smooth="yes"/>
      <point x="343" y="444"/>
      <point x="343" y="450"/>
      <point x="352" y="468" type="curve" smooth="yes"/>
      <point x="359" y="481"/>
      <point x="362" y="502"/>
      <point x="362" y="513" type="curve" smooth="yes"/>
      <point x="361" y="558"/>
      <point x="322" y="569"/>
      <point x="290" y="569" type="curve" smooth="yes"/>
      <point x="248" y="569"/>
      <point x="186" y="539"/>
      <point x="185" y="488" type="curve" smooth="yes"/>
      <point x="184" y="444"/>
      <point x="234" y="399"/>
      <point x="290" y="354" type="curve"/>
      <point x="363" y="298"/>
      <point x="401" y="232"/>
      <point x="401" y="168" type="curve" smooth="yes"/>
      <point x="401" y="88"/>
      <point x="317" y="-8"/>
    </contour>
  </outline>
</glyph>
<glyph name="T" format="1">
  <advance width="568"/>
  <unicode hex="0054"/>
  <outline>
    <contour>
      <point x="333" y="536" type="curve" smooth="yes"/>
      <point x="338" y="560"/>
      <point x="328" y="561"/>
      <point x="316" y="561" type="curve" smooth="yes"/>
      <point x="310" y="561"/>
      <point x="274" y="562"/>
      <point x="266" y="561" type="curve" smooth="yes"/>
      <point x="178" y="556"/>
      <point x="137" y="511"/>
      <point x="106" y="444" type="curve"/>
      <point x="101" y="429"/>
      <point x="93" y="418"/>
      <point x="81" y="418" type="curve"/>
      <point x="72" y="419"/>
      <point x="68" y="429"/>
      <point x="77" y="449" type="curve" smooth="yes"/>
      <point x="86" y="468"/>
      <point x="114" y="555"/>
      <point x="135" y="593" type="curve" smooth="yes"/>
      <point x="146" y="613"/>
      <point x="152" y="612"/>
      <point x="169" y="608" type="curve"/>
      <point x="202" y="597"/>
      <point x="254" y="591"/>
      <point x="403" y="594" type="curve" smooth="yes"/>
      <point x="481" y="596"/>
      <point x="565" y="606"/>
      <point x="593" y="608" type="curve" smooth="yes"/>
      <point x="611" y="609"/>
      <point x="643" y="593"/>
      <point x="641" y="560" type="curve" smooth="yes"/>
      <point x="638" y="521"/>
      <point x="623" y="460"/>
      <point x="573" y="420" type="curve"/>
      <point x="566" y="413"/>
      <point x="558" y="412"/>
      <point x="552" y="416" type="curve" smooth="yes"/>
      <point x="547" y="419"/>
      <point x="552" y="433"/>
      <point x="556" y="439" type="curve"/>
      <point x="567" y="450"/>
      <point x="572" y="465"/>
      <point x="574" y="477" type="curve" smooth="yes"/>
      <point x="591" y="552"/>
      <point x="535" y="565"/>
      <point x="450" y="565" type="curve" smooth="yes"/>
      <point x="417" y="565"/>
      <point x="407" y="551"/>
      <point x="403" y="532" type="curve" smooth="yes"/>
      <point x="385" y="452"/>
      <point x="318" y="173"/>
      <point x="315" y="121" type="curve"/>
      <point x="311" y="76"/>
      <point x="338" y="43"/>
      <point x="386" y="35" type="curve" smooth="yes"/>
      <point x="406" y="31"/>
      <point x="430" y="29"/>
      <point x="428" y="11" type="curve" smooth="yes"/>
      <point x="426" y="0"/>
      <point x="411" y="-3"/>
      <point x="389" y="-1" type="curve" smooth="yes"/>
      <point x="324" y="7"/>
      <point x="188" y="2"/>
      <point x="139" y="-2" type="curve" smooth="yes"/>
      <point x="129" y="-3"/>
      <point x="114" y="-2"/>
      <point x="115" y="8" type="curve"/>
      <point x="115" y="27"/>
      <point x="136" y="29"/>
      <point x="151" y="33" type="curve" smooth="yes"/>
      <point x="199" y="44"/>
      <point x="222" y="74"/>
      <point x="233" y="111" type="curve" smooth="yes"/>
      <point x="262" y="203"/>
      <point x="315" y="434"/>
    </contour>
  </outline>
</glyph>
<glyph name="V" format="1">
  <advance width="610"/>
  <unicode hex="0056"/>
  <outline>
    <contour>
      <point x="105" y="585" type="curve" smooth="yes"/>
      <point x="105" y="593"/>
      <point x="124" y="598"/>
      <point x="140" y="595" type="curve" smooth="yes"/>
      <point x="166" y="590"/>
      <point x="268" y="588"/>
      <point x="307" y="595" type="curve" smooth="yes"/>
      <point x="327" y="598"/>
      <point x="344" y="595"/>
      <point x="343" y="586" type="curve"/>
      <point x="343" y="576"/>
      <point x="335" y="573"/>
      <point x="322" y="566" type="curve" smooth="yes"/>
      <point x="277" y="543"/>
      <point x="269" y="523"/>
      <point x="277" y="468" type="curve"/>
      <point x="290" y="389"/>
      <point x="306" y="251"/>
      <point x="323" y="109" type="curve" smooth="yes"/>
      <point x="326" y="92"/>
      <point x="337" y="88"/>
      <point x="352" y="114" type="curve" smooth="yes"/>
      <point x="391" y="183"/>
      <point x="430" y="246"/>
      <point x="474" y="301" type="curve"/>
      <point x="533" y="379"/>
      <point x="571" y="419"/>
      <point x="576" y="499" type="curve" smooth="yes"/>
      <point x="577" y="528"/>
      <point x="561" y="545"/>
      <point x="536" y="545" type="curve" smooth="yes"/>
      <point x="529" y="545"/>
      <point x="510" y="540"/>
      <point x="503" y="538" type="curve" smooth="yes"/>
      <point x="488" y="532"/>
      <point x="480" y="527"/>
      <point x="471" y="537" type="curve"/>
      <point x="467" y="545"/>
      <point x="492" y="566"/>
      <point x="508" y="575" type="curve" smooth="yes"/>
      <point x="543" y="597"/>
      <point x="569" y="606"/>
      <point x="598" y="605" type="curve" smooth="yes"/>
      <point x="636" y="604"/>
      <point x="663" y="581"/>
      <point x="659" y="531" type="curve" smooth="yes"/>
      <point x="654" y="454"/>
      <point x="569" y="353"/>
      <point x="512" y="292" type="curve" smooth="yes"/>
      <point x="476" y="253"/>
      <point x="420" y="176"/>
      <point x="398" y="140" type="curve" smooth="yes"/>
      <point x="386" y="120"/>
      <point x="364" y="79"/>
      <point x="362" y="53" type="curve"/>
      <point x="358" y="29"/>
      <point x="348" y="17"/>
      <point x="327" y="7" type="curve" smooth="yes"/>
      <point x="316" y="2"/>
      <point x="306" y="-3"/>
      <point x="295" y="-4" type="curve" smooth="yes"/>
      <point x="255" y="-11"/>
      <point x="251" y="8"/>
      <point x="248" y="63" type="curve" smooth="yes"/>
      <point x="241" y="205"/>
      <point x="225" y="360"/>
      <point x="200" y="476" type="curve"/>
      <point x="189" y="540"/>
      <point x="178" y="554"/>
      <point x="124" y="568" type="curve" smooth="yes"/>
      <point x="115" y="571"/>
      <point x="104" y="574"/>
    </contour>
  </outline>
</glyph>
<glyph name="X" format="1">
  <advance width="738"/>
  <unicode hex="0058"/>
  <outline>
    <contour>
      <point x="-18" y="2" type="curve" smooth="yes"/>
      <point x="-21" y="11"/>
      <point x="-16" y="13"/>
      <point x="18" y="30" type="curve" smooth="yes"/>
      <point x="117" y="79"/>
      <point x="184" y="141"/>
      <point x="302" y="293" type="curve" smooth="yes"/>
      <point x="316" y="311"/>
      <point x="316" y="323"/>
      <point x="312" y="342" type="curve" smooth="yes"/>
      <point x="304" y="386"/>
      <point x="286" y="444"/>
      <point x="265" y="483" type="curve"/>
      <point x="237" y="539"/>
      <point x="211" y="563"/>
      <point x="152" y="563" type="curve" smooth="yes"/>
      <point x="139" y="563"/>
      <point x="114" y="561"/>
      <point x="114" y="574" type="curve" smooth="yes"/>
      <point x="114" y="585"/>
      <point x="129" y="591"/>
      <point x="183" y="593" type="curve"/>
      <point x="246" y="594"/>
      <point x="273" y="596"/>
      <point x="297" y="594" type="curve" smooth="yes"/>
      <point x="343" y="591"/>
      <point x="344" y="566"/>
      <point x="344" y="557" type="curve"/>
      <point x="356" y="486"/>
      <point x="362" y="453"/>
      <point x="380" y="380" type="curve"/>
      <point x="386" y="366"/>
      <point x="397" y="364"/>
      <point x="408" y="375" type="curve" smooth="yes"/>
      <point x="443" y="410"/>
      <point x="507" y="485"/>
      <point x="523" y="523" type="curve"/>
      <point x="555" y="591"/>
      <point x="554" y="602"/>
      <point x="606" y="600" type="curve" smooth="yes"/>
      <point x="631" y="599"/>
      <point x="647" y="599"/>
      <point x="671" y="600" type="curve" smooth="yes"/>
      <point x="695" y="601"/>
      <point x="701" y="595"/>
      <point x="702" y="587" type="curve" smooth="yes"/>
      <point x="703" y="576"/>
      <point x="696" y="568"/>
      <point x="672" y="564" type="curve" smooth="yes"/>
      <point x="630" y="558"/>
      <point x="579" y="519"/>
      <point x="536" y="474" type="curve" smooth="yes"/>
      <point x="497" y="433"/>
      <point x="450" y="380"/>
      <point x="423" y="345" type="curve" smooth="yes"/>
      <point x="409" y="326"/>
      <point x="406" y="327"/>
      <point x="412" y="303" type="curve" smooth="yes"/>
      <point x="428" y="246"/>
      <point x="492" y="126"/>
      <point x="535" y="85" type="curve"/>
      <point x="558" y="61"/>
      <point x="589" y="51"/>
      <point x="641" y="51" type="curve" smooth="yes"/>
      <point x="662" y="51"/>
      <point x="683" y="57"/>
      <point x="690" y="59" type="curve" smooth="yes"/>
      <point x="702" y="61"/>
      <point x="709" y="61"/>
      <point x="712" y="52" type="curve" smooth="yes"/>
      <point x="715" y="45"/>
      <point x="706" y="35"/>
      <point x="685" y="28" type="curve" smooth="yes"/>
      <point x="643" y="15"/>
      <point x="589" y="-10"/>
      <point x="543" y="-10" type="curve"/>
      <point x="512" y="-8"/>
      <point x="483" y="3"/>
      <point x="456" y="42" type="curve" smooth="yes"/>
      <point x="402" y="123"/>
      <point x="379" y="177"/>
      <point x="350" y="258" type="curve" smooth="yes"/>
      <point x="345" y="271"/>
      <point x="333" y="279"/>
      <point x="319" y="261" type="curve"/>
      <point x="295" y="237"/>
      <point x="210" y="151"/>
      <point x="194" y="84" type="curve"/>
      <point x="189" y="57"/>
      <point x="189" y="36"/>
      <point x="189" y="11" type="curve" smooth="yes"/>
      <point x="189" y="-3"/>
      <point x="180" y="-7"/>
      <point x="141" y="-1" type="curve" smooth="yes"/>
      <point x="77" y="8"/>
      <point x="56" y="-1"/>
      <point x="9" y="-3" type="curve"/>
      <point x="9" y="-3"/>
      <point x="-16" y="-5"/>
    </contour>
  </outline>
</glyph>
<glyph name="bracketleft" format="1">
  <advance width="253"/>
  <unicode hex="005B"/>
  <outline>
    <contour>
      <point x="283" y="597" type="curve" smooth="yes"/>
      <point x="298" y="597"/>
      <point x="306" y="594"/>
      <point x="304" y="585" type="curve" smooth="yes"/>
      <point x="301" y="573"/>
      <point x="289" y="570"/>
      <point x="278" y="569" type="curve" smooth="yes"/>
      <point x="238" y="566" type="line"/>
      <point x="221" y="566"/>
      <point x="221" y="560"/>
      <point x="215" y="540" type="curve" smooth="yes"/>
      <point x="199" y="485"/>
      <point x="104" y="107"/>
      <point x="84" y="24" type="curve" smooth="yes"/>
      <point x="81" y="11"/>
      <point x="81" y="7"/>
      <point x="95" y="5" type="curve" smooth="yes"/>
      <point x="101" y="4"/>
      <point x="131" y="3"/>
      <point x="143" y="3" type="curve" smooth="yes"/>
      <point x="154" y="3"/>
      <point x="160" y="-1"/>
      <point x="158" y="-13" type="curve" smooth="yes"/>
      <point x="157" y="-19"/>
      <point x="152" y="-28"/>
      <point x="135" y="-28" type="curve" smooth="yes"/>
      <point x="124" y="-28"/>
      <point x="35" y="-25"/>
      <point x="19" y="-25" type="curve" smooth="yes"/>
      <point x="3" y="-25"/>
      <point x="-2" y="-21"/>
      <point x="3" y="-3" type="curve" smooth="yes"/>
      <point x="53" y="192"/>
      <point x="82" y="305"/>
      <point x="147" y="571" type="curve" smooth="yes"/>
      <point x="151" y="588"/>
      <point x="156" y="594"/>
      <point x="178" y="594" type="curve" smooth="yes"/>
      <point x="188" y="594"/>
      <point x="274" y="597"/>
    </contour>
  </outline>
</glyph>
<glyph name="backslash" format="1">
  <advance width="391"/>
  <unicode hex="005C"/>
  <outline>
    <contour>
      <point x="125" y="607" type="curve" smooth="yes"/>
      <point x="138" y="609"/>
      <point x="147" y="604"/>
      <point x="160" y="566" type="curve" smooth="yes"/>
      <point x="192" y="471"/>
      <point x="285" y="167"/>
      <point x="303" y="115" type="curve" smooth="yes"/>
      <point x="312" y="92"/>
      <point x="332" y="66"/>
      <point x="330" y="39" type="curve"/>
      <point x="327" y="18"/>
      <point x="314" y="-6"/>
      <point x="304" y="-15" type="curve" smooth="yes"/>
      <point x="295" y="-24"/>
      <point x="290" y="-22"/>
      <point x="284" y="-10" type="curve" smooth="yes"/>
      <point x="275" y="8"/>
      <point x="268" y="41"/>
      <point x="263" y="61" type="curve" smooth="yes"/>
      <point x="244" y="137"/>
      <point x="155" y="466"/>
      <point x="129" y="543" type="curve" smooth="yes"/>
      <point x="114" y="588"/>
      <point x="104" y="604"/>
    </contour>
  </outline>
</glyph>
<glyph name="bracketright" format="1">
  <advance width="253"/>
  <unicode hex="005D"/>
  <outline>
    <contour>
      <point x="13" y="-29" type="curve" smooth="yes"/>
      <point x="-2" y="-29"/>
      <point x="-10" y="-26"/>
      <point x="-8" y="-16" type="curve" smooth="yes"/>
      <point x="-5" y="-5"/>
      <point x="8" y="-2"/>
      <point x="19" y="-1" type="curve" smooth="yes"/>
      <point x="58" y="2" type="line" smooth="yes"/>
      <point x="75" y="3"/>
      <point x="76" y="8"/>
      <point x="82" y="29" type="curve" smooth="yes"/>
      <point x="98" y="83"/>
      <point x="192" y="461"/>
      <point x="212" y="544" type="curve" smooth="yes"/>
      <point x="215" y="557"/>
      <point x="215" y="561"/>
      <point x="201" y="563" type="curve" smooth="yes"/>
      <point x="195" y="564"/>
      <point x="165" y="566"/>
      <point x="153" y="566" type="curve" smooth="yes"/>
      <point x="142" y="566"/>
      <point x="136" y="569"/>
      <point x="138" y="581" type="curve" smooth="yes"/>
      <point x="140" y="588"/>
      <point x="144" y="596"/>
      <point x="162" y="596" type="curve" smooth="yes"/>
      <point x="173" y="596"/>
      <point x="262" y="593"/>
      <point x="277" y="593" type="curve" smooth="yes"/>
      <point x="294" y="593"/>
      <point x="298" y="589"/>
      <point x="294" y="572" type="curve" smooth="yes"/>
      <point x="243" y="376"/>
      <point x="214" y="263"/>
      <point x="149" y="-3" type="curve" smooth="yes"/>
      <point x="146" y="-19"/>
      <point x="141" y="-26"/>
      <point x="119" y="-26" type="curve" smooth="yes"/>
      <point x="109" y="-26"/>
      <point x="23" y="-29"/>
    </contour>
  </outline>
</glyph>
<glyph name="asciicircum" format="1">
  <advance width="487"/>
  <unicode hex="005E"/>
  <outline>
    <contour>
      <point x="278" y="560" type="curve" smooth="yes"/>
      <point x="265" y="548"/>
      <point x="146" y="396"/>
      <point x="125" y="368" type="curve" smooth="yes"/>
      <point x="113" y="353"/>
      <point x="109" y="349"/>
      <point x="90" y="348" type="curve" smooth="yes"/>
      <point x="79" y="348"/>
      <point x="72" y="352"/>
      <point x="98" y="384" type="curve" smooth="yes"/>
      <point x="114" y="405"/>
      <point x="225" y="544"/>
      <point x="265" y="598" type="curve" smooth="yes"/>
      <point x="271" y="607"/>
      <point x="279" y="615"/>
      <point x="297" y="619" type="curve" smooth="yes"/>
      <point x="312" y="622"/>
      <point x="314" y="614"/>
      <point x="320" y="597" type="curve" smooth="yes"/>
      <point x="342" y="533"/>
      <point x="371" y="455"/>
      <point x="380" y="438" type="curve"/>
      <point x="388" y="419"/>
      <point x="406" y="400"/>
      <point x="405" y="378" type="curve" smooth="yes"/>
      <point x="404" y="367"/>
      <point x="400" y="359"/>
      <point x="391" y="349" type="curve" smooth="yes"/>
      <point x="385" y="343"/>
      <point x="375" y="343"/>
      <point x="370" y="352" type="curve" smooth="yes"/>
      <point x="361" y="368"/>
      <point x="354" y="388"/>
      <point x="348" y="403" type="curve"/>
      <point x="340" y="428"/>
      <point x="320" y="496"/>
      <point x="296" y="560" type="curve" smooth="yes"/>
      <point x="293" y="568"/>
      <point x="286" y="568"/>
    </contour>
  </outline>
</glyph>
<glyph name="underscore" format="1">
  <advance width="447"/>
  <unicode hex="005F"/>
  <outline>
    <contour>
      <point x="-7" y="-66" type="curve" smooth="yes"/>
      <point x="-29" y="-66"/>
      <point x="-37" y="-61"/>
      <point x="-30" y="-48" type="curve"/>
      <point x="-20" y="-34"/>
      <point x="-8" y="-31"/>
      <point x="14" y="-31" type="curve" smooth="yes"/>
      <point x="145" y="-29"/>
      <point x="241" y="-25"/>
      <point x="338" y="-16" type="curve" smooth="yes"/>
      <point x="364" y="-13"/>
      <point x="384" y="-7"/>
      <point x="382" y="-26" type="curve" smooth="yes"/>
      <point x="382" y="-34"/>
      <point x="368" y="-48"/>
      <point x="352" y="-57" type="curve" smooth="yes"/>
      <point x="339" y="-64"/>
      <point x="326" y="-64"/>
      <point x="313" y="-64" type="curve" smooth="yes"/>
      <point x="264" y="-65"/>
      <point x="40" y="-66"/>
    </contour>
  </outline>
</glyph>
<glyph name="grave" format="1">
  <advance width="487"/>
  <unicode hex="0060"/>
  <outline>
    <contour>
      <point x="270" y="511" type="curve" smooth="yes"/>
      <point x="251" y="543"/>
      <point x="224" y="579"/>
      <point x="202" y="607" type="curve" smooth="yes"/>
      <point x="194" y="616"/>
      <point x="194" y="623"/>
      <point x="207" y="632" type="curve" smooth="yes"/>
      <point x="215" y="638"/>
      <point x="235" y="646"/>
      <point x="243" y="648" type="curve" smooth="yes"/>
      <point x="254" y="650"/>
      <point x="261" y="649"/>
      <point x="263" y="638" type="curve" smooth="yes"/>
      <point x="269" y="593"/>
      <point x="281" y="545"/>
      <point x="289" y="516" type="curve"/>
      <point x="291" y="504"/>
      <point x="277" y="498"/>
    </contour>
  </outline>
</glyph>
<glyph name="b" format="1">
  <advance width="426"/>
  <unicode hex="0062"/>
  <outline>
    <contour>
      <point x="154" y="572" type="curve" smooth="yes"/>
      <point x="160" y="604"/>
      <point x="177" y="664"/>
      <point x="114" y="664" type="curve" smooth="yes"/>
      <point x="101" y="664"/>
      <point x="87" y="662"/>
      <point x="72" y="658" type="curve"/>
      <point x="61" y="654"/>
      <point x="51" y="658"/>
      <point x="49" y="666" type="curve" smooth="yes"/>
      <point x="46" y="674"/>
      <point x="55" y="681"/>
      <point x="80" y="684" type="curve" smooth="yes"/>
      <point x="122" y="689"/>
      <point x="173" y="705"/>
      <point x="199" y="705" type="curve" smooth="yes"/>
      <point x="232" y="705"/>
      <point x="242" y="692"/>
      <point x="242" y="661" type="curve" smooth="yes"/>
      <point x="242" y="637"/>
      <point x="237" y="622"/>
      <point x="226" y="578" type="curve"/>
      <point x="192" y="463"/>
      <point x="173" y="414"/>
      <point x="141" y="277" type="curve" smooth="yes"/>
      <point x="135" y="253"/>
      <point x="146" y="256"/>
      <point x="155" y="269" type="curve" smooth="yes"/>
      <point x="203" y="335"/>
      <point x="289" y="431"/>
      <point x="362" y="431" type="curve" smooth="yes"/>
      <point x="392" y="431"/>
      <point x="403" y="405"/>
      <point x="403" y="362" type="curve" smooth="yes"/>
      <point x="403" y="248"/>
      <point x="335" y="138"/>
      <point x="263" y="63" type="curve"/>
      <point x="210" y="5"/>
      <point x="173" y="-8"/>
      <point x="143" y="-8" type="curve" smooth="yes"/>
      <point x="66" y="-8"/>
      <point x="48" y="34"/>
      <point x="47" y="88" type="curve" smooth="yes"/>
      <point x="46" y="121"/>
      <point x="57" y="165"/>
      <point x="64" y="195" type="curve" smooth="yes"/>
      <point x="99" y="343"/>
      <point x="127" y="441"/>
    </contour>
    <contour>
      <point x="116" y="94" type="curve" smooth="yes"/>
      <point x="118" y="50"/>
      <point x="140" y="35"/>
      <point x="166" y="35" type="curve" smooth="yes"/>
      <point x="237" y="35"/>
      <point x="330" y="217"/>
      <point x="331" y="333" type="curve" smooth="yes"/>
      <point x="331" y="344"/>
      <point x="327" y="366"/>
      <point x="307" y="366" type="curve"/>
      <point x="289" y="362"/>
      <point x="263" y="349"/>
      <point x="231" y="316" type="curve" smooth="yes"/>
      <point x="196" y="279"/>
      <point x="159" y="237"/>
      <point x="136" y="184" type="curve" smooth="yes"/>
      <point x="129" y="170"/>
      <point x="115" y="114"/>
    </contour>
  </outline>
</glyph>
<glyph name="f" format="1">
  <advance width="309"/>
  <unicode hex="0066"/>
  <outline>
    <contour>
      <point x="-162" y="-127" type="curve" smooth="yes"/>
      <point x="-157" y="-132"/>
      <point x="-157" y="-137"/>
      <point x="-166" y="-151" type="curve"/>
      <point x="-175" y="-162"/>
      <point x="-178" y="-178"/>
      <point x="-178" y="-188" type="curve" smooth="yes"/>
      <point x="-176" y="-212"/>
      <point x="-156" y="-230"/>
      <point x="-126" y="-230" type="curve" smooth="yes"/>
      <point x="-89" y="-230"/>
      <point x="-46" y="-189"/>
      <point x="-28" y="-162" type="curve" smooth="yes"/>
      <point x="5" y="-114"/>
      <point x="24" y="-66"/>
      <point x="38" y="-21" type="curve" smooth="yes"/>
      <point x="77" y="103"/>
      <point x="105" y="242"/>
      <point x="124" y="358" type="curve" smooth="yes"/>
      <point x="129" y="388"/>
      <point x="124" y="390"/>
      <point x="112" y="390" type="curve"/>
      <point x="104" y="391"/>
      <point x="85" y="391"/>
      <point x="77" y="391" type="curve" smooth="yes"/>
      <point x="61" y="391"/>
      <point x="63" y="401"/>
      <point x="67" y="408" type="curve" smooth="yes"/>
      <point x="74" y="418"/>
      <point x="81" y="425"/>
      <point x="106" y="425" type="curve" smooth="yes"/>
      <point x="133" y="425"/>
      <point x="137" y="425"/>
      <point x="147" y="451" type="curve" smooth="yes"/>
      <point x="155" y="473"/>
      <point x="162" y="493"/>
      <point x="171" y="512" type="curve" smooth="yes"/>
      <point x="241" y="662"/>
      <point x="324" y="710"/>
      <point x="380" y="710" type="curve" smooth="yes"/>
      <point x="410" y="710"/>
      <point x="436" y="685"/>
      <point x="438" y="656" type="curve" smooth="yes"/>
      <point x="439" y="634"/>
      <point x="424" y="598"/>
      <point x="409" y="577" type="curve"/>
      <point x="392" y="558"/>
      <point x="386" y="557"/>
      <point x="380" y="561" type="curve"/>
      <point x="375" y="563"/>
      <point x="373" y="577"/>
      <point x="378" y="591" type="curve"/>
      <point x="389" y="610"/>
      <point x="381" y="658"/>
      <point x="349" y="658" type="curve" smooth="yes"/>
      <point x="334" y="658"/>
      <point x="323" y="654"/>
      <point x="306" y="641" type="curve"/>
      <point x="259" y="601"/>
      <point x="230" y="518"/>
      <point x="220" y="455" type="curve" smooth="yes"/>
      <point x="218" y="440"/>
      <point x="221" y="429"/>
      <point x="237" y="428" type="curve" smooth="yes"/>
      <point x="250" y="428"/>
      <point x="303" y="428"/>
      <point x="324" y="431" type="curve"/>
      <point x="359" y="438"/>
      <point x="376" y="428"/>
      <point x="360" y="404" type="curve" smooth="yes"/>
      <point x="343" y="379"/>
      <point x="336" y="376"/>
      <point x="307" y="380" type="curve"/>
      <point x="284" y="382"/>
      <point x="258" y="385"/>
      <point x="238" y="386" type="curve"/>
      <point x="216" y="386"/>
      <point x="210" y="382"/>
      <point x="205" y="367" type="curve" smooth="yes"/>
      <point x="188" y="310"/>
      <point x="146" y="152"/>
      <point x="132" y="105" type="curve" smooth="yes"/>
      <point x="119" y="62"/>
      <point x="99" y="-1"/>
      <point x="77" y="-48" type="curve"/>
      <point x="63" y="-82"/>
      <point x="16" y="-165"/>
      <point x="-36" y="-216" type="curve"/>
      <point x="-81" y="-258"/>
      <point x="-115" y="-276"/>
      <point x="-168" y="-276" type="curve" smooth="yes"/>
      <point x="-214" y="-276"/>
      <point x="-241" y="-250"/>
      <point x="-241" y="-212" type="curve"/>
      <point x="-242" y="-189"/>
      <point x="-218" y="-160"/>
      <point x="-194" y="-141" type="curve"/>
      <point x="-175" y="-124"/>
      <point x="-167" y="-123"/>
    </contour>
  </outline>
</glyph>
<glyph name="h" format="1">
  <advance width="468"/>
  <unicode hex="0068"/>
  <outline>
    <contour>
      <point x="19" y="8" type="curve" smooth="yes"/>
      <point x="91" y="201"/>
      <point x="136" y="374"/>
      <point x="185" y="583" type="curve" smooth="yes"/>
      <point x="189" y="599"/>
      <point x="199" y="641"/>
      <point x="176" y="641" type="curve" smooth="yes"/>
      <point x="159" y="641"/>
      <point x="147" y="638"/>
      <point x="124" y="635" type="curve" smooth="yes"/>
      <point x="105" y="632"/>
      <point x="98" y="638"/>
      <point x="98" y="646" type="curve" smooth="yes"/>
      <point x="98" y="654"/>
      <point x="102" y="657"/>
      <point x="120" y="661" type="curve"/>
      <point x="145" y="665"/>
      <point x="171" y="670"/>
      <point x="194" y="678" type="curve" smooth="yes"/>
      <point x="210" y="684"/>
      <point x="232" y="696"/>
      <point x="247" y="696" type="curve" smooth="yes"/>
      <point x="264" y="696"/>
      <point x="272" y="679"/>
      <point x="272" y="661" type="curve" smooth="yes"/>
      <point x="272" y="638"/>
      <point x="266" y="615"/>
      <point x="248" y="556" type="curve" smooth="yes"/>
      <point x="222" y="473"/>
      <point x="173" y="297"/>
      <point x="150" y="232" type="curve" smooth="yes"/>
      <point x="143" y="212"/>
      <point x="150" y="208"/>
      <point x="163" y="225" type="curve" smooth="yes"/>
      <point x="263" y="347"/>
      <point x="332" y="435"/>
      <point x="389" y="435" type="curve" smooth="yes"/>
      <point x="405" y="435"/>
      <point x="412" y="423"/>
      <point x="410" y="400" type="curve" smooth="yes"/>
      <point x="407" y="367"/>
      <point x="389" y="327"/>
      <point x="376" y="286" type="curve" smooth="yes"/>
      <point x="359" y="231"/>
      <point x="336" y="157"/>
      <point x="333" y="126" type="curve" smooth="yes"/>
      <point x="330" y="88"/>
      <point x="328" y="47"/>
      <point x="359" y="77" type="curve" smooth="yes"/>
      <point x="375" y="92"/>
      <point x="400" y="120"/>
      <point x="407" y="129" type="curve" smooth="yes"/>
      <point x="416" y="141"/>
      <point x="425" y="141"/>
      <point x="430" y="138" type="curve" smooth="yes"/>
      <point x="435" y="135"/>
      <point x="439" y="131"/>
      <point x="427" y="114" type="curve" smooth="yes"/>
      <point x="392" y="68"/>
      <point x="374" y="45"/>
      <point x="334" y="8" type="curve" smooth="yes"/>
      <point x="318" y="-7"/>
      <point x="306" y="-17"/>
      <point x="288" y="-17" type="curve" smooth="yes"/>
      <point x="274" y="-17"/>
      <point x="252" y="-10"/>
      <point x="257" y="53" type="curve" smooth="yes"/>
      <point x="258" y="66"/>
      <point x="271" y="137"/>
      <point x="285" y="179" type="curve" smooth="yes"/>
      <point x="294" y="208"/>
      <point x="298" y="219"/>
      <point x="313" y="271" type="curve" smooth="yes"/>
      <point x="319" y="290"/>
      <point x="321" y="306"/>
      <point x="321" y="310" type="curve" smooth="yes"/>
      <point x="323" y="327"/>
      <point x="316" y="338"/>
      <point x="310" y="338" type="curve" smooth="yes"/>
      <point x="290" y="338"/>
      <point x="252" y="291"/>
      <point x="247" y="285" type="curve" smooth="yes"/>
      <point x="201" y="239"/>
      <point x="159" y="188"/>
      <point x="120" y="119" type="curve" smooth="yes"/>
      <point x="108" y="98"/>
      <point x="88" y="50"/>
      <point x="72" y="22" type="curve"/>
      <point x="51" y="-8"/>
      <point x="48" y="-14"/>
      <point x="30" y="-18" type="curve"/>
      <point x="11" y="-21"/>
      <point x="9" y="-16"/>
    </contour>
  </outline>
</glyph>
<glyph name="i" format="1">
  <advance width="257"/>
  <unicode hex="0069"/>
  <outline>
    <contour>
      <point x="222" y="140" type="curve" smooth="yes"/>
      <point x="227" y="136"/>
      <point x="228" y="125"/>
      <point x="222" y="116" type="curve" smooth="yes"/>
      <point x="209" y="95"/>
      <point x="152" y="31"/>
      <point x="129" y="9" type="curve"/>
      <point x="116" y="-2"/>
      <point x="104" y="-9"/>
      <point x="88" y="-9" type="curve" smooth="yes"/>
      <point x="61" y="-9"/>
      <point x="51" y="22"/>
      <point x="51" y="53" type="curve" smooth="yes"/>
      <point x="51" y="106"/>
      <point x="90" y="216"/>
      <point x="129" y="304" type="curve" smooth="yes"/>
      <point x="138" y="326"/>
      <point x="138" y="351"/>
      <point x="126" y="351" type="curve" smooth="yes"/>
      <point x="108" y="351"/>
      <point x="81" y="318"/>
      <point x="64" y="300" type="curve" smooth="yes"/>
      <point x="54" y="290"/>
      <point x="49" y="290"/>
      <point x="45" y="293" type="curve" smooth="yes"/>
      <point x="38" y="297"/>
      <point x="40" y="306"/>
      <point x="44" y="313" type="curve" smooth="yes"/>
      <point x="55" y="329"/>
      <point x="94" y="368"/>
      <point x="114" y="386" type="curve" smooth="yes"/>
      <point x="141" y="410"/>
      <point x="164" y="430"/>
      <point x="186" y="430" type="curve" smooth="yes"/>
      <point x="201" y="430"/>
      <point x="211" y="419"/>
      <point x="211" y="381" type="curve" smooth="yes"/>
      <point x="211" y="334"/>
      <point x="133" y="180"/>
      <point x="126" y="109" type="curve" smooth="yes"/>
      <point x="124" y="84"/>
      <point x="127" y="65"/>
      <point x="138" y="65" type="curve" smooth="yes"/>
      <point x="152" y="66"/>
      <point x="188" y="112"/>
      <point x="203" y="130" type="curve" smooth="yes"/>
      <point x="207" y="135"/>
      <point x="216" y="145"/>
    </contour>
    <contour>
      <point x="269" y="600" type="curve" smooth="yes"/>
      <point x="267" y="572"/>
      <point x="237" y="547"/>
      <point x="211" y="547" type="curve" smooth="yes"/>
      <point x="197" y="547"/>
      <point x="192" y="559"/>
      <point x="194" y="575" type="curve"/>
      <point x="195" y="609"/>
      <point x="216" y="632"/>
      <point x="244" y="632" type="curve" smooth="yes"/>
      <point x="261" y="632"/>
      <point x="270" y="622"/>
    </contour>
  </outline>
</glyph>
<glyph name="j" format="1">
  <advance width="248"/>
  <unicode hex="006A"/>
  <outline>
    <contour>
      <point x="189" y="268" type="curve" smooth="yes"/>
      <point x="147" y="132"/>
      <point x="133" y="78"/>
      <point x="87" y="-40" type="curve" smooth="yes"/>
      <point x="69" y="-86"/>
      <point x="38" y="-151"/>
      <point x="-26" y="-220" type="curve" smooth="yes"/>
      <point x="-51" y="-247"/>
      <point x="-91" y="-279"/>
      <point x="-141" y="-279" type="curve" smooth="yes"/>
      <point x="-176" y="-279"/>
      <point x="-199" y="-263"/>
      <point x="-199" y="-217" type="curve" smooth="yes"/>
      <point x="-199" y="-193"/>
      <point x="-176" y="-154"/>
      <point x="-147" y="-130" type="curve" smooth="yes"/>
      <point x="-127" y="-114"/>
      <point x="-110" y="-114"/>
      <point x="-105" y="-118" type="curve" smooth="yes"/>
      <point x="-100" y="-122"/>
      <point x="-102" y="-128"/>
      <point x="-112" y="-141" type="curve" smooth="yes"/>
      <point x="-123" y="-156"/>
      <point x="-130" y="-173"/>
      <point x="-130" y="-192" type="curve" smooth="yes"/>
      <point x="-130" y="-210"/>
      <point x="-120" y="-222"/>
      <point x="-100" y="-222" type="curve" smooth="yes"/>
      <point x="-68" y="-222"/>
      <point x="-33" y="-184"/>
      <point x="-21" y="-168" type="curve" smooth="yes"/>
      <point x="5" y="-136"/>
      <point x="24" y="-83"/>
      <point x="44" y="-24" type="curve"/>
      <point x="77" y="81"/>
      <point x="109" y="217"/>
      <point x="130" y="304" type="curve" smooth="yes"/>
      <point x="136" y="327"/>
      <point x="140" y="351"/>
      <point x="128" y="351" type="curve" smooth="yes"/>
      <point x="113" y="351"/>
      <point x="83" y="317"/>
      <point x="66" y="299" type="curve"/>
      <point x="56" y="290"/>
      <point x="51" y="295"/>
      <point x="46" y="297" type="curve"/>
      <point x="40" y="301"/>
      <point x="40" y="306"/>
      <point x="45" y="314" type="curve" smooth="yes"/>
      <point x="57" y="330"/>
      <point x="97" y="369"/>
      <point x="116" y="386" type="curve" smooth="yes"/>
      <point x="144" y="412"/>
      <point x="166" y="432"/>
      <point x="188" y="432" type="curve" smooth="yes"/>
      <point x="203" y="432"/>
      <point x="213" y="421"/>
      <point x="213" y="383" type="curve" smooth="yes"/>
      <point x="213" y="362"/>
      <point x="203" y="315"/>
    </contour>
    <contour>
      <point x="273" y="602" type="curve" smooth="yes"/>
      <point x="271" y="572"/>
      <point x="239" y="547"/>
      <point x="214" y="547" type="curve" smooth="yes"/>
      <point x="199" y="547"/>
      <point x="194" y="559"/>
      <point x="196" y="576" type="curve" smooth="yes"/>
      <point x="198" y="610"/>
      <point x="220" y="634"/>
      <point x="247" y="634" type="curve" smooth="yes"/>
      <point x="264" y="634"/>
      <point x="274" y="624"/>
    </contour>
  </outline>
</glyph>
<glyph name="k" format="1">
  <advance width="452"/>
  <unicode hex="006B"/>
  <outline>
    <contour>
      <point x="98" y="649" type="curve" smooth="yes"/>
      <point x="98" y="657"/>
      <point x="102" y="660"/>
      <point x="120" y="663" type="curve" smooth="yes"/>
      <point x="145" y="668"/>
      <point x="171" y="673"/>
      <point x="194" y="681" type="curve" smooth="yes"/>
      <point x="210" y="686"/>
      <point x="232" y="699"/>
      <point x="247" y="699" type="curve" smooth="yes"/>
      <point x="264" y="699"/>
      <point x="272" y="682"/>
      <point x="272" y="663" type="curve" smooth="yes"/>
      <point x="272" y="641"/>
      <point x="266" y="618"/>
      <point x="248" y="559" type="curve" smooth="yes"/>
      <point x="222" y="476"/>
      <point x="173" y="300"/>
      <point x="150" y="235" type="curve" smooth="yes"/>
      <point x="143" y="215"/>
      <point x="150" y="210"/>
      <point x="163" y="227" type="curve" smooth="yes"/>
      <point x="199" y="272"/>
      <point x="234" y="324"/>
      <point x="268" y="362" type="curve" smooth="yes"/>
      <point x="293" y="391"/>
      <point x="333" y="428"/>
      <point x="363" y="428" type="curve" smooth="yes"/>
      <point x="398" y="428"/>
      <point x="412" y="406"/>
      <point x="412" y="386" type="curve" smooth="yes"/>
      <point x="412" y="353"/>
      <point x="394" y="317"/>
      <point x="364" y="291" type="curve" smooth="yes"/>
      <point x="351" y="279"/>
      <point x="311" y="247"/>
      <point x="297" y="234" type="curve"/>
      <point x="276" y="218"/>
      <point x="277" y="213"/>
      <point x="275" y="202" type="curve" smooth="yes"/>
      <point x="270" y="169"/>
      <point x="274" y="118"/>
      <point x="295" y="88" type="curve" smooth="yes"/>
      <point x="305" y="73"/>
      <point x="313" y="71"/>
      <point x="323" y="70" type="curve" smooth="yes"/>
      <point x="330" y="70"/>
      <point x="343" y="77"/>
      <point x="351" y="83" type="curve"/>
      <point x="367" y="98"/>
      <point x="376" y="107"/>
      <point x="387" y="116" type="curve" smooth="yes"/>
      <point x="402" y="129"/>
      <point x="412" y="127"/>
      <point x="416" y="122" type="curve"/>
      <point x="422" y="117"/>
      <point x="414" y="106"/>
      <point x="404" y="94" type="curve" smooth="yes"/>
      <point x="375" y="62"/>
      <point x="345" y="37"/>
      <point x="306" y="3" type="curve" smooth="yes"/>
      <point x="300" y="-3"/>
      <point x="290" y="-10"/>
      <point x="271" y="-10" type="curve" smooth="yes"/>
      <point x="263" y="-10"/>
      <point x="252" y="0"/>
      <point x="246" y="9" type="curve" smooth="yes"/>
      <point x="219" y="51"/>
      <point x="210" y="128"/>
      <point x="212" y="179" type="curve" smooth="yes"/>
      <point x="212" y="193"/>
      <point x="217" y="200"/>
      <point x="230" y="211" type="curve"/>
      <point x="264" y="236"/>
      <point x="310" y="274"/>
      <point x="332" y="295" type="curve"/>
      <point x="343" y="307"/>
      <point x="358" y="327"/>
      <point x="358" y="343" type="curve" smooth="yes"/>
      <point x="358" y="355"/>
      <point x="352" y="368"/>
      <point x="337" y="368" type="curve" smooth="yes"/>
      <point x="299" y="368"/>
      <point x="263" y="317"/>
      <point x="239" y="291" type="curve" smooth="yes"/>
      <point x="230" y="282"/>
      <point x="221" y="268"/>
      <point x="216" y="263" type="curve"/>
      <point x="208" y="251"/>
      <point x="181" y="215"/>
      <point x="174" y="205" type="curve" smooth="yes"/>
      <point x="156" y="179"/>
      <point x="138" y="152"/>
      <point x="120" y="121" type="curve" smooth="yes"/>
      <point x="108" y="101"/>
      <point x="88" y="57"/>
      <point x="72" y="29" type="curve"/>
      <point x="51" y="-1"/>
      <point x="48" y="-7"/>
      <point x="30" y="-10" type="curve" smooth="yes"/>
      <point x="11" y="-13"/>
      <point x="9" y="-8"/>
      <point x="19" y="16" type="curve" smooth="yes"/>
      <point x="91" y="209"/>
      <point x="137" y="378"/>
      <point x="186" y="588" type="curve" smooth="yes"/>
      <point x="189" y="604"/>
      <point x="199" y="646"/>
      <point x="177" y="646" type="curve" smooth="yes"/>
      <point x="160" y="646"/>
      <point x="148" y="642"/>
      <point x="125" y="639" type="curve" smooth="yes"/>
      <point x="106" y="636"/>
      <point x="98" y="641"/>
    </contour>
  </outline>
</glyph>
<glyph name="m" format="1">
  <advance width="732"/>
  <unicode hex="006D"/>
  <outline>
    <contour>
      <point x="35" y="303" type="curve" smooth="yes"/>
      <point x="27" y="306"/>
      <point x="34" y="317"/>
      <point x="41" y="326" type="curve"/>
      <point x="75" y="359"/>
      <point x="119" y="398"/>
      <point x="143" y="416" type="curve" smooth="yes"/>
      <point x="162" y="431"/>
      <point x="173" y="436"/>
      <point x="184" y="436" type="curve" smooth="yes"/>
      <point x="211" y="436"/>
      <point x="214" y="407"/>
      <point x="213" y="375" type="curve" smooth="yes"/>
      <point x="210" y="314"/>
      <point x="194" y="272"/>
      <point x="181" y="232" type="curve" smooth="yes"/>
      <point x="174" y="212"/>
      <point x="183" y="208"/>
      <point x="194" y="225" type="curve"/>
      <point x="291" y="347"/>
      <point x="357" y="435"/>
      <point x="413" y="435" type="curve" smooth="yes"/>
      <point x="429" y="435"/>
      <point x="438" y="423"/>
      <point x="435" y="400" type="curve"/>
      <point x="434" y="367"/>
      <point x="419" y="327"/>
      <point x="408" y="286" type="curve" smooth="yes"/>
      <point x="399" y="253"/>
      <point x="399" y="254"/>
      <point x="393" y="223" type="curve" smooth="yes"/>
      <point x="391" y="208"/>
      <point x="399" y="205"/>
      <point x="407" y="217" type="curve"/>
      <point x="458" y="272"/>
      <point x="545" y="431"/>
      <point x="636" y="431" type="curve" smooth="yes"/>
      <point x="652" y="431"/>
      <point x="665" y="412"/>
      <point x="656" y="382" type="curve"/>
      <point x="629" y="303"/>
      <point x="598" y="196"/>
      <point x="591" y="137" type="curve" smooth="yes"/>
      <point x="586" y="98"/>
      <point x="588" y="79"/>
      <point x="610" y="79" type="curve" smooth="yes"/>
      <point x="621" y="79"/>
      <point x="629" y="85"/>
      <point x="638" y="95" type="curve" smooth="yes"/>
      <point x="666" y="124" type="line"/>
      <point x="678" y="138"/>
      <point x="689" y="146"/>
      <point x="697" y="137" type="curve" smooth="yes"/>
      <point x="705" y="127"/>
      <point x="685" y="112"/>
      <point x="679" y="104" type="curve" smooth="yes"/>
      <point x="667" y="86"/>
      <point x="629" y="49"/>
      <point x="597" y="19" type="curve" smooth="yes"/>
      <point x="572" y="-5"/>
      <point x="560" y="-13"/>
      <point x="545" y="-13" type="curve" smooth="yes"/>
      <point x="492" y="-13"/>
      <point x="506" y="70"/>
      <point x="517" y="109" type="curve" smooth="yes"/>
      <point x="539" y="182"/>
      <point x="549" y="219"/>
      <point x="566" y="285" type="curve" smooth="yes"/>
      <point x="571" y="307"/>
      <point x="573" y="341"/>
      <point x="559" y="341" type="curve" smooth="yes"/>
      <point x="545" y="340"/>
      <point x="523" y="318"/>
      <point x="509" y="303" type="curve" smooth="yes"/>
      <point x="468" y="258"/>
      <point x="397" y="168"/>
      <point x="380" y="126" type="curve"/>
      <point x="365" y="99"/>
      <point x="346" y="57"/>
      <point x="330" y="17" type="curve" smooth="yes"/>
      <point x="322" y="-3"/>
      <point x="312" y="-11"/>
      <point x="301" y="-14" type="curve" smooth="yes"/>
      <point x="278" y="-19"/>
      <point x="275" y="-18"/>
      <point x="283" y="5" type="curve"/>
      <point x="315" y="116"/>
      <point x="328" y="181"/>
      <point x="347" y="277" type="curve"/>
      <point x="348" y="295"/>
      <point x="357" y="338"/>
      <point x="338" y="338" type="curve" smooth="yes"/>
      <point x="318" y="338"/>
      <point x="281" y="291"/>
      <point x="275" y="285" type="curve" smooth="yes"/>
      <point x="232" y="238"/>
      <point x="192" y="188"/>
      <point x="156" y="119" type="curve" smooth="yes"/>
      <point x="144" y="98"/>
      <point x="125" y="53"/>
      <point x="109" y="25" type="curve" smooth="yes"/>
      <point x="91" y="-5"/>
      <point x="87" y="-11"/>
      <point x="70" y="-14" type="curve" smooth="yes"/>
      <point x="51" y="-18"/>
      <point x="49" y="-13"/>
      <point x="58" y="12" type="curve" smooth="yes"/>
      <point x="87" y="100"/>
      <point x="107" y="172"/>
      <point x="129" y="261" type="curve" smooth="yes"/>
      <point x="135" y="286"/>
      <point x="136" y="309"/>
      <point x="138" y="319" type="curve"/>
      <point x="138" y="338"/>
      <point x="132" y="351"/>
      <point x="116" y="351" type="curve" smooth="yes"/>
      <point x="101" y="351"/>
      <point x="73" y="326"/>
      <point x="59" y="312" type="curve"/>
      <point x="50" y="306"/>
      <point x="40" y="301"/>
    </contour>
  </outline>
</glyph>
<glyph name="o" format="1">
  <advance width="371"/>
  <unicode hex="006F"/>
  <outline>
    <contour>
      <point x="118" y="-7" type="curve" smooth="yes"/>
      <point x="55" y="-7"/>
      <point x="39" y="72"/>
      <point x="40" y="132" type="curve" smooth="yes"/>
      <point x="41" y="264"/>
      <point x="152" y="439"/>
      <point x="268" y="439" type="curve" smooth="yes"/>
      <point x="333" y="439"/>
      <point x="339" y="353"/>
      <point x="338" y="318" type="curve" smooth="yes"/>
      <point x="337" y="174"/>
      <point x="223" y="-7"/>
    </contour>
    <contour>
      <point x="223" y="389" type="curve" smooth="yes"/>
      <point x="168" y="389"/>
      <point x="109" y="242"/>
      <point x="108" y="160" type="curve" smooth="yes"/>
      <point x="107" y="93"/>
      <point x="116" y="48"/>
      <point x="157" y="48" type="curve" smooth="yes"/>
      <point x="199" y="48"/>
      <point x="274" y="149"/>
      <point x="274" y="288" type="curve" smooth="yes"/>
      <point x="274" y="335"/>
      <point x="265" y="389"/>
    </contour>
  </outline>
</glyph>
<glyph name="p" format="1">
  <advance width="460"/>
  <unicode hex="0070"/>
  <outline>
    <contour>
      <point x="28" y="287" type="curve" smooth="yes"/>
      <point x="22" y="290"/>
      <point x="26" y="303"/>
      <point x="34" y="311" type="curve" smooth="yes"/>
      <point x="70" y="351"/>
      <point x="115" y="395"/>
      <point x="146" y="419" type="curve" smooth="yes"/>
      <point x="172" y="439"/>
      <point x="180" y="442"/>
      <point x="189" y="442" type="curve" smooth="yes"/>
      <point x="234" y="442"/>
      <point x="213" y="375"/>
      <point x="205" y="343" type="curve"/>
      <point x="199" y="327"/>
      <point x="191" y="292"/>
      <point x="188" y="279" type="curve" smooth="yes"/>
      <point x="182" y="255"/>
      <point x="196" y="262"/>
      <point x="205" y="271" type="curve"/>
      <point x="229" y="301"/>
      <point x="248" y="328"/>
      <point x="270" y="353" type="curve"/>
      <point x="311" y="395"/>
      <point x="349" y="439"/>
      <point x="392" y="439" type="curve" smooth="yes"/>
      <point x="413" y="439"/>
      <point x="434" y="422"/>
      <point x="431" y="341" type="curve"/>
      <point x="425" y="231"/>
      <point x="318" y="40"/>
      <point x="197" y="-1" type="curve" smooth="yes"/>
      <point x="181" y="-6"/>
      <point x="159" y="-1"/>
      <point x="144" y="-1" type="curve" smooth="yes"/>
      <point x="128" y="-1"/>
      <point x="125" y="-8"/>
      <point x="120" y="-26" type="curve" smooth="yes"/>
      <point x="103" y="-96"/>
      <point x="94" y="-133"/>
      <point x="66" y="-187" type="curve" smooth="yes"/>
      <point x="50" y="-219"/>
      <point x="23" y="-269"/>
      <point x="9" y="-285" type="curve"/>
      <point x="3" y="-294"/>
      <point x="-2" y="-295"/>
      <point x="-3" y="-295" type="curve" smooth="yes"/>
      <point x="-9" y="-295"/>
      <point x="-8" y="-286"/>
      <point x="-4" y="-273" type="curve" smooth="yes"/>
      <point x="57" y="-90"/>
      <point x="92" y="112"/>
      <point x="123" y="298" type="curve"/>
      <point x="129" y="323"/>
      <point x="132" y="341"/>
      <point x="110" y="341" type="curve" smooth="yes"/>
      <point x="101" y="341"/>
      <point x="80" y="325"/>
      <point x="50" y="298" type="curve" smooth="yes"/>
      <point x="42" y="290"/>
      <point x="35" y="283"/>
    </contour>
    <contour>
      <point x="336" y="363" type="curve" smooth="yes"/>
      <point x="322" y="364"/>
      <point x="310" y="354"/>
      <point x="298" y="343" type="curve" smooth="yes"/>
      <point x="237" y="285"/>
      <point x="182" y="205"/>
      <point x="156" y="126" type="curve" smooth="yes"/>
      <point x="149" y="106"/>
      <point x="146" y="89"/>
      <point x="141" y="64" type="curve" smooth="yes"/>
      <point x="139" y="55"/>
      <point x="138" y="50"/>
      <point x="148" y="46" type="curve"/>
      <point x="156" y="44"/>
      <point x="187" y="41"/>
      <point x="194" y="41" type="curve" smooth="yes"/>
      <point x="291" y="41"/>
      <point x="354" y="220"/>
      <point x="357" y="312" type="curve" smooth="yes"/>
      <point x="359" y="346"/>
      <point x="347" y="362"/>
    </contour>
  </outline>
</glyph>
<glyph name="q" format="1">
  <advance width="411"/>
  <unicode hex="0071"/>
  <outline>
    <contour>
      <point x="418" y="486" type="curve" smooth="yes"/>
      <point x="423" y="484"/>
      <point x="419" y="471"/>
      <point x="415" y="460" type="curve" smooth="yes"/>
      <point x="362" y="343"/>
      <point x="290" y="55"/>
      <point x="267" y="-56" type="curve"/>
      <point x="258" y="-107"/>
      <point x="251" y="-197"/>
      <point x="279" y="-197" type="curve" smooth="yes"/>
      <point x="285" y="-197"/>
      <point x="292" y="-198"/>
      <point x="301" y="-191" type="curve" smooth="yes"/>
      <point x="314" y="-181"/>
      <point x="322" y="-176"/>
      <point x="328" y="-184" type="curve" smooth="yes"/>
      <point x="331" y="-187"/>
      <point x="333" y="-194"/>
      <point x="322" y="-203" type="curve" smooth="yes"/>
      <point x="283" y="-234"/>
      <point x="236" y="-275"/>
      <point x="191" y="-275" type="curve" smooth="yes"/>
      <point x="174" y="-275"/>
      <point x="173" y="-251"/>
      <point x="173" y="-230" type="curve" smooth="yes"/>
      <point x="173" y="-162"/>
      <point x="190" y="-99"/>
      <point x="202" y="-53" type="curve" smooth="yes"/>
      <point x="251" y="130" type="line" smooth="yes"/>
      <point x="253" y="141"/>
      <point x="254" y="146"/>
      <point x="251" y="148" type="curve" smooth="yes"/>
      <point x="247" y="150"/>
      <point x="242" y="146"/>
      <point x="236" y="138" type="curve" smooth="yes"/>
      <point x="218" y="114"/>
      <point x="135" y="26"/>
      <point x="108" y="6" type="curve" smooth="yes"/>
      <point x="93" y="-4"/>
      <point x="82" y="-8"/>
      <point x="71" y="-8" type="curve" smooth="yes"/>
      <point x="51" y="-8"/>
      <point x="37" y="15"/>
      <point x="37" y="71" type="curve" smooth="yes"/>
      <point x="37" y="211"/>
      <point x="154" y="387"/>
      <point x="247" y="428" type="curve"/>
      <point x="258" y="434"/>
      <point x="278" y="434"/>
      <point x="289" y="430" type="curve" smooth="yes"/>
      <point x="303" y="425"/>
      <point x="311" y="422"/>
      <point x="327" y="413" type="curve" smooth="yes"/>
      <point x="338" y="407"/>
      <point x="344" y="408"/>
      <point x="359" y="422" type="curve"/>
      <point x="375" y="439"/>
      <point x="385" y="453"/>
      <point x="395" y="467" type="curve"/>
      <point x="406" y="485"/>
      <point x="411" y="488"/>
    </contour>
    <contour>
      <point x="146" y="77" type="curve" smooth="yes"/>
      <point x="187" y="111"/>
      <point x="216" y="148"/>
      <point x="256" y="205" type="curve" smooth="yes"/>
      <point x="279" y="239"/>
      <point x="308" y="301"/>
      <point x="311" y="346" type="curve" smooth="yes"/>
      <point x="312" y="361"/>
      <point x="306" y="370"/>
      <point x="296" y="377" type="curve" smooth="yes"/>
      <point x="287" y="384"/>
      <point x="275" y="389"/>
      <point x="262" y="391" type="curve" smooth="yes"/>
      <point x="238" y="396"/>
      <point x="221" y="380"/>
      <point x="208" y="366" type="curve" smooth="yes"/>
      <point x="151" y="299"/>
      <point x="108" y="214"/>
      <point x="108" y="114" type="curve" smooth="yes"/>
      <point x="108" y="78"/>
      <point x="114" y="50"/>
    </contour>
  </outline>
</glyph>
<glyph name="s" format="1">
  <advance width="290"/>
  <unicode hex="0073"/>
  <outline>
    <contour>
      <point x="70" y="-10" type="curve" smooth="yes"/>
      <point x="45" y="-10"/>
      <point x="26" y="4"/>
      <point x="26" y="30" type="curve" smooth="yes"/>
      <point x="26" y="66"/>
      <point x="46" y="99"/>
      <point x="69" y="120" type="curve" smooth="yes"/>
      <point x="82" y="132"/>
      <point x="88" y="136"/>
      <point x="93" y="130" type="curve"/>
      <point x="99" y="125"/>
      <point x="96" y="120"/>
      <point x="91" y="114" type="curve" smooth="yes"/>
      <point x="82" y="102"/>
      <point x="77" y="88"/>
      <point x="77" y="71" type="curve" smooth="yes"/>
      <point x="77" y="56"/>
      <point x="83" y="39"/>
      <point x="107" y="39" type="curve" smooth="yes"/>
      <point x="132" y="39"/>
      <point x="152" y="56"/>
      <point x="165" y="75" type="curve"/>
      <point x="182" y="97"/>
      <point x="194" y="148"/>
      <point x="194" y="192" type="curve" smooth="yes"/>
      <point x="194" y="246"/>
      <point x="178" y="303"/>
      <point x="163" y="345" type="curve" smooth="yes"/>
      <point x="160" y="355"/>
      <point x="159" y="355"/>
      <point x="151" y="351" type="curve"/>
      <point x="125" y="326" type="line"/>
      <point x="117" y="316"/>
      <point x="109" y="306"/>
      <point x="104" y="298" type="curve"/>
      <point x="93" y="287"/>
      <point x="84" y="284"/>
      <point x="74" y="294" type="curve" smooth="yes"/>
      <point x="67" y="301"/>
      <point x="70" y="315"/>
      <point x="89" y="332" type="curve" smooth="yes"/>
      <point x="120" y="360"/>
      <point x="171" y="414"/>
      <point x="192" y="440" type="curve" smooth="yes"/>
      <point x="196" y="445"/>
      <point x="210" y="463"/>
      <point x="218" y="475" type="curve"/>
      <point x="225" y="483"/>
      <point x="230" y="483"/>
      <point x="235" y="481" type="curve"/>
      <point x="240" y="476"/>
      <point x="242" y="473"/>
      <point x="234" y="461" type="curve" smooth="yes"/>
      <point x="219" y="439"/>
      <point x="208" y="403"/>
      <point x="221" y="369" type="curve" smooth="yes"/>
      <point x="234" y="336"/>
      <point x="243" y="275"/>
      <point x="243" y="237" type="curve" smooth="yes"/>
      <point x="243" y="140"/>
      <point x="189" y="-10"/>
    </contour>
  </outline>
</glyph>
<glyph name="t" format="1">
  <advance width="292"/>
  <unicode hex="0074"/>
  <outline>
    <contour>
      <point x="99" y="-9" type="curve" smooth="yes"/>
      <point x="43" y="-9"/>
      <point x="48" y="106"/>
      <point x="54" y="136" type="curve" smooth="yes"/>
      <point x="66" y="204"/>
      <point x="89" y="285"/>
      <point x="111" y="364" type="curve" smooth="yes"/>
      <point x="118" y="389"/>
      <point x="120" y="391"/>
      <point x="110" y="392" type="curve" smooth="yes"/>
      <point x="104" y="393"/>
      <point x="93" y="395"/>
      <point x="76" y="393" type="curve" smooth="yes"/>
      <point x="66" y="392"/>
      <point x="62" y="396"/>
      <point x="69" y="413" type="curve" smooth="yes"/>
      <point x="73" y="423"/>
      <point x="80" y="424"/>
      <point x="114" y="427" type="curve" smooth="yes"/>
      <point x="131" y="428"/>
      <point x="136" y="430"/>
      <point x="148" y="448" type="curve"/>
      <point x="173" y="481"/>
      <point x="193" y="521"/>
      <point x="210" y="553" type="curve" smooth="yes"/>
      <point x="216" y="565"/>
      <point x="222" y="569"/>
      <point x="229" y="566" type="curve"/>
      <point x="236" y="565"/>
      <point x="234" y="552"/>
      <point x="232" y="549" type="curve" smooth="yes"/>
      <point x="226" y="535"/>
      <point x="203" y="453"/>
      <point x="200" y="444" type="curve"/>
      <point x="198" y="434"/>
      <point x="196" y="431"/>
      <point x="215" y="429" type="curve" smooth="yes"/>
      <point x="233" y="428"/>
      <point x="261" y="428"/>
      <point x="270" y="429" type="curve" smooth="yes"/>
      <point x="289" y="431"/>
      <point x="301" y="435"/>
      <point x="309" y="433" type="curve"/>
      <point x="316" y="429"/>
      <point x="313" y="423"/>
      <point x="308" y="414" type="curve" smooth="yes"/>
      <point x="303" y="406"/>
      <point x="301" y="404"/>
      <point x="289" y="392" type="curve"/>
      <point x="280" y="386"/>
      <point x="274" y="383"/>
      <point x="254" y="386" type="curve"/>
      <point x="235" y="390"/>
      <point x="218" y="391"/>
      <point x="197" y="391" type="curve" smooth="yes"/>
      <point x="189" y="391"/>
      <point x="187" y="395"/>
      <point x="181" y="382" type="curve"/>
      <point x="165" y="353"/>
      <point x="141" y="258"/>
      <point x="129" y="199" type="curve" smooth="yes"/>
      <point x="124" y="170"/>
      <point x="108" y="61"/>
      <point x="147" y="61" type="curve" smooth="yes"/>
      <point x="156" y="61"/>
      <point x="162" y="66"/>
      <point x="179" y="80" type="curve" smooth="yes"/>
      <point x="196" y="94"/>
      <point x="211" y="110"/>
      <point x="223" y="122" type="curve" smooth="yes"/>
      <point x="235" y="135"/>
      <point x="239" y="131"/>
      <point x="245" y="128" type="curve"/>
      <point x="252" y="123"/>
      <point x="247" y="113"/>
      <point x="242" y="106" type="curve" smooth="yes"/>
      <point x="222" y="81"/>
      <point x="194" y="52"/>
      <point x="163" y="27" type="curve" smooth="yes"/>
      <point x="142" y="9"/>
      <point x="121" y="-9"/>
    </contour>
  </outline>
</glyph>
<glyph name="v" format="1">
  <advance width="391"/>
  <unicode hex="0076"/>
  <outline>
    <contour>
      <point x="103" y="-10" type="curve" smooth="yes"/>
      <point x="77" y="-10"/>
      <point x="63" y="18"/>
      <point x="60" y="46" type="curve"/>
      <point x="58" y="76"/>
      <point x="64" y="110"/>
      <point x="67" y="136" type="curve"/>
      <point x="74" y="178"/>
      <point x="102" y="269"/>
      <point x="108" y="316" type="curve" smooth="yes"/>
      <point x="110" y="333"/>
      <point x="106" y="338"/>
      <point x="98" y="338" type="curve" smooth="yes"/>
      <point x="85" y="338"/>
      <point x="51" y="299"/>
      <point x="41" y="291" type="curve"/>
      <point x="36" y="285"/>
      <point x="28" y="285"/>
      <point x="22" y="290" type="curve" smooth="yes"/>
      <point x="15" y="296"/>
      <point x="20" y="303"/>
      <point x="29" y="315" type="curve"/>
      <point x="84" y="375"/>
      <point x="98" y="384"/>
      <point x="131" y="413" type="curve" smooth="yes"/>
      <point x="139" y="421"/>
      <point x="160" y="435"/>
      <point x="174" y="435" type="curve" smooth="yes"/>
      <point x="206" y="435"/>
      <point x="184" y="374"/>
      <point x="178" y="359" type="curve" smooth="yes"/>
      <point x="169" y="334"/>
      <point x="129" y="174"/>
      <point x="128" y="141" type="curve" smooth="yes"/>
      <point x="127" y="89"/>
      <point x="136" y="59"/>
      <point x="154" y="59" type="curve" smooth="yes"/>
      <point x="164" y="59"/>
      <point x="188" y="66"/>
      <point x="221" y="111" type="curve"/>
      <point x="261" y="163"/>
      <point x="302" y="238"/>
      <point x="313" y="284" type="curve"/>
      <point x="320" y="302"/>
      <point x="321" y="331"/>
      <point x="316" y="344" type="curve" smooth="yes"/>
      <point x="311" y="359"/>
      <point x="304" y="369"/>
      <point x="295" y="369" type="curve" smooth="yes"/>
      <point x="281" y="369"/>
      <point x="269" y="362"/>
      <point x="261" y="353" type="curve" smooth="yes"/>
      <point x="256" y="346"/>
      <point x="247" y="340"/>
      <point x="241" y="342" type="curve" smooth="yes"/>
      <point x="235" y="343"/>
      <point x="235" y="354"/>
      <point x="238" y="360" type="curve" smooth="yes"/>
      <point x="241" y="364"/>
      <point x="253" y="382"/>
      <point x="277" y="407" type="curve"/>
      <point x="295" y="421"/>
      <point x="318" y="436"/>
      <point x="336" y="436" type="curve" smooth="yes"/>
      <point x="389" y="436"/>
      <point x="390" y="383"/>
      <point x="374" y="326" type="curve"/>
      <point x="343" y="224"/>
      <point x="273" y="135"/>
      <point x="213" y="65" type="curve" smooth="yes"/>
      <point x="194" y="44"/>
      <point x="139" y="-10"/>
    </contour>
  </outline>
</glyph>
<glyph name="w" format="1">
  <advance width="637"/>
  <unicode hex="0077"/>
  <outline>
    <contour>
      <point x="34" y="299" type="curve" smooth="yes"/>
      <point x="27" y="307"/>
      <point x="32" y="322"/>
      <point x="61" y="346" type="curve"/>
      <point x="91" y="373"/>
      <point x="154" y="434"/>
      <point x="181" y="434" type="curve" smooth="yes"/>
      <point x="195" y="434"/>
      <point x="205" y="418"/>
      <point x="205" y="395" type="curve" smooth="yes"/>
      <point x="205" y="375"/>
      <point x="194" y="346"/>
      <point x="188" y="327" type="curve" smooth="yes"/>
      <point x="166" y="263"/>
      <point x="142" y="184"/>
      <point x="140" y="116" type="curve" smooth="yes"/>
      <point x="139" y="97"/>
      <point x="141" y="56"/>
      <point x="158" y="56" type="curve" smooth="yes"/>
      <point x="173" y="56"/>
      <point x="197" y="82"/>
      <point x="218" y="109" type="curve" smooth="yes"/>
      <point x="299" y="215"/>
      <point x="314" y="263"/>
      <point x="348" y="366" type="curve" smooth="yes"/>
      <point x="353" y="382"/>
      <point x="368" y="402"/>
      <point x="379" y="411" type="curve" smooth="yes"/>
      <point x="384" y="415"/>
      <point x="408" y="434"/>
      <point x="413" y="434" type="curve" smooth="yes"/>
      <point x="420" y="434"/>
      <point x="423" y="420"/>
      <point x="417" y="406" type="curve" smooth="yes"/>
      <point x="397" y="359"/>
      <point x="386" y="301"/>
      <point x="375" y="245" type="curve"/>
      <point x="367" y="199"/>
      <point x="368" y="156"/>
      <point x="368" y="126" type="curve" smooth="yes"/>
      <point x="368" y="84"/>
      <point x="376" y="56"/>
      <point x="394" y="56" type="curve" smooth="yes"/>
      <point x="404" y="56"/>
      <point x="425" y="65"/>
      <point x="459" y="109" type="curve"/>
      <point x="498" y="162"/>
      <point x="544" y="237"/>
      <point x="555" y="283" type="curve"/>
      <point x="561" y="301"/>
      <point x="561" y="330"/>
      <point x="558" y="343" type="curve"/>
      <point x="553" y="358"/>
      <point x="545" y="368"/>
      <point x="535" y="368" type="curve" smooth="yes"/>
      <point x="522" y="368"/>
      <point x="510" y="361"/>
      <point x="502" y="352" type="curve" smooth="yes"/>
      <point x="497" y="345"/>
      <point x="488" y="339"/>
      <point x="482" y="341" type="curve" smooth="yes"/>
      <point x="476" y="343"/>
      <point x="476" y="354"/>
      <point x="480" y="359" type="curve" smooth="yes"/>
      <point x="482" y="363"/>
      <point x="494" y="381"/>
      <point x="519" y="406" type="curve"/>
      <point x="536" y="420"/>
      <point x="559" y="435"/>
      <point x="577" y="435" type="curve" smooth="yes"/>
      <point x="630" y="435"/>
      <point x="631" y="382"/>
      <point x="614" y="325" type="curve" smooth="yes"/>
      <point x="584" y="223"/>
      <point x="513" y="131"/>
      <point x="452" y="61" type="curve" smooth="yes"/>
      <point x="434" y="40"/>
      <point x="378" y="-13"/>
      <point x="342" y="-13" type="curve" smooth="yes"/>
      <point x="312" y="-13"/>
      <point x="299" y="9"/>
      <point x="299" y="43" type="curve" smooth="yes"/>
      <point x="299" y="81"/>
      <point x="298" y="126"/>
      <point x="311" y="173" type="curve" smooth="yes"/>
      <point x="314" y="186"/>
      <point x="314" y="194"/>
      <point x="311" y="194" type="curve" smooth="yes"/>
      <point x="307" y="194"/>
      <point x="297" y="180"/>
      <point x="289" y="168" type="curve" smooth="yes"/>
      <point x="258" y="120"/>
      <point x="217" y="61"/>
      <point x="178" y="22" type="curve" smooth="yes"/>
      <point x="169" y="12"/>
      <point x="138" y="-14"/>
      <point x="113" y="-14" type="curve" smooth="yes"/>
      <point x="79" y="-14"/>
      <point x="65" y="10"/>
      <point x="66" y="48" type="curve" smooth="yes"/>
      <point x="67" y="122"/>
      <point x="109" y="233"/>
      <point x="121" y="318" type="curve" smooth="yes"/>
      <point x="125" y="347"/>
      <point x="117" y="352"/>
      <point x="99" y="338" type="curve"/>
      <point x="84" y="328"/>
      <point x="73" y="318"/>
      <point x="61" y="308" type="curve"/>
      <point x="51" y="301"/>
      <point x="39" y="292"/>
    </contour>
  </outline>
</glyph>
<glyph name="x" format="1">
  <advance width="508"/>
  <unicode hex="0078"/>
  <outline>
    <contour>
      <point x="80" y="310" type="curve"/>
      <point x="74" y="314"/>
      <point x="77" y="324"/>
      <point x="85" y="332" type="curve"/>
      <point x="90" y="339"/>
      <point x="158" y="411"/>
      <point x="184" y="428" type="curve" smooth="yes"/>
      <point x="199" y="439"/>
      <point x="210" y="439"/>
      <point x="221" y="426" type="curve"/>
      <point x="249" y="399"/>
      <point x="271" y="351"/>
      <point x="275" y="312" type="curve" smooth="yes"/>
      <point x="277" y="297"/>
      <point x="279" y="294"/>
      <point x="284" y="294" type="curve" smooth="yes"/>
      <point x="287" y="294"/>
      <point x="293" y="302"/>
      <point x="300" y="312" type="curve" smooth="yes"/>
      <point x="333" y="364"/>
      <point x="391" y="437"/>
      <point x="458" y="437" type="curve" smooth="yes"/>
      <point x="485" y="437"/>
      <point x="500" y="418"/>
      <point x="501" y="382" type="curve" smooth="yes"/>
      <point x="501" y="359"/>
      <point x="480" y="332"/>
      <point x="460" y="313" type="curve" smooth="yes"/>
      <point x="451" y="305"/>
      <point x="441" y="293"/>
      <point x="434" y="301" type="curve"/>
      <point x="428" y="305"/>
      <point x="437" y="316"/>
      <point x="439" y="326" type="curve" smooth="yes"/>
      <point x="447" y="359"/>
      <point x="434" y="371"/>
      <point x="420" y="371" type="curve" smooth="yes"/>
      <point x="366" y="371"/>
      <point x="302" y="285"/>
      <point x="297" y="221" type="curve" smooth="yes"/>
      <point x="292" y="165"/>
      <point x="308" y="108"/>
      <point x="333" y="82" type="curve"/>
      <point x="357" y="61"/>
      <point x="369" y="65"/>
      <point x="393" y="84" type="curve" smooth="yes"/>
      <point x="412" y="100"/>
      <point x="425" y="112"/>
      <point x="443" y="130" type="curve"/>
      <point x="449" y="138"/>
      <point x="457" y="144"/>
      <point x="465" y="140" type="curve" smooth="yes"/>
      <point x="471" y="137"/>
      <point x="470" y="126"/>
      <point x="463" y="118" type="curve"/>
      <point x="441" y="86"/>
      <point x="399" y="39"/>
      <point x="368" y="8" type="curve" smooth="yes"/>
      <point x="336" y="-24"/>
      <point x="316" y="-14"/>
      <point x="287" y="15" type="curve" smooth="yes"/>
      <point x="267" y="35"/>
      <point x="253" y="75"/>
      <point x="244" y="120" type="curve" smooth="yes"/>
      <point x="242" y="130"/>
      <point x="240" y="140"/>
      <point x="235" y="140" type="curve" smooth="yes"/>
      <point x="228" y="140"/>
      <point x="225" y="132"/>
      <point x="219" y="121" type="curve" smooth="yes"/>
      <point x="194" y="77"/>
      <point x="136" y="-9"/>
      <point x="60" y="-9" type="curve" smooth="yes"/>
      <point x="29" y="-9"/>
      <point x="15" y="15"/>
      <point x="14" y="46" type="curve" smooth="yes"/>
      <point x="13" y="76"/>
      <point x="40" y="111"/>
      <point x="66" y="133" type="curve" smooth="yes"/>
      <point x="72" y="138"/>
      <point x="79" y="141"/>
      <point x="82" y="138" type="curve"/>
      <point x="87" y="136"/>
      <point x="88" y="128"/>
      <point x="80" y="116" type="curve"/>
      <point x="74" y="105"/>
      <point x="72" y="97"/>
      <point x="72" y="87" type="curve" smooth="yes"/>
      <point x="73" y="60"/>
      <point x="90" y="53"/>
      <point x="105" y="53" type="curve" smooth="yes"/>
      <point x="163" y="53"/>
      <point x="216" y="160"/>
      <point x="223" y="219" type="curve" smooth="yes"/>
      <point x="231" y="295"/>
      <point x="205" y="337"/>
      <point x="178" y="355" type="curve" smooth="yes"/>
      <point x="170" y="360"/>
      <point x="160" y="362"/>
      <point x="146" y="353" type="curve" smooth="yes"/>
      <point x="133" y="345"/>
      <point x="115" y="328"/>
      <point x="109" y="322" type="curve" smooth="yes"/>
      <point x="96" y="308"/>
      <point x="84" y="306"/>
    </contour>
  </outline>
</glyph>
<glyph name="z" format="1">
  <advance width="495"/>
  <unicode hex="007A"/>
  <outline>
    <contour>
      <point x="14" y="17" type="curve"/>
      <point x="14" y="45"/>
      <point x="38" y="70"/>
      <point x="53" y="81" type="curve" smooth="yes"/>
      <point x="67" y="92"/>
      <point x="90" y="103"/>
      <point x="108" y="107" type="curve" smooth="yes"/>
      <point x="124" y="111"/>
      <point x="134" y="118"/>
      <point x="144" y="125" type="curve" smooth="yes"/>
      <point x="215" y="183"/>
      <point x="282" y="251"/>
      <point x="348" y="313" type="curve" smooth="yes"/>
      <point x="357" y="322"/>
      <point x="353" y="329"/>
      <point x="344" y="327" type="curve" smooth="yes"/>
      <point x="332" y="325"/>
      <point x="327" y="322"/>
      <point x="307" y="322" type="curve" smooth="yes"/>
      <point x="290" y="322"/>
      <point x="275" y="327"/>
      <point x="255" y="338" type="curve" smooth="yes"/>
      <point x="237" y="347"/>
      <point x="218" y="354"/>
      <point x="201" y="354" type="curve" smooth="yes"/>
      <point x="171" y="354"/>
      <point x="141" y="317"/>
      <point x="116" y="285" type="curve" smooth="yes"/>
      <point x="112" y="280"/>
      <point x="104" y="269"/>
      <point x="95" y="271" type="curve" smooth="yes"/>
      <point x="83" y="275"/>
      <point x="91" y="288"/>
      <point x="95" y="297" type="curve" smooth="yes"/>
      <point x="114" y="345"/>
      <point x="168" y="434"/>
      <point x="199" y="434" type="curve" smooth="yes"/>
      <point x="221" y="434"/>
      <point x="240" y="423"/>
      <point x="257" y="412" type="curve"/>
      <point x="257" y="412"/>
      <point x="291" y="380"/>
      <point x="332" y="380" type="curve" smooth="yes"/>
      <point x="387" y="380"/>
      <point x="420" y="396"/>
      <point x="444" y="418" type="curve"/>
      <point x="457" y="433"/>
      <point x="471" y="443"/>
      <point x="481" y="439" type="curve" smooth="yes"/>
      <point x="486" y="437"/>
      <point x="488" y="429"/>
      <point x="479" y="413" type="curve"/>
      <point x="456" y="377"/>
      <point x="448" y="364"/>
      <point x="417" y="338" type="curve" smooth="yes"/>
      <point x="376" y="303"/>
      <point x="226" y="162"/>
      <point x="198" y="134" type="curve" smooth="yes"/>
      <point x="185" y="120"/>
      <point x="193" y="116"/>
      <point x="203" y="116" type="curve" smooth="yes"/>
      <point x="235" y="116"/>
      <point x="249" y="103"/>
      <point x="265" y="93" type="curve" smooth="yes"/>
      <point x="286" y="79"/>
      <point x="299" y="71"/>
      <point x="322" y="71" type="curve" smooth="yes"/>
      <point x="359" y="71"/>
      <point x="407" y="104"/>
      <point x="430" y="139" type="curve" smooth="yes"/>
      <point x="437" y="149"/>
      <point x="444" y="155"/>
      <point x="454" y="152" type="curve"/>
      <point x="460" y="149"/>
      <point x="455" y="130"/>
      <point x="451" y="125" type="curve"/>
      <point x="439" y="96"/>
      <point x="396" y="45"/>
      <point x="365" y="19" type="curve" smooth="yes"/>
      <point x="340" y="-3"/>
      <point x="329" y="-11"/>
      <point x="307" y="-11" type="curve" smooth="yes"/>
      <point x="282" y="-11"/>
      <point x="260" y="8"/>
      <point x="244" y="21" type="curve" smooth="yes"/>
      <point x="221" y="40"/>
      <point x="210" y="55"/>
      <point x="162" y="55" type="curve" smooth="yes"/>
      <point x="140" y="55"/>
      <point x="95" y="39"/>
      <point x="63" y="-2" type="curve" smooth="yes"/>
      <point x="58" y="-8"/>
      <point x="43" y="-19"/>
      <point x="30" y="-17" type="curve"/>
      <point x="19" y="-14"/>
      <point x="13" y="6"/>
    </contour>
  </outline>
</glyph>
<glyph name="braceleft" format="1">
  <advance width="261"/>
  <unicode hex="007B"/>
  <outline>
    <contour>
      <point x="274" y="594" type="curve" smooth="yes"/>
      <point x="295" y="594"/>
      <point x="295" y="590"/>
      <point x="295" y="584" type="curve"/>
      <point x="293" y="577"/>
      <point x="286" y="573"/>
      <point x="264" y="568" type="curve" smooth="yes"/>
      <point x="233" y="561"/>
      <point x="205" y="535"/>
      <point x="205" y="481" type="curve" smooth="yes"/>
      <point x="205" y="447"/>
      <point x="220" y="407"/>
      <point x="219" y="365" type="curve" smooth="yes"/>
      <point x="219" y="339"/>
      <point x="213" y="317"/>
      <point x="189" y="300" type="curve"/>
      <point x="179" y="291"/>
      <point x="171" y="287"/>
      <point x="168" y="279" type="curve" smooth="yes"/>
      <point x="165" y="267"/>
      <point x="197" y="269"/>
      <point x="189" y="232" type="curve" smooth="yes"/>
      <point x="175" y="173"/>
      <point x="104" y="107"/>
      <point x="104" y="40" type="curve" smooth="yes"/>
      <point x="104" y="3"/>
      <point x="120" y="-3"/>
      <point x="133" y="-7" type="curve" smooth="yes"/>
      <point x="146" y="-10"/>
      <point x="157" y="-11"/>
      <point x="155" y="-22" type="curve"/>
      <point x="152" y="-32"/>
      <point x="142" y="-35"/>
      <point x="115" y="-35" type="curve" smooth="yes"/>
      <point x="60" y="-35"/>
      <point x="29" y="-9"/>
      <point x="29" y="43" type="curve" smooth="yes"/>
      <point x="29" y="120"/>
      <point x="156" y="184"/>
      <point x="157" y="240" type="curve" smooth="yes"/>
      <point x="157" y="260"/>
      <point x="137" y="266"/>
      <point x="102" y="266" type="curve" smooth="yes"/>
      <point x="88" y="266"/>
      <point x="74" y="260"/>
      <point x="63" y="260" type="curve" smooth="yes"/>
      <point x="51" y="260"/>
      <point x="49" y="271"/>
      <point x="52" y="283" type="curve"/>
      <point x="56" y="293"/>
      <point x="63" y="299"/>
      <point x="74" y="299" type="curve" smooth="yes"/>
      <point x="85" y="299"/>
      <point x="95" y="292"/>
      <point x="113" y="292" type="curve" smooth="yes"/>
      <point x="152" y="292"/>
      <point x="188" y="306"/>
      <point x="188" y="347" type="curve"/>
      <point x="185" y="391"/>
      <point x="116" y="442"/>
      <point x="130" y="503" type="curve" smooth="yes"/>
      <point x="143" y="556"/>
      <point x="205" y="594"/>
    </contour>
  </outline>
</glyph>
<glyph name="bar" format="1">
  <advance width="309"/>
  <unicode hex="007C"/>
  <outline>
    <contour>
      <point x="130" y="-26" type="curve" smooth="yes"/>
      <point x="130" y="21"/>
      <point x="129" y="491"/>
      <point x="130" y="539" type="curve" smooth="yes"/>
      <point x="130" y="552"/>
      <point x="130" y="566"/>
      <point x="137" y="577" type="curve" smooth="yes"/>
      <point x="146" y="593"/>
      <point x="160" y="605"/>
      <point x="168" y="605" type="curve" smooth="yes"/>
      <point x="187" y="605"/>
      <point x="180" y="586"/>
      <point x="178" y="560" type="curve" smooth="yes"/>
      <point x="168" y="462"/>
      <point x="167" y="152"/>
      <point x="165" y="-8" type="curve" smooth="yes"/>
      <point x="165" y="-30"/>
      <point x="162" y="-43"/>
      <point x="148" y="-50" type="curve" smooth="yes"/>
      <point x="136" y="-56"/>
      <point x="130" y="-47"/>
    </contour>
  </outline>
</glyph>
<glyph name="braceright" format="1">
  <advance width="261"/>
  <unicode hex="007D"/>
  <outline>
    <contour>
      <point x="33" y="-35" type="curve" smooth="yes"/>
      <point x="11" y="-35"/>
      <point x="11" y="-30"/>
      <point x="12" y="-24" type="curve" smooth="yes"/>
      <point x="13" y="-18"/>
      <point x="21" y="-13"/>
      <point x="42" y="-8" type="curve" smooth="yes"/>
      <point x="73" y="-2"/>
      <point x="102" y="24"/>
      <point x="102" y="78" type="curve" smooth="yes"/>
      <point x="102" y="113"/>
      <point x="87" y="153"/>
      <point x="88" y="194" type="curve" smooth="yes"/>
      <point x="88" y="221"/>
      <point x="93" y="242"/>
      <point x="117" y="260" type="curve"/>
      <point x="127" y="269"/>
      <point x="136" y="273"/>
      <point x="138" y="279" type="curve" smooth="yes"/>
      <point x="141" y="293"/>
      <point x="109" y="293"/>
      <point x="118" y="330" type="curve" smooth="yes"/>
      <point x="132" y="389"/>
      <point x="203" y="453"/>
      <point x="203" y="520" type="curve" smooth="yes"/>
      <point x="203" y="557"/>
      <point x="187" y="563"/>
      <point x="174" y="566" type="curve" smooth="yes"/>
      <point x="160" y="570"/>
      <point x="149" y="571"/>
      <point x="152" y="581" type="curve"/>
      <point x="154" y="592"/>
      <point x="164" y="594"/>
      <point x="191" y="594" type="curve" smooth="yes"/>
      <point x="247" y="594"/>
      <point x="278" y="569"/>
      <point x="278" y="517" type="curve" smooth="yes"/>
      <point x="278" y="439"/>
      <point x="151" y="375"/>
      <point x="150" y="320" type="curve" smooth="yes"/>
      <point x="150" y="300"/>
      <point x="170" y="294"/>
      <point x="205" y="294" type="curve" smooth="yes"/>
      <point x="218" y="294"/>
      <point x="232" y="300"/>
      <point x="243" y="300" type="curve" smooth="yes"/>
      <point x="255" y="300"/>
      <point x="258" y="289"/>
      <point x="254" y="277" type="curve" smooth="yes"/>
      <point x="251" y="267"/>
      <point x="243" y="261"/>
      <point x="232" y="261" type="curve" smooth="yes"/>
      <point x="221" y="261"/>
      <point x="212" y="268"/>
      <point x="194" y="268" type="curve" smooth="yes"/>
      <point x="155" y="268"/>
      <point x="119" y="254"/>
      <point x="119" y="213" type="curve"/>
      <point x="121" y="168"/>
      <point x="190" y="118"/>
      <point x="176" y="56" type="curve"/>
      <point x="163" y="4"/>
      <point x="102" y="-35"/>
    </contour>
  </outline>
</glyph>
<glyph name="asciitilde" format="1">
  <advance width="426"/>
  <unicode hex="007E"/>
  <outline>
    <contour>
      <point x="24" y="231" type="curve" smooth="yes"/>
      <point x="19" y="235"/>
      <point x="29" y="246"/>
      <point x="41" y="256" type="curve" smooth="yes"/>
      <point x="91" y="297"/>
      <point x="131" y="316"/>
      <point x="157" y="316" type="curve" smooth="yes"/>
      <point x="184" y="316"/>
      <point x="211" y="305"/>
      <point x="232" y="297" type="curve" smooth="yes"/>
      <point x="260" y="287"/>
      <point x="291" y="283"/>
      <point x="306" y="283" type="curve" smooth="yes"/>
      <point x="333" y="283"/>
      <point x="359" y="291"/>
      <point x="378" y="305" type="curve" smooth="yes"/>
      <point x="394" y="316"/>
      <point x="402" y="327"/>
      <point x="412" y="324" type="curve" smooth="yes"/>
      <point x="418" y="322"/>
      <point x="420" y="312"/>
      <point x="407" y="296" type="curve"/>
      <point x="371" y="256"/>
      <point x="315" y="227"/>
      <point x="279" y="227" type="curve" smooth="yes"/>
      <point x="261" y="227"/>
      <point x="229" y="230"/>
      <point x="199" y="240" type="curve" smooth="yes"/>
      <point x="172" y="250"/>
      <point x="146" y="259"/>
      <point x="131" y="259" type="curve" smooth="yes"/>
      <point x="102" y="259"/>
      <point x="83" y="252"/>
      <point x="57" y="236" type="curve"/>
      <point x="45" y="230"/>
      <point x="33" y="224"/>
    </contour>
  </outline>
</glyph>
<glyph name="exclamdown" format="1">
  <advance width="262"/>
  <unicode hex="00A1"/>
  <outline>
    <contour>
      <point x="113" y="-123" type="curve" smooth="yes"/>
      <point x="107" y="-146"/>
      <point x="98" y="-152"/>
      <point x="82" y="-157" type="curve" smooth="yes"/>
      <point x="51" y="-165"/>
      <point x="40" y="-167"/>
      <point x="20" y="-167" type="curve" smooth="yes"/>
      <point x="3" y="-167"/>
      <point x="-5" y="-170"/>
      <point x="1" y="-147" type="curve" smooth="yes"/>
      <point x="7" y="-123"/>
      <point x="61" y="-8"/>
      <point x="67" y="8" type="curve" smooth="yes"/>
      <point x="98" y="85"/>
      <point x="123" y="164"/>
      <point x="143" y="233" type="curve" smooth="yes"/>
      <point x="149" y="253"/>
      <point x="151" y="260"/>
      <point x="165" y="263" type="curve" smooth="yes"/>
      <point x="178" y="266"/>
      <point x="175" y="255"/>
      <point x="171" y="232" type="curve" smooth="yes"/>
      <point x="158" y="172"/>
      <point x="137" y="78"/>
      <point x="129" y="16" type="curve" smooth="yes"/>
      <point x="126" y="-3"/>
      <point x="117" y="-109"/>
    </contour>
    <contour>
      <point x="189" y="356" type="curve" smooth="yes"/>
      <point x="166" y="354"/>
      <point x="141" y="366"/>
      <point x="141" y="389" type="curve" smooth="yes"/>
      <point x="141" y="426"/>
      <point x="171" y="439"/>
      <point x="191" y="441" type="curve" smooth="yes"/>
      <point x="227" y="445"/>
      <point x="242" y="423"/>
      <point x="242" y="404" type="curve" smooth="yes"/>
      <point x="242" y="375"/>
      <point x="213" y="359"/>
    </contour>
  </outline>
</glyph>
<glyph name="cent" format="1">
  <advance width="662"/>
  <unicode hex="00A2"/>
  <outline>
    <contour>
      <point x="306" y="494" type="curve" smooth="yes"/>
      <point x="301" y="480"/>
      <point x="295" y="460"/>
      <point x="294" y="447" type="curve" smooth="yes"/>
      <point x="293" y="437"/>
      <point x="293" y="433"/>
      <point x="298" y="430" type="curve" smooth="yes"/>
      <point x="311" y="424"/>
      <point x="323" y="412"/>
      <point x="324" y="384" type="curve"/>
      <point x="324" y="354"/>
      <point x="296" y="328"/>
      <point x="283" y="320" type="curve" smooth="yes"/>
      <point x="269" y="311"/>
      <point x="263" y="307"/>
      <point x="258" y="312" type="curve" smooth="yes"/>
      <point x="253" y="318"/>
      <point x="256" y="323"/>
      <point x="263" y="332" type="curve" smooth="yes"/>
      <point x="269" y="339"/>
      <point x="272" y="348"/>
      <point x="272" y="355" type="curve" smooth="yes"/>
      <point x="271" y="381"/>
      <point x="253" y="388"/>
      <point x="241" y="388" type="curve" smooth="yes"/>
      <point x="157" y="388"/>
      <point x="114" y="228"/>
      <point x="111" y="152" type="curve" smooth="yes"/>
      <point x="109" y="98"/>
      <point x="117" y="45"/>
      <point x="157" y="45" type="curve" smooth="yes"/>
      <point x="172" y="45"/>
      <point x="184" y="52"/>
      <point x="199" y="63" type="curve" smooth="yes"/>
      <point x="221" y="80"/>
      <point x="247" y="102"/>
      <point x="265" y="120" type="curve" smooth="yes"/>
      <point x="271" y="127"/>
      <point x="282" y="130"/>
      <point x="288" y="125" type="curve" smooth="yes"/>
      <point x="295" y="119"/>
      <point x="292" y="112"/>
      <point x="281" y="100" type="curve" smooth="yes"/>
      <point x="263" y="80"/>
      <point x="227" y="45"/>
      <point x="196" y="23" type="curve"/>
      <point x="181" y="11"/>
      <point x="166" y="3"/>
      <point x="152" y="-4" type="curve" smooth="yes"/>
      <point x="146" y="-7"/>
      <point x="145" y="-13"/>
      <point x="143" y="-17" type="curve" smooth="yes"/>
      <point x="137" y="-33"/>
      <point x="130" y="-52"/>
      <point x="127" y="-65" type="curve" smooth="yes"/>
      <point x="125" y="-72"/>
      <point x="124" y="-74"/>
      <point x="114" y="-78" type="curve" smooth="yes"/>
      <point x="101" y="-83"/>
      <point x="84" y="-88"/>
      <point x="90" y="-69" type="curve" smooth="yes"/>
      <point x="97" y="-50"/>
      <point x="99" y="-44"/>
      <point x="102" y="-22" type="curve" smooth="yes"/>
      <point x="103" y="-14"/>
      <point x="102" y="-4"/>
      <point x="98" y="-3" type="curve" smooth="yes"/>
      <point x="56" y="14"/>
      <point x="38" y="73"/>
      <point x="40" y="135" type="curve" smooth="yes"/>
      <point x="44" y="218"/>
      <point x="107" y="370"/>
      <point x="240" y="428" type="curve" smooth="yes"/>
      <point x="247" y="431"/>
      <point x="250" y="438"/>
      <point x="253" y="443" type="curve" smooth="yes"/>
      <point x="259" y="458"/>
      <point x="266" y="480"/>
      <point x="269" y="490" type="curve" smooth="yes"/>
      <point x="272" y="497"/>
      <point x="273" y="499"/>
      <point x="284" y="503" type="curve"/>
      <point x="296" y="509"/>
      <point x="313" y="514"/>
    </contour>
  </outline>
</glyph>
<glyph name="sterling" format="1">
  <advance width="580"/>
  <unicode hex="00A3"/>
  <outline>
    <contour>
      <point x="278" y="120" type="curve" smooth="yes"/>
      <point x="301" y="120"/>
      <point x="327" y="112"/>
      <point x="341" y="101" type="curve" smooth="yes"/>
      <point x="358" y="88"/>
      <point x="370" y="84"/>
      <point x="400" y="84" type="curve" smooth="yes"/>
      <point x="435" y="84"/>
      <point x="471" y="109"/>
      <point x="475" y="141" type="curve" smooth="yes"/>
      <point x="476" y="152"/>
      <point x="478" y="174"/>
      <point x="494" y="174" type="curve" smooth="yes"/>
      <point x="506" y="174"/>
      <point x="507" y="151"/>
      <point x="507" y="138" type="curve" smooth="yes"/>
      <point x="507" y="92"/>
      <point x="452" y="-11"/>
      <point x="359" y="-11" type="curve" smooth="yes"/>
      <point x="338" y="-11"/>
      <point x="331" y="-6"/>
      <point x="318" y="5" type="curve"/>
      <point x="283" y="39"/>
      <point x="253" y="47"/>
      <point x="219" y="47" type="curve" smooth="yes"/>
      <point x="163" y="47"/>
      <point x="97" y="26"/>
      <point x="74" y="8" type="curve" smooth="yes"/>
      <point x="61" y="-3"/>
      <point x="33" y="-15"/>
      <point x="19" y="-2" type="curve" smooth="yes"/>
      <point x="8" y="8"/>
      <point x="14" y="24"/>
      <point x="24" y="44" type="curve"/>
      <point x="40" y="85"/>
      <point x="69" y="97"/>
      <point x="104" y="106" type="curve" smooth="yes"/>
      <point x="147" y="117"/>
      <point x="249" y="182"/>
      <point x="249" y="254" type="curve" smooth="yes"/>
      <point x="249" y="260"/>
      <point x="249" y="273"/>
      <point x="232" y="273" type="curve" smooth="yes"/>
      <point x="184" y="273" type="line" smooth="yes"/>
      <point x="162" y="273"/>
      <point x="153" y="278"/>
      <point x="160" y="291" type="curve" smooth="yes"/>
      <point x="168" y="306"/>
      <point x="181" y="308"/>
      <point x="210" y="308" type="curve" smooth="yes"/>
      <point x="224" y="308"/>
      <point x="220" y="317"/>
      <point x="216" y="323" type="curve" smooth="yes"/>
      <point x="208" y="334"/>
      <point x="198" y="345"/>
      <point x="191" y="354" type="curve" smooth="yes"/>
      <point x="171" y="378"/>
      <point x="152" y="409"/>
      <point x="152" y="446" type="curve" smooth="yes"/>
      <point x="152" y="546"/>
      <point x="302" y="604"/>
      <point x="379" y="604" type="curve" smooth="yes"/>
      <point x="428" y="604"/>
      <point x="508" y="598"/>
      <point x="508" y="541" type="curve" smooth="yes"/>
      <point x="508" y="509"/>
      <point x="481" y="468"/>
      <point x="447" y="446" type="curve" smooth="yes"/>
      <point x="436" y="439"/>
      <point x="422" y="428"/>
      <point x="413" y="438" type="curve" smooth="yes"/>
      <point x="407" y="444"/>
      <point x="414" y="455"/>
      <point x="421" y="463" type="curve" smooth="yes"/>
      <point x="432" y="476"/>
      <point x="436" y="497"/>
      <point x="436" y="513" type="curve" smooth="yes"/>
      <point x="435" y="541"/>
      <point x="401" y="561"/>
      <point x="360" y="561" type="curve" smooth="yes"/>
      <point x="290" y="561"/>
      <point x="233" y="522"/>
      <point x="233" y="455" type="curve" smooth="yes"/>
      <point x="233" y="424"/>
      <point x="248" y="399"/>
      <point x="283" y="363" type="curve"/>
      <point x="296" y="348"/>
      <point x="306" y="335"/>
      <point x="313" y="323" type="curve" smooth="yes"/>
      <point x="320" y="311"/>
      <point x="322" y="314"/>
      <point x="335" y="315" type="curve" smooth="yes"/>
      <point x="354" y="316"/>
      <point x="374" y="320"/>
      <point x="410" y="323" type="curve" smooth="yes"/>
      <point x="437" y="326"/>
      <point x="456" y="332"/>
      <point x="455" y="313" type="curve" smooth="yes"/>
      <point x="455" y="306"/>
      <point x="443" y="291"/>
      <point x="426" y="283" type="curve"/>
      <point x="414" y="275"/>
      <point x="401" y="275"/>
      <point x="387" y="275" type="curve"/>
      <point x="375" y="274"/>
      <point x="359" y="274"/>
      <point x="341" y="274" type="curve"/>
      <point x="325" y="273"/>
      <point x="326" y="263"/>
      <point x="325" y="260" type="curve" smooth="yes"/>
      <point x="312" y="205"/>
      <point x="235" y="149"/>
      <point x="208" y="129" type="curve" smooth="yes"/>
      <point x="179" y="108"/>
      <point x="190" y="104"/>
      <point x="212" y="111" type="curve" smooth="yes"/>
      <point x="226" y="116"/>
      <point x="253" y="120"/>
    </contour>
  </outline>
</glyph>
<glyph name="currency" format="1">
  <advance width="487"/>
  <unicode hex="00A4"/>
  <outline>
    <contour>
      <point x="120" y="438" type="curve"/>
      <point x="130" y="430"/>
      <point x="141" y="423"/>
      <point x="152" y="418" type="curve"/>
      <point x="156" y="415"/>
      <point x="161" y="414"/>
      <point x="168" y="418" type="curve" smooth="yes"/>
      <point x="203" y="439"/>
      <point x="243" y="449"/>
      <point x="274" y="449" type="curve" smooth="yes"/>
      <point x="318" y="449"/>
      <point x="351" y="439"/>
      <point x="379" y="421" type="curve" smooth="yes"/>
      <point x="385" y="417"/>
      <point x="389" y="418"/>
      <point x="398" y="421" type="curve" smooth="yes"/>
      <point x="407" y="425"/>
      <point x="417" y="431"/>
      <point x="428" y="438" type="curve" smooth="yes"/>
      <point x="444" y="447"/>
      <point x="457" y="448"/>
      <point x="461" y="441" type="curve" smooth="yes"/>
      <point x="465" y="434"/>
      <point x="458" y="426"/>
      <point x="451" y="420" type="curve" smooth="yes"/>
      <point x="442" y="413"/>
      <point x="433" y="406"/>
      <point x="420" y="398" type="curve" smooth="yes"/>
      <point x="413" y="393"/>
      <point x="412" y="389"/>
      <point x="416" y="384" type="curve" smooth="yes"/>
      <point x="434" y="360"/>
      <point x="439" y="336"/>
      <point x="436" y="303" type="curve" smooth="yes"/>
      <point x="433" y="270"/>
      <point x="417" y="242"/>
      <point x="392" y="219" type="curve" smooth="yes"/>
      <point x="390" y="217"/>
      <point x="386" y="211"/>
      <point x="390" y="208" type="curve" smooth="yes"/>
      <point x="402" y="196"/>
      <point x="415" y="185"/>
      <point x="423" y="178" type="curve" smooth="yes"/>
      <point x="431" y="172"/>
      <point x="437" y="164"/>
      <point x="431" y="157" type="curve" smooth="yes"/>
      <point x="424" y="150"/>
      <point x="412" y="151"/>
      <point x="398" y="160" type="curve" smooth="yes"/>
      <point x="386" y="168"/>
      <point x="377" y="175"/>
      <point x="367" y="180" type="curve" smooth="yes"/>
      <point x="358" y="184"/>
      <point x="357" y="186"/>
      <point x="348" y="181" type="curve" smooth="yes"/>
      <point x="319" y="163"/>
      <point x="280" y="156"/>
      <point x="245" y="156" type="curve" smooth="yes"/>
      <point x="196" y="156"/>
      <point x="166" y="167"/>
      <point x="142" y="180" type="curve" smooth="yes"/>
      <point x="136" y="184"/>
      <point x="130" y="182"/>
      <point x="123" y="179" type="curve" smooth="yes"/>
      <point x="112" y="175"/>
      <point x="99" y="167"/>
      <point x="87" y="160" type="curve" smooth="yes"/>
      <point x="72" y="151"/>
      <point x="59" y="150"/>
      <point x="55" y="157" type="curve" smooth="yes"/>
      <point x="50" y="164"/>
      <point x="57" y="172"/>
      <point x="65" y="178" type="curve"/>
      <point x="75" y="184"/>
      <point x="88" y="194"/>
      <point x="102" y="203" type="curve"/>
      <point x="109" y="209"/>
      <point x="109" y="213"/>
      <point x="105" y="219" type="curve" smooth="yes"/>
      <point x="88" y="242"/>
      <point x="82" y="268"/>
      <point x="85" y="301" type="curve" smooth="yes"/>
      <point x="88" y="336"/>
      <point x="104" y="359"/>
      <point x="121" y="380" type="curve" smooth="yes"/>
      <point x="127" y="388"/>
      <point x="126" y="393"/>
      <point x="122" y="398" type="curve" smooth="yes"/>
      <point x="112" y="408"/>
      <point x="103" y="413"/>
      <point x="95" y="420" type="curve" smooth="yes"/>
      <point x="87" y="426"/>
      <point x="82" y="434"/>
      <point x="88" y="441" type="curve" smooth="yes"/>
      <point x="93" y="448"/>
      <point x="106" y="447"/>
    </contour>
    <contour>
      <point x="128" y="302" type="curve"/>
      <point x="122" y="243"/>
      <point x="171" y="188"/>
      <point x="251" y="188" type="curve" smooth="yes"/>
      <point x="326" y="188"/>
      <point x="387" y="237"/>
      <point x="394" y="302" type="curve" smooth="yes"/>
      <point x="400" y="364"/>
      <point x="352" y="415"/>
      <point x="270" y="415" type="curve" smooth="yes"/>
      <point x="194" y="415"/>
      <point x="135" y="360"/>
    </contour>
  </outline>
</glyph>
